Klei-Bld.ufo
<glyph name="exclam" format="1">
  <advance width="286"/>
  <unicode hex="0021"/>
  <outline>
    <contour>
      <point x="139.077" y="-18" type="curve" smooth="yes"/>
      <point x="97.1484" y="-18"/>
      <point x="63.1553" y="15.21"/>
      <point x="63.1553" y="56.1738" type="curve" smooth="yes"/>
      <point x="63.1553" y="97.1377"/>
      <point x="97.1475" y="130.349"/>
      <point x="139.077" y="130.349" type="curve" smooth="yes"/>
      <point x="181.007" y="130.349"/>
      <point x="215" y="97.1377"/>
      <point x="215" y="56.1738" type="curve" smooth="yes"/>
      <point x="215" y="15.21"/>
      <point x="181.007" y="-18"/>
    </contour>
    <contour>
      <point x="218.507" y="689.865" type="curve"/>
      <point x="197.5" y="233.685" type="line"/>
      <point x="196.64" y="217.037"/>
      <point x="162.951" y="196.117"/>
      <point x="144.169" y="195.713" type="curve" smooth="yes"/>
      <point x="144.007" y="195.709" type="line"/>
      <point x="143.844" y="195.712" type="line" smooth="yes"/>
      <point x="124.371" y="196.102"/>
      <point x="90.4922" y="216.541"/>
      <point x="89.5156" y="233.65" type="curve"/>
      <point x="66.5068" y="689.851" type="line"/>
      <point x="66.5068" y="723.152"/>
      <point x="107.623" y="751.434"/>
      <point x="142.929" y="751.434" type="curve" smooth="yes"/>
      <point x="178.62" y="751.434"/>
      <point x="218.507" y="722.652"/>
    </contour>
  </outline>
</glyph>
<glyph name="quotesingle" format="1">
  <advance width="217"/>
  <unicode hex="0027"/>
  <outline>
    <contour>
      <point x="102.515" y="716.821" type="curve" smooth="yes"/>
      <point x="108.526" y="716.821" type="line" smooth="yes"/>
      <point x="140.135" y="716.821"/>
      <point x="161.125" y="697.244"/>
      <point x="161.125" y="671.019" type="curve" smooth="yes"/>
      <point x="161.125" y="668.876"/>
      <point x="160.553" y="662.807"/>
      <point x="159.447" y="659.257" type="curve"/>
      <point x="141.534" y="514.167" type="line"/>
      <point x="141.534" y="514.167"/>
      <point x="130.567" y="494"/>
      <point x="116.039" y="494" type="curve" smooth="yes"/>
      <point x="95" y="494" type="line" smooth="yes"/>
      <point x="79.7773" y="494"/>
      <point x="70.5391" y="502.303"/>
      <point x="69.2676" y="516.095" type="curve"/>
      <point x="51.417" y="660.677" type="line"/>
      <point x="51.417" y="667.305" type="line" smooth="yes"/>
      <point x="51.417" y="692.846"/>
      <point x="72.3096" y="716.821"/>
    </contour>
  </outline>
</glyph>
<glyph name="parenright" format="1">
  <advance width="340"/>
  <unicode hex="0029"/>
  <outline>
    <contour>
      <point x="56" y="749.834" type="curve"/>
      <point x="56" y="793.779" type="line"/>
      <point x="68.3018" y="783.382"/>
      <point x="291" y="642.29"/>
      <point x="291" y="331" type="curve" smooth="yes"/>
      <point x="291" y="50.6367"/>
      <point x="67.5811" y="-115.313"/>
      <point x="56" y="-126.719" type="curve"/>
      <point x="56" y="-71.8809" type="line"/>
      <point x="84.0811" y="-29.7598"/>
      <point x="169" y="35.3721"/>
      <point x="169" y="330" type="curve" smooth="yes"/>
      <point x="169" y="647.89"/>
      <point x="84.1113" y="708.749"/>
    </contour>
  </outline>
</glyph>
<glyph name="zero" format="1">
  <advance width="520"/>
  <unicode hex="0030"/>
  <outline>
    <contour>
      <point x="261" y="587" type="curve" smooth="yes"/>
      <point x="206.514" y="587"/>
      <point x="155" y="485.549"/>
      <point x="155" y="317" type="curve" smooth="yes"/>
      <point x="155" y="148.452"/>
      <point x="206.513" y="47"/>
      <point x="261" y="47" type="curve" smooth="yes"/>
      <point x="315.486" y="47"/>
      <point x="367" y="148.451"/>
      <point x="367" y="317" type="curve" smooth="yes"/>
      <point x="367" y="485.548"/>
      <point x="315.487" y="587"/>
    </contour>
    <contour>
      <point x="261" y="-7" type="curve" smooth="yes"/>
      <point x="119.683" y="-7"/>
      <point x="25" y="140.491"/>
      <point x="25" y="317" type="curve" smooth="yes"/>
      <point x="25" y="493.509"/>
      <point x="120.683" y="640"/>
      <point x="261" y="640" type="curve" smooth="yes"/>
      <point x="402.317" y="640"/>
      <point x="497" y="493.509"/>
      <point x="497" y="317" type="curve" smooth="yes"/>
      <point x="497" y="140.491"/>
      <point x="402.317" y="-7"/>
    </contour>
  </outline>
</glyph>
<glyph name="four" format="1">
  <advance width="520"/>
  <unicode hex="0034"/>
  <outline>
    <contour>
      <point x="272.777" y="328.055" type="curve"/>
      <point x="272.777" y="489.425" type="line"/>
      <point x="222.937" y="423.547"/>
      <point x="194.517" y="381.09"/>
      <point x="148.593" y="328.937" type="curve"/>
      <point x="201.489" y="328.542"/>
      <point x="243.676" y="328.401"/>
    </contour>
    <contour>
      <point x="38.1475" y="301.039" type="curve"/>
      <point x="129.97" y="413.805"/>
      <point x="298" y="636.333"/>
      <point x="305.842" y="638" type="curve" smooth="yes"/>
      <point x="318.654" y="640.723"/>
      <point x="359.262" y="642"/>
      <point x="372.178" y="642" type="curve" smooth="yes"/>
      <point x="384.876" y="642"/>
      <point x="400.5" y="634.694"/>
      <point x="400.5" y="617.389" type="curve" smooth="yes"/>
      <point x="400.5" y="329.006" type="line"/>
      <point x="439.561" y="329.729"/>
      <point x="449.042" y="332.554"/>
      <point x="474.896" y="338.228" type="curve"/>
      <point x="472.225" y="327.225"/>
      <point x="470.5" y="308.388"/>
      <point x="470.5" y="299.426" type="curve" smooth="yes"/>
      <point x="470.5" y="288.159"/>
      <point x="472.168" y="279.429"/>
      <point x="473.399" y="271" type="curve"/>
      <point x="398.5" y="271" type="line"/>
      <point x="398.5" y="14.6221" type="line" smooth="yes"/>
      <point x="398.5" y="9.12988"/>
      <point x="395.761" y="0"/>
      <point x="385.5" y="0" type="curve" smooth="yes"/>
      <point x="286.5" y="0" type="line" smooth="yes"/>
      <point x="277.078" y="0"/>
      <point x="272.195" y="6.70117"/>
      <point x="272.195" y="12.6729" type="curve" smooth="yes"/>
      <point x="272.777" y="271" type="line"/>
      <point x="46.5" y="271" type="line" smooth="yes"/>
      <point x="40.0889" y="271"/>
      <point x="32.0146" y="276.118"/>
      <point x="32.0146" y="285.25" type="curve" smooth="yes"/>
      <point x="32.0146" y="290.936"/>
      <point x="34.4189" y="296.611"/>
    </contour>
  </outline>
</glyph>
<glyph name="five" format="1">
  <advance width="520"/>
  <unicode hex="0035"/>
  <outline>
    <contour>
      <point x="447.286" y="617.586" type="curve" smooth="yes"/>
      <point x="453.503" y="617.586"/>
      <point x="466.107" y="615.685"/>
      <point x="466.107" y="604.443" type="curve" smooth="yes"/>
      <point x="466.107" y="595.456"/>
      <point x="451.919" y="559.444"/>
      <point x="446.147" y="544.466" type="curve"/>
      <point x="194.766" y="544.466" type="line"/>
      <point x="155.711" y="391.991" type="line"/>
      <point x="200.352" y="413.039"/>
      <point x="233.885" y="420"/>
      <point x="278.834" y="420" type="curve" smooth="yes"/>
      <point x="398.741" y="420"/>
      <point x="495.286" y="346.051"/>
      <point x="495.286" y="210.367" type="curve" smooth="yes"/>
      <point x="495.286" y="89.5342"/>
      <point x="376.406" y="-5"/>
      <point x="242.063" y="-5" type="curve" smooth="yes"/>
      <point x="193.528" y="-5"/>
      <point x="127.345" y="3"/>
      <point x="76.3105" y="55.0752" type="curve"/>
      <point x="72.5146" y="58.8711"/>
      <point x="69.1025" y="66.8047"/>
      <point x="69.1025" y="71" type="curve" smooth="yes"/>
      <point x="69.1025" y="81.5225"/>
      <point x="77.5293" y="87.6016"/>
      <point x="86.4199" y="87.6016" type="curve" smooth="yes"/>
      <point x="91.2314" y="87.6016"/>
      <point x="96.1787" y="85.8213"/>
      <point x="100" y="82" type="curve" smooth="yes"/>
      <point x="129.464" y="51.6152"/>
      <point x="193.412" y="43"/>
      <point x="234.412" y="43" type="curve" smooth="yes"/>
      <point x="323.117" y="43"/>
      <point x="373.286" y="134.108"/>
      <point x="373.286" y="190.368" type="curve" smooth="yes"/>
      <point x="373.286" y="248.546"/>
      <point x="327.934" y="312"/>
      <point x="243.412" y="312" type="curve" smooth="yes"/>
      <point x="192.844" y="312"/>
      <point x="105.135" y="289.599"/>
      <point x="48" y="254.031" type="curve"/>
      <point x="131.758" y="611" type="line"/>
      <point x="385.286" y="611" type="line" smooth="yes"/>
      <point x="408.366" y="611"/>
      <point x="429.574" y="617.586"/>
    </contour>
  </outline>
</glyph>
<glyph name="colon" format="1">
  <advance width="228"/>
  <unicode hex="003A"/>
  <outline>
    <contour>
      <point x="112.077" y="315.651" type="curve" smooth="yes"/>
      <point x="70.1484" y="315.651"/>
      <point x="36.1553" y="348.861"/>
      <point x="36.1553" y="389.825" type="curve" smooth="yes"/>
      <point x="36.1553" y="430.789"/>
      <point x="70.1475" y="464"/>
      <point x="112.077" y="464" type="curve" smooth="yes"/>
      <point x="154.007" y="464"/>
      <point x="188" y="430.789"/>
      <point x="188" y="389.825" type="curve" smooth="yes"/>
      <point x="188" y="348.861"/>
      <point x="154.007" y="315.651"/>
    </contour>
    <contour>
      <point x="112.077" y="-18" type="curve" smooth="yes"/>
      <point x="70.1484" y="-18"/>
      <point x="36.1553" y="15.21"/>
      <point x="36.1553" y="56.1738" type="curve" smooth="yes"/>
      <point x="36.1553" y="97.1377"/>
      <point x="70.1475" y="130.349"/>
      <point x="112.077" y="130.349" type="curve" smooth="yes"/>
      <point x="154.007" y="130.349"/>
      <point x="188" y="97.1377"/>
      <point x="188" y="56.1738" type="curve" smooth="yes"/>
      <point x="188" y="15.21"/>
      <point x="154.007" y="-18"/>
    </contour>
  </outline>
</glyph>
<glyph name="equal" format="1">
  <advance width="421"/>
  <unicode hex="003D"/>
  <outline>
    <contour>
      <point x="85.7861" y="320.359" type="line" smooth="yes"/>
      <point x="73.7568" y="324.369"/>
      <point x="70" y="345.217"/>
      <point x="70" y="366" type="curve" smooth="yes"/>
      <point x="70" y="385.826"/>
      <point x="73.8525" y="408"/>
      <point x="88" y="408" type="curve" smooth="yes"/>
      <point x="337" y="408" type="line" smooth="yes"/>
      <point x="351.676" y="408"/>
      <point x="354" y="381.131"/>
      <point x="354" y="363" type="curve" smooth="yes"/>
      <point x="354" y="346.266"/>
      <point x="351.497" y="320"/>
      <point x="337" y="320" type="curve" smooth="yes"/>
      <point x="86.8643" y="320" type="line"/>
    </contour>
    <contour>
      <point x="85.7861" y="185.359" type="line" smooth="yes"/>
      <point x="73.7568" y="189.369"/>
      <point x="70" y="210.217"/>
      <point x="70" y="231" type="curve" smooth="yes"/>
      <point x="70" y="250.826"/>
      <point x="73.8525" y="273"/>
      <point x="88" y="273" type="curve" smooth="yes"/>
      <point x="337" y="273" type="line" smooth="yes"/>
      <point x="351.676" y="273"/>
      <point x="354" y="246.131"/>
      <point x="354" y="228" type="curve" smooth="yes"/>
      <point x="354" y="211.266"/>
      <point x="351.497" y="185"/>
      <point x="337" y="185" type="curve" smooth="yes"/>
      <point x="86.8643" y="185" type="line"/>
    </contour>
  </outline>
</glyph>
<glyph name="greater" format="1">
  <advance width="504"/>
  <unicode hex="003E"/>
  <outline>
    <contour>
      <point x="327.792" y="324" type="line"/>
      <point x="54" y="481.957" type="line"/>
      <point x="54" y="582.016" type="line"/>
      <point x="456" y="354.078" type="line"/>
      <point x="456" y="289.922" type="line"/>
      <point x="54" y="61.9844" type="line"/>
      <point x="54" y="166.043" type="line"/>
    </contour>
  </outline>
</glyph>
<glyph name="A" format="1">
  <advance width="825"/>
  <unicode hex="0041"/>
  <outline>
    <contour>
      <point x="765" y="15" type="move" smooth="yes"/>
    </contour>
    <contour>
      <point x="762" y="0" type="curve"/>
      <point x="521" y="0" type="line"/>
      <point x="521" y="0"/>
      <point x="517" y="6.24805"/>
      <point x="517" y="15" type="curve" smooth="yes"/>
      <point x="517" y="23"/>
      <point x="521" y="30"/>
      <point x="521" y="30" type="curve"/>
      <point x="528" y="30" type="line" smooth="yes"/>
      <point x="550" y="30"/>
      <point x="571.481" y="46.9727"/>
      <point x="571.481" y="68.3545" type="curve" smooth="yes"/>
      <point x="571.481" y="73.4668"/>
      <point x="571.161" y="79.0752"/>
      <point x="568.525" y="85.3125" type="curve" smooth="yes"/>
      <point x="473.86" y="295" type="line"/>
      <point x="278.412" y="295" type="line" smooth="yes"/>
      <point x="277.286" y="295"/>
      <point x="277.262" y="294.868"/>
      <point x="277.262" y="294.868" type="curve"/>
      <point x="277.069" y="294.694"/>
      <point x="276.338" y="293.593"/>
      <point x="275.287" y="291.204" type="curve" smooth="yes"/>
      <point x="188.447" y="90.0742" type="line"/>
      <point x="182.562" y="76.875"/>
      <point x="180.477" y="67.7002"/>
      <point x="180.477" y="61.5303" type="curve" smooth="yes"/>
      <point x="180.477" y="43.1162"/>
      <point x="195" y="30"/>
      <point x="215" y="30" type="curve" smooth="yes"/>
      <point x="222" y="30" type="line"/>
      <point x="222" y="30"/>
      <point x="226" y="23.752"/>
      <point x="226" y="15" type="curve" smooth="yes"/>
      <point x="226" y="7"/>
      <point x="222" y="0"/>
      <point x="222" y="0" type="curve"/>
      <point x="50" y="0" type="line"/>
      <point x="50" y="0"/>
      <point x="46" y="6.24805"/>
      <point x="46" y="15" type="curve" smooth="yes"/>
      <point x="46" y="23"/>
      <point x="50" y="30"/>
      <point x="50" y="30" type="curve"/>
      <point x="57" y="30" type="line" smooth="yes"/>
      <point x="88.5342" y="30"/>
      <point x="93.8418" y="52.5791"/>
      <point x="106.589" y="79.1318" type="curve"/>
      <point x="380.123" y="708.659" type="line"/>
      <point x="381.52" y="709.753" type="line" smooth="yes"/>
      <point x="395.367" y="720.6"/>
      <point x="408.04" y="718.687"/>
      <point x="419.423" y="728.493" type="curve" smooth="yes"/>
      <point x="427.179" y="735.309" type="line"/>
      <point x="716.399" y="59.5391" type="line"/>
      <point x="723.771" y="44.6084"/>
      <point x="736" y="30"/>
      <point x="755" y="30" type="curve" smooth="yes"/>
      <point x="762" y="30" type="line"/>
      <point x="762" y="30"/>
      <point x="765" y="23.752"/>
      <point x="765" y="15" type="curve" smooth="yes"/>
      <point x="765" y="7"/>
      <point x="762" y="0"/>
    </contour>
    <contour>
      <point x="379" y="532" type="line"/>
      <point x="299.264" y="348" type="line"/>
      <point x="452.952" y="348" type="line"/>
    </contour>
  </outline>
</glyph>
<glyph name="B" format="1">
  <advance width="679"/>
  <unicode hex="0042"/>
  <outline>
    <contour>
      <point x="136.56" y="0" type="move" smooth="yes"/>
    </contour>
    <contour>
      <point x="64" y="0" type="line"/>
      <point x="64" y="0"/>
      <point x="60" y="6.24805"/>
      <point x="60" y="15" type="curve" smooth="yes"/>
      <point x="60" y="23"/>
      <point x="64" y="30"/>
      <point x="64" y="30" type="curve"/>
      <point x="86.8252" y="30.6328"/>
      <point x="116.018" y="43.3896"/>
      <point x="116.242" y="64.5674" type="curve" smooth="yes"/>
      <point x="117.829" y="180.559"/>
      <point x="119.146" y="286.503"/>
      <point x="119.146" y="402.29" type="curve" smooth="yes"/>
      <point x="119.146" y="488.706"/>
      <point x="116.362" y="574.898"/>
      <point x="116.362" y="661.178" type="curve" smooth="yes"/>
      <point x="116.362" y="685.377"/>
      <point x="96.7334" y="700.687"/>
      <point x="64" y="701" type="curve"/>
      <point x="64" y="701"/>
      <point x="60" y="706.248"/>
      <point x="60" y="715" type="curve" smooth="yes"/>
      <point x="60" y="723"/>
      <point x="64" y="730"/>
      <point x="64" y="730" type="curve"/>
      <point x="67.582" y="730.119"/>
      <point x="73.0557" y="730.151"/>
      <point x="78.7148" y="730.151" type="curve" smooth="yes"/>
      <point x="85.5342" y="730.151"/>
      <point x="92.624" y="730.104"/>
      <point x="97" y="730.104" type="curve" smooth="yes"/>
      <point x="160.797" y="730.104"/>
      <point x="246.941" y="734"/>
      <point x="314.408" y="734" type="curve" smooth="yes"/>
      <point x="465.889" y="734"/>
      <point x="569.256" y="658.194"/>
      <point x="569.256" y="549.554" type="curve" smooth="yes"/>
      <point x="569.256" y="472.432"/>
      <point x="487.366" y="416.331"/>
      <point x="406.271" y="391" type="curve"/>
      <point x="493.725" y="374.106"/>
      <point x="609.812" y="308.243"/>
      <point x="609.812" y="188.741" type="curve" smooth="yes"/>
      <point x="609.812" y="49.2686"/>
      <point x="501.572" y="-1.66699"/>
      <point x="380.187" y="-1.66699" type="curve" smooth="yes"/>
      <point x="306.26" y="-1.66699"/>
      <point x="222.759" y="0"/>
      <point x="150.56" y="0" type="curve" smooth="yes"/>
    </contour>
    <contour>
      <point x="467.078" y="198.265" type="curve" smooth="yes"/>
      <point x="467.078" y="307.607"/>
      <point x="379.413" y="359.693"/>
      <point x="296.153" y="360.477" type="curve"/>
      <point x="262.383" y="358.292" type="line"/>
      <point x="262.018" y="66.9873" type="line" smooth="yes"/>
      <point x="262.845" y="49.1543"/>
      <point x="269.609" y="39.6104"/>
      <point x="277.875" y="39.4434" type="curve"/>
      <point x="294.945" y="39.0049"/>
      <point x="301.628" y="38.3145"/>
      <point x="318.636" y="38.3145" type="curve" smooth="yes"/>
      <point x="411.044" y="38.3145"/>
      <point x="467.078" y="116.406"/>
    </contour>
    <contour>
      <point x="300.245" y="401.122" type="curve" smooth="yes"/>
      <point x="360.771" y="401.122"/>
      <point x="433.991" y="462.392"/>
      <point x="433.991" y="548.591" type="curve" smooth="yes"/>
      <point x="433.991" y="628.05"/>
      <point x="371.889" y="689.924"/>
      <point x="311.79" y="689.924" type="curve" smooth="yes"/>
      <point x="295.622" y="689.924"/>
      <point x="270.983" y="687.664"/>
      <point x="270.067" y="687.628" type="curve" smooth="yes"/>
      <point x="260.389" y="687.241"/>
      <point x="260.103" y="676.118"/>
      <point x="259.207" y="668.064" type="curve"/>
      <point x="260.494" y="519.556" type="line" smooth="yes"/>
      <point x="260.926" y="402.178" type="line"/>
      <point x="275.131" y="401.751"/>
      <point x="287.272" y="401.122"/>
    </contour>
  </outline>
</glyph>
<glyph name="F" format="1">
  <advance width="645"/>
  <unicode hex="0046"/>
  <outline>
    <contour>
      <point x="307" y="0" type="curve"/>
      <point x="68" y="0" type="line"/>
      <point x="68" y="0"/>
      <point x="64" y="6.24805"/>
      <point x="64" y="15" type="curve" smooth="yes"/>
      <point x="64" y="23"/>
      <point x="68" y="30"/>
      <point x="68" y="30" type="curve"/>
      <point x="75.9102" y="30.3125" type="line" smooth="yes"/>
      <point x="84.0146" y="30.6787"/>
      <point x="88.5361" y="31.0977"/>
      <point x="95.9854" y="32.5771" type="curve" smooth="yes"/>
      <point x="112.149" y="35.7861"/>
      <point x="119.248" y="54.0312"/>
      <point x="119.258" y="63.4102" type="curve" smooth="yes"/>
      <point x="119.258" y="63.7324" type="line"/>
      <point x="119.289" y="64.0537" type="line" smooth="yes"/>
      <point x="120.97" y="81.3701"/>
      <point x="121.267" y="239.23"/>
      <point x="121.267" y="395.42" type="curve" smooth="yes"/>
      <point x="121.267" y="526.376"/>
      <point x="120.241" y="665.857"/>
      <point x="120.241" y="665.857" type="curve" smooth="yes"/>
      <point x="120.241" y="675.568"/>
      <point x="112.216" y="695.456"/>
      <point x="95.9805" y="698.685" type="curve" smooth="yes"/>
      <point x="84.8789" y="700.893"/>
      <point x="80.7607" y="700.888"/>
      <point x="68" y="701" type="curve"/>
      <point x="68" y="701"/>
      <point x="64" y="706.248"/>
      <point x="64" y="715" type="curve" smooth="yes"/>
      <point x="64" y="723"/>
      <point x="68" y="730"/>
      <point x="68" y="730" type="curve"/>
      <point x="563.201" y="730.333" type="line"/>
      <point x="581.963" y="565.829" type="line"/>
      <point x="552.23" y="567.662" type="line"/>
      <point x="539.479" y="629.219"/>
      <point x="516.823" y="669.388"/>
      <point x="454.959" y="684.341" type="curve" smooth="yes"/>
      <point x="412.733" y="694.411"/>
      <point x="374.343" y="694.99"/>
      <point x="311.731" y="695.333" type="curve"/>
      <point x="290.945" y="695.333"/>
      <point x="300.587" y="694.394"/>
      <point x="279.578" y="692.064" type="curve" smooth="yes"/>
      <point x="263.177" y="690.247"/>
      <point x="256.699" y="679.54"/>
      <point x="256.699" y="669.388" type="curve"/>
      <point x="253.863" y="400.402" type="line"/>
      <point x="285.273" y="398.224"/>
      <point x="314.152" y="392"/>
      <point x="344.946" y="392" type="curve" smooth="yes"/>
      <point x="383.397" y="392"/>
      <point x="404.107" y="398.881"/>
      <point x="434.985" y="401.588" type="curve"/>
      <point x="454.119" y="406.141"/>
      <point x="461.938" y="430.886"/>
      <point x="463.324" y="454.521" type="curve"/>
      <point x="480.121" y="454.521" type="line"/>
      <point x="480.121" y="295.025" type="line"/>
      <point x="463.073" y="295.025" type="line"/>
      <point x="458.897" y="318.278"/>
      <point x="453.229" y="343.314"/>
      <point x="430.532" y="348.61" type="curve"/>
      <point x="397.366" y="351.612"/>
      <point x="376.999" y="355"/>
      <point x="340.967" y="355" type="curve" smooth="yes"/>
      <point x="308.351" y="355"/>
      <point x="279.301" y="352.355"/>
      <point x="251.564" y="350.042" type="curve"/>
      <point x="251.197" y="314.636" type="line"/>
      <point x="256.824" y="67.4346" type="line" smooth="yes"/>
      <point x="256.942" y="58.4736"/>
      <point x="259.716" y="38.9316"/>
      <point x="273.879" y="34.3262" type="curve" smooth="yes"/>
      <point x="284.003" y="31.0342"/>
      <point x="289.118" y="30.8496"/>
      <point x="300.137" y="30.2949" type="curve" smooth="yes"/>
      <point x="307" y="30" type="line"/>
      <point x="307" y="30"/>
      <point x="310" y="23.752"/>
      <point x="310" y="15" type="curve" smooth="yes"/>
      <point x="310" y="7"/>
      <point x="307" y="0"/>
    </contour>
    <contour>
      <point x="310" y="15" type="move" smooth="yes"/>
    </contour>
  </outline>
</glyph>
<glyph name="G" format="1">
  <advance width="815"/>
  <unicode hex="0047"/>
  <outline>
    <contour>
      <point x="565" y="280" type="curve"/>
      <point x="565" y="280"/>
      <point x="562" y="286"/>
      <point x="562" y="294" type="curve" smooth="yes"/>
      <point x="562" y="302.752"/>
      <point x="565" y="309"/>
      <point x="565" y="309" type="curve"/>
      <point x="788" y="309" type="line"/>
      <point x="788" y="309"/>
      <point x="791" y="302.752"/>
      <point x="791" y="294" type="curve" smooth="yes"/>
      <point x="791" y="286"/>
      <point x="788" y="280"/>
      <point x="788" y="280" type="curve"/>
      <point x="776.995" y="279.386"/>
      <point x="767.517" y="279.091"/>
      <point x="757.869" y="277.179" type="curve" smooth="yes"/>
      <point x="741.83" y="273.999"/>
      <point x="735.923" y="253.9"/>
      <point x="735.605" y="244.165" type="curve" smooth="yes"/>
      <point x="732" y="168.669" type="line"/>
      <point x="732" y="142.395"/>
      <point x="722.411" y="133.822"/>
      <point x="707.73" y="113.35" type="curve" smooth="yes"/>
      <point x="668.252" y="58.2988"/>
      <point x="571.242" y="-10.0078"/>
      <point x="429.256" y="-10.0078" type="curve" smooth="yes"/>
      <point x="283.397" y="-10.0078"/>
      <point x="55" y="52.6055"/>
      <point x="55" y="352.256" type="curve" smooth="yes"/>
      <point x="55" y="552.174"/>
      <point x="173.037" y="742.001"/>
      <point x="442.465" y="742.001" type="curve" smooth="yes"/>
      <point x="583.971" y="742.001"/>
      <point x="644.736" y="658.256"/>
      <point x="670" y="658.256" type="curve" smooth="yes"/>
      <point x="688.59" y="658.256"/>
      <point x="691.878" y="684.903"/>
      <point x="709" y="684.903" type="curve" smooth="yes"/>
      <point x="715.945" y="684.903"/>
      <point x="724.135" y="675.331"/>
      <point x="724.374" y="665.632" type="curve"/>
      <point x="727.182" y="466.459" type="line"/>
      <point x="726.725" y="459.562"/>
      <point x="717.7" y="451.991"/>
      <point x="711.049" y="451.991" type="curve" smooth="yes"/>
      <point x="706.217" y="451.991"/>
      <point x="696.576" y="455.227"/>
      <point x="694.579" y="463.323" type="curve" smooth="yes"/>
      <point x="670.114" y="562.456"/>
      <point x="605.153" y="690.77"/>
      <point x="435.047" y="690.77" type="curve" smooth="yes"/>
      <point x="264.339" y="690.77"/>
      <point x="208" y="509.981"/>
      <point x="208" y="384.646" type="curve" smooth="yes"/>
      <point x="208" y="72.7783"/>
      <point x="380.138" y="46"/>
      <point x="445.346" y="46" type="curve" smooth="yes"/>
      <point x="537.093" y="46"/>
      <point x="621.058" y="117.682"/>
      <point x="621.058" y="171.828" type="curve"/>
      <point x="618.488" y="244.505" type="line" smooth="yes"/>
      <point x="618.317" y="254.064"/>
      <point x="612.144" y="274.148"/>
      <point x="595.562" y="277.322" type="curve" smooth="yes"/>
      <point x="585.629" y="279.224"/>
      <point x="575.837" y="280.52"/>
    </contour>
    <contour>
      <point x="562" y="294" type="move" smooth="yes"/>
    </contour>
    <contour>
      <point x="791" y="294" type="move" smooth="yes"/>
    </contour>
  </outline>
</glyph>
<glyph name="I" format="1">
  <advance width="375"/>
  <unicode hex="0049"/>
  <outline>
    <contour>
      <point x="314.397" y="729.609" type="line"/>
      <point x="314.397" y="729.609"/>
      <point x="318.392" y="724.057"/>
      <point x="318.392" y="715.305" type="curve" smooth="yes"/>
      <point x="318.392" y="707.305"/>
      <point x="314.397" y="700.305"/>
      <point x="314.397" y="700.305" type="curve"/>
      <point x="306.09" y="700.021" type="line" smooth="yes"/>
      <point x="295.297" y="699.651"/>
      <point x="263.412" y="684.258"/>
      <point x="262.772" y="666.74" type="curve" smooth="yes"/>
      <point x="260.743" y="572.52"/>
      <point x="259.915" y="487.963"/>
      <point x="259.915" y="393.458" type="curve" smooth="yes"/>
      <point x="259.915" y="280.801"/>
      <point x="261.086" y="177.833"/>
      <point x="262.777" y="65.1211" type="curve" smooth="yes"/>
      <point x="263.464" y="46.5127"/>
      <point x="283" y="30"/>
      <point x="307.094" y="29.3838" type="curve" smooth="yes"/>
      <point x="315.006" y="29.3047" type="line"/>
      <point x="315.006" y="29.3047"/>
      <point x="319" y="23.752"/>
      <point x="319" y="15" type="curve" smooth="yes"/>
      <point x="319" y="7"/>
      <point x="315.006" y="0"/>
      <point x="315.006" y="0" type="curve"/>
      <point x="64" y="0" type="line"/>
      <point x="64" y="0"/>
      <point x="60" y="6.24805"/>
      <point x="60" y="15" type="curve" smooth="yes"/>
      <point x="60" y="23"/>
      <point x="64" y="29"/>
      <point x="64" y="29" type="curve"/>
      <point x="67.8564" y="29.3838" type="line" smooth="yes"/>
      <point x="92" y="31"/>
      <point x="115.95" y="46.1602"/>
      <point x="115.95" y="64.9844" type="curve" smooth="yes"/>
      <point x="117.202" y="178.009"/>
      <point x="117.987" y="280.738"/>
      <point x="117.987" y="393.458" type="curve" smooth="yes"/>
      <point x="117.987" y="487.687"/>
      <point x="117.454" y="571.72"/>
      <point x="116.194" y="665.886" type="curve" smooth="yes"/>
      <point x="116.194" y="684.046"/>
      <point x="94.9297" y="699.143"/>
      <point x="71.8604" y="700.021" type="curve" smooth="yes"/>
      <point x="64.3916" y="700.305" type="line"/>
      <point x="64.3916" y="700.305"/>
      <point x="60.3916" y="706.553"/>
      <point x="60.3916" y="715.305" type="curve" smooth="yes"/>
      <point x="60.3916" y="723.305"/>
      <point x="64.3916" y="729.305"/>
      <point x="64.3916" y="729.305" type="curve"/>
    </contour>
  </outline>
</glyph>
<glyph name="J" format="1">
  <advance width="378"/>
  <unicode hex="004A"/>
  <outline>
    <contour>
      <point x="312.047" y="730" type="line"/>
      <point x="312.047" y="730"/>
      <point x="315.392" y="724.057"/>
      <point x="315.392" y="715.305" type="curve" smooth="yes"/>
      <point x="315.392" y="707.305"/>
      <point x="311.397" y="701.305"/>
      <point x="311.397" y="701.305" type="curve"/>
      <point x="304.132" y="700.911" type="line" smooth="yes"/>
      <point x="281" y="700"/>
      <point x="260.14" y="684.929"/>
      <point x="259.824" y="666.62" type="curve" smooth="yes"/>
      <point x="258.787" y="606.201"/>
      <point x="257.39" y="522.184"/>
      <point x="257.39" y="424.7" type="curve" smooth="yes"/>
      <point x="257.39" y="248.863"/>
      <point x="259.531" y="61.7354"/>
      <point x="260.196" y="39.5791" type="curve" smooth="yes"/>
      <point x="259.662" y="-103.026"/>
      <point x="138.578" y="-174.785"/>
      <point x="-62" y="-180.214" type="curve"/>
      <point x="-62" y="-141.698" type="line"/>
      <point x="66.2393" y="-113.787"/>
      <point x="111.512" y="-71.3896"/>
      <point x="112.859" y="83.3213" type="curve" smooth="yes"/>
      <point x="113.099" y="110.799"/>
      <point x="114.29" y="296.102"/>
      <point x="114.29" y="466.247" type="curve" smooth="yes"/>
      <point x="114.29" y="545.038"/>
      <point x="114.133" y="610.59"/>
      <point x="113.29" y="665.688" type="curve" smooth="yes"/>
      <point x="112.992" y="685.148"/>
      <point x="93" y="700"/>
      <point x="68.5645" y="700.932" type="curve" smooth="yes"/>
      <point x="61.3916" y="701.305" type="line"/>
      <point x="61.3916" y="701.305"/>
      <point x="57.3916" y="707.553"/>
      <point x="57.3916" y="716.305" type="curve" smooth="yes"/>
      <point x="57.3916" y="724.305"/>
      <point x="61" y="730"/>
      <point x="61" y="730" type="curve"/>
    </contour>
  </outline>
</glyph>
<glyph name="O" format="1">
  <advance width="868"/>
  <unicode hex="004F"/>
  <outline>
    <contour>
      <point x="431.302" y="733.809" type="curve" smooth="yes"/>
      <point x="639.64" y="733.809"/>
      <point x="803.572" y="607.613"/>
      <point x="803.572" y="360.783" type="curve" smooth="yes"/>
      <point x="803.572" y="123.736"/>
      <point x="607.115" y="-10"/>
      <point x="433.245" y="-10" type="curve" smooth="yes"/>
      <point x="304.433" y="-10"/>
      <point x="65" y="53.6592"/>
      <point x="65" y="351.949" type="curve" smooth="yes"/>
      <point x="65" y="599.623"/>
      <point x="227.102" y="733.809"/>
    </contour>
    <contour>
      <point x="423.976" y="684.77" type="curve" smooth="yes"/>
      <point x="236.148" y="684.77"/>
      <point x="218.326" y="452.104"/>
      <point x="218.326" y="384.293" type="curve" smooth="yes"/>
      <point x="218.326" y="77.9648"/>
      <point x="377.994" y="40.667"/>
      <point x="441.187" y="40.667" type="curve" smooth="yes"/>
      <point x="559.844" y="40.667"/>
      <point x="652.246" y="124.952"/>
      <point x="652.246" y="376.696" type="curve" smooth="yes"/>
      <point x="652.246" y="529.615"/>
      <point x="603.346" y="684.77"/>
    </contour>
  </outline>
</glyph>
<glyph name="U" format="1">
  <advance width="805"/>
  <unicode hex="0055"/>
  <outline>
    <contour>
      <point x="546.244" y="701.019" type="line"/>
      <point x="546.244" y="701.019"/>
      <point x="542" y="707.248"/>
      <point x="542" y="716" type="curve" smooth="yes"/>
      <point x="542" y="724"/>
      <point x="546" y="730"/>
      <point x="546" y="730" type="curve"/>
      <point x="761" y="730" type="line"/>
      <point x="761" y="730"/>
      <point x="764" y="724.752"/>
      <point x="764" y="716" type="curve" smooth="yes"/>
      <point x="764" y="708"/>
      <point x="761" y="701"/>
      <point x="761" y="701" type="curve"/>
      <point x="753.832" y="700.887" type="line" smooth="yes"/>
      <point x="734.922" y="700.588"/>
      <point x="708.278" y="684.535"/>
      <point x="708.219" y="666.168" type="curve" smooth="yes"/>
      <point x="708.195" y="658.831"/>
      <point x="708.186" y="645.747"/>
      <point x="708.186" y="645.747" type="curve"/>
      <point x="708.186" y="645.747"/>
      <point x="708.932" y="518.929"/>
      <point x="708.932" y="456.461" type="curve" smooth="yes"/>
      <point x="708.932" y="374.996"/>
      <point x="708.562" y="312.678"/>
      <point x="707.851" y="278.515" type="curve" smooth="yes"/>
      <point x="702.902" y="40.9238"/>
      <point x="528.086" y="-10.665"/>
      <point x="405.688" y="-10.665" type="curve" smooth="yes"/>
      <point x="281.335" y="-10.665"/>
      <point x="96.4824" y="41.8203"/>
      <point x="95.7393" y="291.442" type="curve" smooth="yes"/>
      <point x="94.6006" y="663.946" type="line" smooth="yes"/>
      <point x="94.6006" y="684.73"/>
      <point x="71" y="699"/>
      <point x="48.7666" y="700.534" type="curve" smooth="yes"/>
      <point x="42" y="701" type="line"/>
      <point x="42" y="701"/>
      <point x="37.3916" y="707.553"/>
      <point x="37.3916" y="716.305" type="curve" smooth="yes"/>
      <point x="37.3916" y="724.305"/>
      <point x="42" y="730"/>
      <point x="42" y="730" type="curve"/>
      <point x="292.92" y="730.005" type="line"/>
      <point x="292.92" y="730.005"/>
      <point x="296.392" y="725.057"/>
      <point x="296.392" y="716.305" type="curve" smooth="yes"/>
      <point x="296.392" y="708.305"/>
      <point x="293" y="701"/>
      <point x="293" y="701" type="curve"/>
      <point x="286.013" y="700.717" type="line" smooth="yes"/>
      <point x="261" y="700"/>
      <point x="241.075" y="685.649"/>
      <point x="240.717" y="664.113" type="curve" smooth="yes"/>
      <point x="239.47" y="589.143"/>
      <point x="238.065" y="324.372"/>
      <point x="238.065" y="318.538" type="curve" smooth="yes"/>
      <point x="238.065" y="117.192"/>
      <point x="301.248" y="36.002"/>
      <point x="408.458" y="36.002" type="curve" smooth="yes"/>
      <point x="503.227" y="36.002"/>
      <point x="598.919" y="119.044"/>
      <point x="598.919" y="304.53" type="curve" smooth="yes"/>
      <point x="598.919" y="334.884"/>
      <point x="598.604" y="636.014"/>
      <point x="598.604" y="666.043" type="curve" smooth="yes"/>
      <point x="598.604" y="683.49"/>
      <point x="576.021" y="700.631"/>
      <point x="553.151" y="700.929" type="curve" smooth="yes"/>
    </contour>
  </outline>
</glyph>
<glyph name="X" format="1">
  <advance width="809"/>
  <unicode hex="0058"/>
  <outline>
    <contour>
      <point x="765" y="0" type="curve"/>
      <point x="501" y="0" type="line"/>
      <point x="501" y="0"/>
      <point x="496.392" y="6.55273"/>
      <point x="496.392" y="15.3047" type="curve" smooth="yes"/>
      <point x="496.392" y="23.3047"/>
      <point x="501" y="29"/>
      <point x="501" y="29" type="curve"/>
      <point x="507.221" y="28.9473" type="line" smooth="yes"/>
      <point x="515.127" y="29.0518"/>
      <point x="520.692" y="30.0869"/>
      <point x="527.773" y="32.2422" type="curve" smooth="yes"/>
      <point x="538.722" y="35.5742"/>
      <point x="548.744" y="43.1279"/>
      <point x="548.744" y="52" type="curve" smooth="yes"/>
      <point x="548.744" y="59.8818"/>
      <point x="538.29" y="75.4424"/>
      <point x="529.371" y="89.4941" type="curve"/>
      <point x="379.187" y="309.347" type="line"/>
      <point x="315.029" y="224.838"/>
      <point x="275.353" y="170.528"/>
      <point x="213.344" y="87.2842" type="curve"/>
      <point x="198.067" y="66.7178"/>
      <point x="193.522" y="58.4844"/>
      <point x="193.522" y="53" type="curve" smooth="yes"/>
      <point x="193.522" y="47.7285"/>
      <point x="197.875" y="37.2705"/>
      <point x="208.728" y="33.2393" type="curve" smooth="yes"/>
      <point x="215.121" y="30.8643"/>
      <point x="222.777" y="29.0605"/>
      <point x="231.29" y="28.9473" type="curve" smooth="yes"/>
      <point x="237.98" y="29" type="line"/>
      <point x="237.98" y="29"/>
      <point x="241.392" y="24.0566"/>
      <point x="241.392" y="15.3047" type="curve" smooth="yes"/>
      <point x="241.392" y="7.30469"/>
      <point x="238" y="0"/>
      <point x="238" y="0" type="curve"/>
      <point x="36" y="0" type="line"/>
      <point x="36" y="0"/>
      <point x="31.3916" y="6.55273"/>
      <point x="31.3916" y="15.3047" type="curve" smooth="yes"/>
      <point x="31.3916" y="23.3047"/>
      <point x="36" y="29"/>
      <point x="36" y="29" type="curve"/>
      <point x="42.9082" y="29.3838" type="line" smooth="yes"/>
      <point x="51.0537" y="29.4893"/>
      <point x="59.1953" y="30.7568"/>
      <point x="66.5615" y="33.6201" type="curve" smooth="yes"/>
      <point x="78.4043" y="38.2236"/>
      <point x="89.2207" y="55.7305"/>
      <point x="101.002" y="71.7812" type="curve" smooth="yes"/>
      <point x="332.535" y="378.979" type="line"/>
      <point x="239.354" y="508.497"/>
      <point x="167.021" y="615.157"/>
      <point x="124.959" y="671.244" type="curve" smooth="yes"/>
      <point x="116.552" y="682.453"/>
      <point x="110.394" y="693.495"/>
      <point x="102.231" y="697.228" type="curve" smooth="yes"/>
      <point x="95.082" y="700.497"/>
      <point x="84.748" y="700.368"/>
      <point x="76.6562" y="700.473" type="curve" smooth="yes"/>
      <point x="70" y="701" type="line"/>
      <point x="70" y="701"/>
      <point x="65.3916" y="707.553"/>
      <point x="65.3916" y="716.305" type="curve" smooth="yes"/>
      <point x="65.3916" y="724.305"/>
      <point x="70" y="730"/>
      <point x="70" y="730" type="curve"/>
      <point x="344.98" y="730" type="line"/>
      <point x="344.98" y="730"/>
      <point x="348.392" y="725.057"/>
      <point x="348.392" y="716.305" type="curve" smooth="yes"/>
      <point x="348.392" y="708.305"/>
      <point x="345" y="701"/>
      <point x="345" y="701" type="curve"/>
      <point x="338.339" y="700.907" type="line" smooth="yes"/>
      <point x="330.421" y="700.801"/>
      <point x="320.613" y="700.181"/>
      <point x="313.927" y="697.613" type="curve" smooth="yes"/>
      <point x="302.228" y="693.121"/>
      <point x="296.518" y="679.78"/>
      <point x="296.518" y="673" type="curve" smooth="yes"/>
      <point x="296.518" y="667.786"/>
      <point x="299.166" y="658.74"/>
      <point x="308.387" y="645.025" type="curve" smooth="yes"/>
      <point x="427.69" y="482.554" type="line"/>
      <point x="547.421" y="651.278" type="line"/>
      <point x="558.858" y="666.904"/>
      <point x="566.754" y="676.277"/>
      <point x="566.754" y="683.168" type="curve" smooth="yes"/>
      <point x="566.754" y="694.969"/>
      <point x="553" y="700"/>
      <point x="532.952" y="700.831" type="curve" smooth="yes"/>
      <point x="526" y="701" type="line"/>
      <point x="526" y="701"/>
      <point x="521.392" y="707.553"/>
      <point x="521.392" y="716.305" type="curve" smooth="yes"/>
      <point x="521.392" y="724.305"/>
      <point x="526" y="730"/>
      <point x="526" y="730" type="curve"/>
      <point x="716.98" y="730" type="line"/>
      <point x="716.98" y="730"/>
      <point x="720.392" y="725.057"/>
      <point x="720.392" y="716.305" type="curve" smooth="yes"/>
      <point x="720.392" y="708.305"/>
      <point x="717" y="701"/>
      <point x="717" y="701" type="curve"/>
      <point x="709.337" y="701.397" type="line" smooth="yes"/>
      <point x="701.189" y="701.291"/>
      <point x="692.047" y="700.027"/>
      <point x="684.685" y="697.163" type="curve" smooth="yes"/>
      <point x="672.851" y="692.56"/>
      <point x="660.09" y="674.011"/>
      <point x="648.213" y="657.964" type="curve" smooth="yes"/>
      <point x="477.837" y="412.667" type="line"/>
      <point x="488.923" y="397.367" type="line"/>
      <point x="585.953" y="261.181"/>
      <point x="663.479" y="120.63"/>
      <point x="707.741" y="61.6104" type="curve" smooth="yes"/>
      <point x="716.146" y="50.4033"/>
      <point x="723.305" y="37.3662"/>
      <point x="731.47" y="34.6299" type="curve" smooth="yes"/>
      <point x="738.599" y="32.2402"/>
      <point x="750.817" y="29.4883"/>
      <point x="758.9" y="29.3838" type="curve" smooth="yes"/>
      <point x="764.98" y="29" type="line"/>
      <point x="764.98" y="29"/>
      <point x="768.392" y="24.0566"/>
      <point x="768.392" y="15.3047" type="curve" smooth="yes"/>
      <point x="768.392" y="7.30469"/>
      <point x="765" y="0"/>
    </contour>
  </outline>
</glyph>
<glyph name="Y" format="1">
  <advance width="752"/>
  <unicode hex="0059"/>
  <outline>
    <contour>
      <point x="502.98" y="29" type="line"/>
      <point x="502.98" y="29"/>
      <point x="506.392" y="24.0566"/>
      <point x="506.392" y="15.3047" type="curve" smooth="yes"/>
      <point x="506.392" y="7.30469"/>
      <point x="503" y="0"/>
      <point x="503" y="0" type="curve"/>
      <point x="252" y="0" type="line"/>
      <point x="252" y="0"/>
      <point x="247.392" y="6.55273"/>
      <point x="247.392" y="15.3047" type="curve" smooth="yes"/>
      <point x="247.392" y="23.3047"/>
      <point x="252" y="29"/>
      <point x="252" y="29" type="curve"/>
      <point x="258.964" y="29.3828" type="line" smooth="yes"/>
      <point x="283" y="31"/>
      <point x="303.71" y="46.1992"/>
      <point x="303.71" y="64.9951" type="curve" smooth="yes"/>
      <point x="304.968" y="135.229"/>
      <point x="305.812" y="191.127"/>
      <point x="305.812" y="259.031" type="curve" smooth="yes"/>
      <point x="305.812" y="300.252"/>
      <point x="305.961" y="343.72"/>
      <point x="306.084" y="382.946" type="curve"/>
      <point x="220.188" y="507.12"/>
      <point x="148.474" y="617.558"/>
      <point x="108.213" y="671.241" type="curve" smooth="yes"/>
      <point x="94.8594" y="689.045"/>
      <point x="76.7266" y="699.259"/>
      <point x="60.9102" y="700.471" type="curve" smooth="yes"/>
      <point x="54" y="701" type="line"/>
      <point x="54" y="701"/>
      <point x="49.3916" y="707.553"/>
      <point x="49.3916" y="716.305" type="curve" smooth="yes"/>
      <point x="49.3916" y="724.305"/>
      <point x="54" y="730"/>
      <point x="54" y="730" type="curve"/>
      <point x="312.98" y="730" type="line"/>
      <point x="312.98" y="730"/>
      <point x="311.392" y="725.057"/>
      <point x="311.392" y="716.305" type="curve" smooth="yes"/>
      <point x="311.392" y="708.305"/>
      <point x="313" y="701"/>
      <point x="313" y="701" type="curve"/>
      <point x="306.593" y="700.907" type="line" smooth="yes"/>
      <point x="290.99" y="700.682"/>
      <point x="265.822" y="687.22"/>
      <point x="265.822" y="674.558" type="curve" smooth="yes"/>
      <point x="265.822" y="669.491"/>
      <point x="267.636" y="662.503"/>
      <point x="276.651" y="649.009" type="curve" smooth="yes"/>
      <point x="406.44" y="470.902" type="line"/>
      <point x="544.675" y="643.278" type="line" smooth="yes"/>
      <point x="558.685" y="662.419"/>
      <point x="562.837" y="671.828"/>
      <point x="562.837" y="678.009" type="curve" smooth="yes"/>
      <point x="562.837" y="687.953"/>
      <point x="540.012" y="700.508"/>
      <point x="526.206" y="700.831" type="curve" smooth="yes"/>
      <point x="519" y="701" type="line"/>
      <point x="519" y="701"/>
      <point x="514.392" y="707.553"/>
      <point x="514.392" y="716.305" type="curve" smooth="yes"/>
      <point x="514.392" y="724.305"/>
      <point x="519" y="730"/>
      <point x="519" y="730" type="curve"/>
      <point x="707.98" y="730" type="line"/>
      <point x="707.98" y="730"/>
      <point x="711.392" y="725.057"/>
      <point x="711.392" y="716.305" type="curve" smooth="yes"/>
      <point x="711.392" y="708.305"/>
      <point x="708" y="701"/>
      <point x="708" y="701" type="curve"/>
      <point x="700.591" y="701.394" type="line" smooth="yes"/>
      <point x="677.137" y="701.089"/>
      <point x="660.052" y="682.292"/>
      <point x="652.707" y="671.883" type="curve"/>
      <point x="447.614" y="393.006" type="line"/>
      <point x="448.398" y="346.582"/>
      <point x="448.646" y="303.552"/>
      <point x="448.646" y="258.05" type="curve" smooth="yes"/>
      <point x="448.646" y="190.79"/>
      <point x="449.324" y="133.291"/>
      <point x="450.627" y="65.5205" type="curve" smooth="yes"/>
      <point x="450.627" y="45.1797"/>
      <point x="463" y="30"/>
      <point x="487.692" y="29.3828" type="curve" smooth="yes"/>
    </contour>
  </outline>
</glyph>
<glyph name="bracketright" format="1">
  <advance width="341"/>
  <unicode hex="005D"/>
  <outline>
    <contour>
      <point x="145" y="735" type="line"/>
      <point x="62" y="735" type="line" smooth="yes"/>
      <point x="48.2207" y="735"/>
      <point x="46.3711" y="752.515"/>
      <point x="46.3711" y="761.716" type="curve" smooth="yes"/>
      <point x="46.3711" y="770.652"/>
      <point x="48.3057" y="789"/>
      <point x="62" y="789" type="curve" smooth="yes"/>
      <point x="233" y="789" type="line" smooth="yes"/>
      <point x="251.367" y="789"/>
      <point x="263" y="778.853"/>
      <point x="263" y="761" type="curve" smooth="yes"/>
      <point x="263" y="-101" type="line" smooth="yes"/>
      <point x="263" y="-117.958"/>
      <point x="253.372" y="-128"/>
      <point x="237" y="-128" type="curve" smooth="yes"/>
      <point x="62" y="-128" type="line" smooth="yes"/>
      <point x="48.2207" y="-128"/>
      <point x="46.3711" y="-110.485"/>
      <point x="46.3711" y="-101.284" type="curve" smooth="yes"/>
      <point x="46.3711" y="-92.3477"/>
      <point x="48.3057" y="-74"/>
      <point x="62" y="-74" type="curve" smooth="yes"/>
      <point x="145" y="-74" type="line"/>
    </contour>
  </outline>
</glyph>
<glyph name="underscore" format="1">
  <advance width="449"/>
  <unicode hex="005F"/>
  <outline>
    <contour>
      <point x="82.75" y="-8" type="line" smooth="yes"/>
      <point x="68.1709" y="-8"/>
      <point x="63" y="22.9111"/>
      <point x="63" y="32" type="curve" smooth="yes"/>
      <point x="63" y="41.0889"/>
      <point x="68.1709" y="76"/>
      <point x="82.75" y="76" type="curve" smooth="yes"/>
      <point x="364.75" y="76" type="line" smooth="yes"/>
      <point x="378.729" y="76"/>
      <point x="383.74" y="41.709"/>
      <point x="383.74" y="33" type="curve" smooth="yes"/>
      <point x="383.74" y="24.3213"/>
      <point x="379.619" y="-8"/>
      <point x="364.75" y="-8" type="curve" smooth="yes"/>
    </contour>
  </outline>
</glyph>
<glyph name="a" format="1">
  <advance width="573"/>
  <unicode hex="0061"/>
  <outline>
    <contour>
      <point x="514.566" y="58.1719" type="curve"/>
      <point x="517.755" y="20.9062" type="line"/>
      <point x="487.378" y="7.66602"/>
      <point x="427.059" y="-6.6084"/>
      <point x="397.349" y="-6.6084" type="curve" smooth="yes"/>
      <point x="368.298" y="-6.6084"/>
      <point x="344.35" y="22.7539"/>
      <point x="343.925" y="32.5" type="curve"/>
      <point x="289.12" y="2.71191"/>
      <point x="274.846" y="-10"/>
      <point x="213.068" y="-10" type="curve" smooth="yes"/>
      <point x="132.28" y="-10"/>
      <point x="40.8691" y="10.5215"/>
      <point x="40.8691" y="110.493" type="curve" smooth="yes"/>
      <point x="40.8691" y="220.021"/>
      <point x="223.114" y="278.722"/>
      <point x="354.148" y="316.756" type="curve"/>
      <point x="353.717" y="340.688"/>
      <point x="350.003" y="376.024"/>
      <point x="349.376" y="389.979" type="curve" smooth="yes"/>
      <point x="347.089" y="440.876"/>
      <point x="310.211" y="470.978"/>
      <point x="270.134" y="470.978" type="curve" smooth="yes"/>
      <point x="206.4" y="470.978"/>
      <point x="203.83" y="376.976"/>
      <point x="132" y="376.976" type="curve" smooth="yes"/>
      <point x="110.567" y="376.976"/>
      <point x="84.7119" y="392.294"/>
      <point x="84.7119" y="415" type="curve" smooth="yes"/>
      <point x="84.7119" y="420.853"/>
      <point x="88.8828" y="432.391"/>
      <point x="92.1865" y="436.137" type="curve" smooth="yes"/>
      <point x="148.873" y="500.417"/>
      <point x="214.754" y="511.8"/>
      <point x="273.345" y="511.8" type="curve" smooth="yes"/>
      <point x="432.547" y="511.8"/>
      <point x="477.971" y="427.487"/>
      <point x="477.971" y="363.698" type="curve" smooth="yes"/>
      <point x="477.971" y="49.8203" type="line"/>
      <point x="489.458" y="52.084"/>
      <point x="503.713" y="55.0498"/>
    </contour>
    <contour>
      <point x="258.43" y="41.042" type="curve" smooth="yes"/>
      <point x="290.909" y="41.042"/>
      <point x="317.189" y="56.3662"/>
      <point x="349.028" y="81.292" type="curve"/>
      <point x="349.028" y="262.732" type="line"/>
      <point x="232.476" y="226.025"/>
      <point x="176.339" y="196.324"/>
      <point x="176.339" y="126" type="curve" smooth="yes"/>
      <point x="176.339" y="78.9248"/>
      <point x="205.458" y="41.042"/>
    </contour>
  </outline>
</glyph>
<glyph name="b" format="1">
  <advance width="629"/>
  <unicode hex="0062"/>
  <outline>
    <contour>
      <point x="231.049" y="721.269" type="curve" smooth="yes"/>
      <point x="231.014" y="478.947" type="line"/>
      <point x="264.855" y="499.85"/>
      <point x="291.895" y="512.002"/>
      <point x="341.047" y="512.002" type="curve" smooth="yes"/>
      <point x="479.334" y="512.002"/>
      <point x="577.173" y="430.873"/>
      <point x="577.173" y="244.945" type="curve" smooth="yes"/>
      <point x="577.173" y="57.8145"/>
      <point x="485.45" y="-10.1562"/>
      <point x="319.686" y="-10.1562" type="curve" smooth="yes"/>
      <point x="279.075" y="-10.1562"/>
      <point x="262.141" y="-2.52051"/>
      <point x="220.078" y="21.0859" type="curve"/>
      <point x="198.944" y="1.98047"/>
      <point x="124.238" y="-3.78906"/>
      <point x="68" y="-3.78906" type="curve" smooth="yes"/>
      <point x="61" y="-3.78906" type="line"/>
      <point x="61" y="25.0752" type="line"/>
      <point x="67.9072" y="25.165" type="line" smooth="yes"/>
      <point x="83.5947" y="25.3682"/>
      <point x="95.0244" y="38.8721"/>
      <point x="97.2266" y="50.2656" type="curve"/>
      <point x="97.2266" y="653.993" type="line" smooth="yes"/>
      <point x="97.2266" y="675.348"/>
      <point x="87.3926" y="685.34"/>
      <point x="70.4092" y="685.34" type="curve" smooth="yes"/>
      <point x="63.4092" y="685.34" type="line"/>
      <point x="63.4092" y="711.301" type="line"/>
      <point x="213.308" y="746.886" type="line" smooth="yes"/>
      <point x="215.012" y="747.34"/>
      <point x="216.621" y="747.506"/>
      <point x="218" y="747.506" type="curve" smooth="yes"/>
      <point x="230.768" y="747.506"/>
      <point x="231.012" y="731.086"/>
    </contour>
    <contour>
      <point x="231.008" y="436.318" type="curve"/>
      <point x="230.962" y="125.935" type="line"/>
      <point x="246.589" y="67.5938"/>
      <point x="275.684" y="30.9277"/>
      <point x="337.14" y="30.9277" type="curve" smooth="yes"/>
      <point x="405.453" y="30.9277"/>
      <point x="447.152" y="117.102"/>
      <point x="447.152" y="228.655" type="curve" smooth="yes"/>
      <point x="447.152" y="370.974"/>
      <point x="409.569" y="468.08"/>
      <point x="316.757" y="468.08" type="curve" smooth="yes"/>
      <point x="286.067" y="468.08"/>
      <point x="260.501" y="458.39"/>
    </contour>
  </outline>
</glyph>
<glyph name="g" format="1">
  <advance width="564"/>
  <unicode hex="0067"/>
  <outline>
    <contour>
      <point x="270.616" y="-206.951" type="curve" smooth="yes"/>
      <point x="358.702" y="-206.951"/>
      <point x="419.449" y="-152.544"/>
      <point x="419.449" y="-101.783" type="curve" smooth="yes"/>
      <point x="419.449" y="-50.6143"/>
      <point x="359.367" y="-33.0938"/>
      <point x="288.055" y="-26" type="curve"/>
      <point x="283.998" y="-25.8584"/>
      <point x="257.913" y="-24.335"/>
      <point x="254.458" y="-24.0918" type="curve"/>
      <point x="186.525" y="-47.7764"/>
      <point x="165.942" y="-82.1953"/>
      <point x="165.942" y="-123.131" type="curve" smooth="yes"/>
      <point x="165.942" y="-178.02"/>
      <point x="214.716" y="-206.951"/>
    </contour>
    <contour>
      <point x="184.041" y="318.277" type="curve" smooth="yes"/>
      <point x="184.041" y="210.254"/>
      <point x="223.437" y="142.907"/>
      <point x="279.312" y="142.907" type="curve" smooth="yes"/>
      <point x="331.979" y="142.907"/>
      <point x="348.938" y="222.669"/>
      <point x="348.938" y="296" type="curve" smooth="yes"/>
      <point x="348.938" y="392.141"/>
      <point x="315.414" y="458.089"/>
      <point x="255.644" y="458.089" type="curve" smooth="yes"/>
      <point x="215.854" y="458.089"/>
      <point x="184.041" y="384.315"/>
    </contour>
    <contour>
      <point x="473.329" y="296.173" type="curve" smooth="yes"/>
      <point x="473.329" y="124.467"/>
      <point x="351.334" y="102.133"/>
      <point x="230.604" y="66.835" type="curve" smooth="yes"/>
      <point x="226.432" y="65.6152"/>
      <point x="219.943" y="60.5371"/>
      <point x="219.943" y="56.1104" type="curve" smooth="yes"/>
      <point x="219.943" y="49.6768"/>
      <point x="230.943" y="45.6914"/>
      <point x="235.628" y="44.9932" type="curve" smooth="yes"/>
      <point x="249" y="43"/>
      <point x="262.854" y="40.9268"/>
      <point x="273.181" y="39.9268" type="curve"/>
      <point x="343.354" y="30.5283" type="line" smooth="yes"/>
      <point x="442.31" y="21.3359"/>
      <point x="530.154" y="13.8311"/>
      <point x="530.154" y="-72.9111" type="curve" smooth="yes"/>
      <point x="530.154" y="-186.104"/>
      <point x="385.876" y="-242.607"/>
      <point x="260.281" y="-242.607" type="curve" smooth="yes"/>
      <point x="154.597" y="-242.607"/>
      <point x="30.126" y="-224.129"/>
      <point x="30.126" y="-135.368" type="curve" smooth="yes"/>
      <point x="30.126" y="-59.624"/>
      <point x="127.889" y="-30.6729"/>
      <point x="197.306" y="-10.9766" type="curve"/>
      <point x="173.075" y="-8.60645"/>
      <point x="154.797" y="-5.91211"/>
      <point x="139.76" y="-2.86035" type="curve" smooth="yes"/>
      <point x="111.018" y="2.81348"/>
      <point x="74.7812" y="15.3936"/>
      <point x="74.7812" y="41.1318" type="curve" smooth="yes"/>
      <point x="74.7812" y="79.8955"/>
      <point x="162.168" y="101.177"/>
      <point x="207.683" y="113.346" type="curve"/>
      <point x="134.355" y="128.987"/>
      <point x="60.7754" y="184.804"/>
      <point x="60.7754" y="312.19" type="curve" smooth="yes"/>
      <point x="60.7754" y="429.479"/>
      <point x="137.878" y="485.887"/>
      <point x="224.621" y="497.924" type="curve" smooth="yes"/>
      <point x="238.177" y="499.82"/>
      <point x="252.258" y="500.067"/>
      <point x="265.607" y="500.067" type="curve" smooth="yes"/>
      <point x="307.247" y="500.067"/>
      <point x="357.791" y="489.751"/>
      <point x="392.404" y="466.489" type="curve"/>
      <point x="423.927" y="485.613"/>
      <point x="452.894" y="504.46"/>
      <point x="495.988" y="504.46" type="curve" smooth="yes"/>
      <point x="511.154" y="504.46"/>
      <point x="522.46" y="488.395"/>
      <point x="522.46" y="474.147" type="curve" smooth="yes"/>
      <point x="522.46" y="439.529"/>
      <point x="491.409" y="417.532"/>
      <point x="455.538" y="417.532" type="curve" smooth="yes"/>
      <point x="452.529" y="417.532"/>
      <point x="445.686" y="417.862"/>
      <point x="444.21" y="417.99" type="curve"/>
      <point x="460.74" y="384.81"/>
      <point x="473.329" y="352.012"/>
    </contour>
  </outline>
</glyph>
<glyph name="h" format="1">
  <advance width="619"/>
  <unicode hex="0068"/>
  <outline>
    <contour>
      <point x="226.04" y="54.0869" type="line"/>
      <point x="228.244" y="41.7871"/>
      <point x="239.632" y="28.9014"/>
      <point x="255.435" y="28.6963" type="curve" smooth="yes"/>
      <point x="262.342" y="28.6084" type="line"/>
      <point x="262.342" y="0" type="line"/>
      <point x="56" y="0" type="line"/>
      <point x="56" y="28.8584" type="line"/>
      <point x="62.9072" y="28.9482" type="line" smooth="yes"/>
      <point x="78.8857" y="29.1523"/>
      <point x="90.2461" y="42.7148"/>
      <point x="92.3184" y="54.5586" type="curve"/>
      <point x="92.3184" y="652.213" type="line" smooth="yes"/>
      <point x="92.3184" y="673.565"/>
      <point x="82.4824" y="683.56"/>
      <point x="65.498" y="683.56" type="curve" smooth="yes"/>
      <point x="58.498" y="683.56" type="line"/>
      <point x="58.498" y="709.521" type="line"/>
      <point x="208.397" y="745.105" type="line" smooth="yes"/>
      <point x="209.999" y="745.532"/>
      <point x="211.554" y="745.729"/>
      <point x="213" y="745.729" type="curve" smooth="yes"/>
      <point x="225.749" y="745.729"/>
      <point x="226.101" y="727.454"/>
      <point x="226.139" y="717.488" type="curve" smooth="yes"/>
      <point x="226.104" y="478.479" type="line"/>
      <point x="264.669" y="502.579"/>
      <point x="280.791" y="511.935"/>
      <point x="331.164" y="511.935" type="curve" smooth="yes"/>
      <point x="428.801" y="511.935"/>
      <point x="531.926" y="458.677"/>
      <point x="531.926" y="348.729" type="curve" smooth="yes"/>
      <point x="531.858" y="53.3477" type="line"/>
      <point x="534.281" y="41.8037"/>
      <point x="545.748" y="28.9668"/>
      <point x="561.094" y="28.7705" type="curve" smooth="yes"/>
      <point x="568.001" y="28.6816" type="line"/>
      <point x="568.001" y="0" type="line"/>
      <point x="371.862" y="0" type="line"/>
      <point x="371.862" y="28.6084" type="line"/>
      <point x="378.77" y="28.6963" type="line" smooth="yes"/>
      <point x="394.533" y="28.9004"/>
      <point x="405.989" y="42.375"/>
      <point x="408.131" y="53.8926" type="curve"/>
      <point x="408.131" y="347.898" type="line" smooth="yes"/>
      <point x="408.131" y="413.997"/>
      <point x="383.488" y="467.364"/>
      <point x="311.289" y="467.364" type="curve" smooth="yes"/>
      <point x="282.399" y="467.364"/>
      <point x="270.073" y="459.375"/>
      <point x="226.097" y="432.14" type="curve"/>
    </contour>
  </outline>
</glyph>
<glyph name="i" format="1">
  <advance width="335"/>
  <unicode hex="0069"/>
  <outline>
    <contour>
      <point x="159.889" y="564.765" type="curve" smooth="yes"/>
      <point x="117.96" y="564.765"/>
      <point x="83.9668" y="597.975"/>
      <point x="83.9668" y="638.938" type="curve" smooth="yes"/>
      <point x="83.9668" y="679.902"/>
      <point x="117.959" y="713.113"/>
      <point x="159.889" y="713.113" type="curve" smooth="yes"/>
      <point x="201.818" y="713.113"/>
      <point x="235.812" y="679.902"/>
      <point x="235.812" y="638.938" type="curve" smooth="yes"/>
      <point x="235.812" y="597.975"/>
      <point x="201.818" y="564.765"/>
    </contour>
    <contour>
      <point x="236.933" y="53.4766" type="line"/>
      <point x="239.324" y="41.8066"/>
      <point x="250.776" y="28.9668"/>
      <point x="266.193" y="28.7695" type="curve" smooth="yes"/>
      <point x="273.101" y="28.6807" type="line"/>
      <point x="273.101" y="0" type="line"/>
      <point x="67" y="0" type="line"/>
      <point x="67" y="28.6797" type="line"/>
      <point x="73.9072" y="28.7686" type="line" smooth="yes"/>
      <point x="89.5615" y="28.9688"/>
      <point x="101.034" y="42.4365"/>
      <point x="103.229" y="53.7812" type="curve"/>
      <point x="103.229" y="417.724" type="line" smooth="yes"/>
      <point x="103.229" y="437.844"/>
      <point x="92.9854" y="446.613"/>
      <point x="76.4092" y="446.613" type="curve" smooth="yes"/>
      <point x="69.4092" y="446.613" type="line"/>
      <point x="69.4092" y="472.801" type="line"/>
      <point x="219.188" y="508.675" type="line" smooth="yes"/>
      <point x="220.912" y="509.162"/>
      <point x="222.56" y="509.353"/>
      <point x="224" y="509.353" type="curve" smooth="yes"/>
      <point x="236.768" y="509.353"/>
      <point x="236.989" y="495.244"/>
      <point x="237.027" y="485.733" type="curve" smooth="yes"/>
    </contour>
  </outline>
</glyph>
<glyph name="k" format="1">
  <advance width="621"/>
  <unicode hex="006B"/>
  <outline>
    <contour>
      <point x="231" y="722" type="curve" smooth="yes"/>
      <point x="231" y="363.862" type="line" smooth="yes"/>
      <point x="231.768" y="348.038"/>
      <point x="237.244" y="343"/>
      <point x="242" y="343" type="curve" smooth="yes"/>
      <point x="247.452" y="343"/>
      <point x="258" y="351.172"/>
      <point x="324.7" y="398.021" type="curve"/>
      <point x="374.341" y="432.258"/>
      <point x="375.62" y="451.011"/>
      <point x="375.62" y="461.697" type="curve" smooth="yes"/>
      <point x="375.62" y="472.392"/>
      <point x="367.021" y="477"/>
      <point x="357.151" y="477" type="curve" smooth="yes"/>
      <point x="351.534" y="477" type="line"/>
      <point x="351.534" y="506.515" type="line"/>
      <point x="557" y="506.515" type="line"/>
      <point x="557" y="477" type="line"/>
      <point x="550" y="477" type="line" smooth="yes"/>
      <point x="531.709" y="477"/>
      <point x="513.841" y="465.701"/>
      <point x="504.131" y="458.991" type="curve" smooth="yes"/>
      <point x="465.36" y="432.199"/>
      <point x="422.771" y="367.188"/>
      <point x="327.808" y="296.504" type="curve"/>
      <point x="333.003" y="283.545"/>
      <point x="337.494" y="286.864"/>
      <point x="404.089" y="208.611" type="curve"/>
      <point x="476.601" y="117.443"/>
      <point x="502.531" y="85.7178"/>
      <point x="516.6" y="66.3682" type="curve" smooth="yes"/>
      <point x="532.188" y="44.9287"/>
      <point x="544.114" y="29"/>
      <point x="567" y="29" type="curve" smooth="yes"/>
      <point x="574" y="29" type="line"/>
      <point x="574" y="0" type="line"/>
      <point x="370" y="0" type="line"/>
      <point x="370" y="29" type="line"/>
      <point x="377" y="29" type="line" smooth="yes"/>
      <point x="385.229" y="29"/>
      <point x="396" y="38.1348"/>
      <point x="396" y="49" type="curve" smooth="yes"/>
      <point x="396" y="76.0859"/>
      <point x="272.423" y="224"/>
      <point x="245" y="224" type="curve" smooth="yes"/>
      <point x="240.99" y="224"/>
      <point x="233.263" y="220.358"/>
      <point x="231" y="219.315" type="curve"/>
      <point x="231" y="53.418" type="line"/>
      <point x="234.051" y="42.3398"/>
      <point x="244.318" y="29"/>
      <point x="260" y="29" type="curve" smooth="yes"/>
      <point x="267" y="29" type="line"/>
      <point x="267" y="0" type="line"/>
      <point x="61" y="0" type="line"/>
      <point x="61" y="29" type="line"/>
      <point x="68" y="29" type="line" smooth="yes"/>
      <point x="84.7461" y="29"/>
      <point x="95.3164" y="43.1719"/>
      <point x="97" y="54.0674" type="curve"/>
      <point x="97" y="660" type="line" smooth="yes"/>
      <point x="97" y="684.494"/>
      <point x="88.3701" y="694"/>
      <point x="70" y="694" type="curve" smooth="yes"/>
      <point x="63" y="694" type="line"/>
      <point x="63" y="709.399" type="line"/>
      <point x="202.081" y="742.733" type="line"/>
      <point x="205.627" y="743.824"/>
      <point x="213.495" y="745.612"/>
      <point x="218" y="745.612" type="curve" smooth="yes"/>
      <point x="230.06" y="745.612"/>
      <point x="231" y="734.622"/>
    </contour>
  </outline>
</glyph>
<glyph name="m" format="1">
  <advance width="949"/>
  <unicode hex="006D"/>
  <outline>
    <contour>
      <point x="226.91" y="53.3652" type="line"/>
      <point x="229.305" y="41.7275"/>
      <point x="240.771" y="28.8984"/>
      <point x="256.17" y="28.7012" type="curve" smooth="yes"/>
      <point x="263.077" y="28.6123" type="line"/>
      <point x="263.077" y="0" type="line"/>
      <point x="57" y="0" type="line"/>
      <point x="57" y="28.6016" type="line"/>
      <point x="63.9072" y="28.6904" type="line" smooth="yes"/>
      <point x="79.541" y="28.8906"/>
      <point x="91.0322" y="42.3447"/>
      <point x="93.2275" y="53.6582" type="curve"/>
      <point x="93.2275" y="421.467" type="line" smooth="yes"/>
      <point x="93.2275" y="442.32"/>
      <point x="81.2158" y="451.892"/>
      <point x="64.4092" y="451.892" type="curve" smooth="yes"/>
      <point x="59.4092" y="451.892" type="line"/>
      <point x="59.4092" y="477.911" type="line"/>
      <point x="209.332" y="512.456" type="line" smooth="yes"/>
      <point x="211" y="513"/>
      <point x="213.414" y="513"/>
      <point x="214.381" y="513" type="curve" smooth="yes"/>
      <point x="227.231" y="513"/>
      <point x="226.968" y="498.932"/>
      <point x="227.002" y="489.821" type="curve" smooth="yes"/>
      <point x="227.002" y="482.669"/>
      <point x="226.999" y="473.956"/>
      <point x="226.997" y="467.792" type="curve"/>
      <point x="265.393" y="495.193"/>
      <point x="285.305" y="511.255"/>
      <point x="345.564" y="511.255" type="curve" smooth="yes"/>
      <point x="408.515" y="511.255"/>
      <point x="458.71" y="487.418"/>
      <point x="492.082" y="431.502" type="curve"/>
      <point x="533.541" y="492.947"/>
      <point x="608.271" y="508.255"/>
      <point x="676.413" y="508.255" type="curve" smooth="yes"/>
      <point x="774.147" y="508.255"/>
      <point x="859.208" y="455.988"/>
      <point x="859.208" y="346.091" type="curve" smooth="yes"/>
      <point x="859.141" y="53.4707" type="line"/>
      <point x="861.53" y="41.8086"/>
      <point x="872.984" y="28.9648"/>
      <point x="888.401" y="28.7676" type="curve" smooth="yes"/>
      <point x="895.309" y="28.6787" type="line"/>
      <point x="895.309" y="0" type="line"/>
      <point x="700.186" y="0" type="line"/>
      <point x="700.186" y="28.6113" type="line"/>
      <point x="707.093" y="28.6992" type="line" smooth="yes"/>
      <point x="722.729" y="28.8994"/>
      <point x="734.221" y="42.3564"/>
      <point x="736.413" y="53.6758" type="curve"/>
      <point x="736.413" y="341.447" type="line" smooth="yes"/>
      <point x="736.413" y="418.107"/>
      <point x="690.946" y="466.936"/>
      <point x="658.635" y="466.936" type="curve" smooth="yes"/>
      <point x="619.698" y="466.936"/>
      <point x="578.656" y="455.312"/>
      <point x="537.83" y="394.262" type="curve"/>
      <point x="539.094" y="388.044"/>
      <point x="539.34" y="385.353"/>
      <point x="539.34" y="379.859" type="curve" smooth="yes"/>
      <point x="539.271" y="53.3809" type="line"/>
      <point x="541.661" y="41.7295"/>
      <point x="553.125" y="28.8965"/>
      <point x="568.534" y="28.6992" type="curve" smooth="yes"/>
      <point x="575.441" y="28.6113" type="line"/>
      <point x="575.441" y="0" type="line"/>
      <point x="378.32" y="0" type="line"/>
      <point x="378.32" y="28.6123" type="line"/>
      <point x="385.228" y="28.7012" type="line" smooth="yes"/>
      <point x="400.864" y="28.9014"/>
      <point x="412.341" y="42.3584"/>
      <point x="414.545" y="53.668" type="curve"/>
      <point x="414.545" y="348.265" type="line" smooth="yes"/>
      <point x="414.545" y="414.315"/>
      <point x="380.392" y="467.936"/>
      <point x="333.225" y="467.936" type="curve" smooth="yes"/>
      <point x="291.185" y="467.936"/>
      <point x="264.319" y="455.345"/>
      <point x="226.989" y="429.393" type="curve"/>
    </contour>
  </outline>
</glyph>
<glyph name="n" format="1">
  <advance width="618"/>
  <unicode hex="006E"/>
  <outline>
    <contour>
      <point x="221.91" y="51.3643" type="line"/>
      <point x="224.304" y="39.7275"/>
      <point x="235.771" y="28.8984"/>
      <point x="251.171" y="28.6992" type="curve" smooth="yes"/>
      <point x="258.077" y="28.6094" type="line"/>
      <point x="258.077" y="0" type="line"/>
      <point x="52" y="0" type="line"/>
      <point x="52" y="28.5977" type="line"/>
      <point x="58.9062" y="28.6875" type="line" smooth="yes"/>
      <point x="74.5439" y="28.8906"/>
      <point x="86.0332" y="42.3418"/>
      <point x="88.2285" y="53.6621" type="curve"/>
      <point x="88.2285" y="421.092" type="line" smooth="yes"/>
      <point x="88.2285" y="441.943"/>
      <point x="78.2158" y="451.516"/>
      <point x="61.4092" y="451.516" type="curve" smooth="yes"/>
      <point x="54.4092" y="451.516" type="line"/>
      <point x="54.4092" y="477.535" type="line"/>
      <point x="203.331" y="513.081" type="line" smooth="yes"/>
      <point x="203.829" y="513.208"/>
      <point x="205.846" y="514"/>
      <point x="209" y="514" type="curve" smooth="yes"/>
      <point x="219.983" y="514"/>
      <point x="222.002" y="503.517"/>
      <point x="222.002" y="489.446" type="curve" smooth="yes"/>
      <point x="222.002" y="483.802"/>
      <point x="222" y="483.819"/>
      <point x="221.998" y="478.393" type="curve"/>
      <point x="261.577" y="504.037"/>
      <point x="294.527" y="512.336"/>
      <point x="352.74" y="512.336" type="curve" smooth="yes"/>
      <point x="460.374" y="512.336"/>
      <point x="537.499" y="459.078"/>
      <point x="537.499" y="349.129" type="curve" smooth="yes"/>
      <point x="537.432" y="52.75" type="line"/>
      <point x="539.993" y="41.7539"/>
      <point x="551.537" y="28.9629"/>
      <point x="566.535" y="28.7686" type="curve" smooth="yes"/>
      <point x="573.441" y="28.6787" type="line"/>
      <point x="573.441" y="0" type="line"/>
      <point x="378.32" y="0" type="line"/>
      <point x="378.32" y="28.6094" type="line"/>
      <point x="385.227" y="28.6992" type="line" smooth="yes"/>
      <point x="401.398" y="28.9092"/>
      <point x="412.646" y="42.3223"/>
      <point x="414.704" y="54.584" type="curve"/>
      <point x="414.704" y="358.346" type="line" smooth="yes"/>
      <point x="414.704" y="424.396"/>
      <point x="378.565" y="477.017"/>
      <point x="331.399" y="477.017" type="curve" smooth="yes"/>
      <point x="297.226" y="477.017"/>
      <point x="261.085" y="468.833"/>
      <point x="221.99" y="441.681" type="curve"/>
    </contour>
  </outline>
</glyph>
<glyph name="p" format="1">
  <advance width="609"/>
  <unicode hex="0070"/>
  <outline>
    <contour>
      <point x="222.954" y="-178.317" type="line"/>
      <point x="225.37" y="-190.441"/>
      <point x="237.661" y="-203.233"/>
      <point x="253.777" y="-203.438" type="curve" smooth="yes"/>
      <point x="259.111" y="-203.53" type="line"/>
      <point x="259.111" y="-232" type="line"/>
      <point x="53" y="-232" type="line"/>
      <point x="53" y="-203.53" type="line"/>
      <point x="59.9062" y="-203.438" type="line" smooth="yes"/>
      <point x="75.7227" y="-203.225"/>
      <point x="87.0322" y="-189.611"/>
      <point x="89.2266" y="-178.021" type="curve"/>
      <point x="89.2266" y="420.517" type="line" smooth="yes"/>
      <point x="89.2266" y="441.506"/>
      <point x="79.2646" y="451.2"/>
      <point x="62.4092" y="451.2" type="curve" smooth="yes"/>
      <point x="55.4092" y="451.2" type="line"/>
      <point x="55.4092" y="477.162" type="line"/>
      <point x="205.308" y="512.746" type="line" smooth="yes"/>
      <point x="207.011" y="513.2"/>
      <point x="209.62" y="513.366"/>
      <point x="211" y="513.366" type="curve" smooth="yes"/>
      <point x="222.768" y="513.366"/>
      <point x="223.012" y="493.946"/>
      <point x="223.049" y="484.13" type="curve" smooth="yes"/>
      <point x="223.049" y="484.748"/>
      <point x="223.048" y="485.414"/>
      <point x="223.047" y="486" type="curve"/>
      <point x="256.877" y="499.777"/>
      <point x="273.912" y="512.063"/>
      <point x="323.047" y="512.063" type="curve" smooth="yes"/>
      <point x="458.123" y="512.063"/>
      <point x="559.173" y="432.145"/>
      <point x="559.173" y="249.925" type="curve" smooth="yes"/>
      <point x="559.173" y="64.6895"/>
      <point x="494.995" y="-9.79688"/>
      <point x="325.933" y="-9.79688" type="curve" smooth="yes"/>
      <point x="288.321" y="-9.79688"/>
      <point x="264.884" y="-4.60156"/>
      <point x="222.982" y="15" type="curve"/>
    </contour>
    <contour>
      <point x="314.818" y="468.146" type="curve" smooth="yes"/>
      <point x="285.872" y="468.146"/>
      <point x="260.968" y="455.664"/>
      <point x="223.041" y="433.397" type="curve"/>
      <point x="222.997" y="113.896" type="line"/>
      <point x="236.632" y="64.6025"/>
      <point x="271.729" y="25.9893"/>
      <point x="329.14" y="25.9893" type="curve" smooth="yes"/>
      <point x="392.453" y="25.9893"/>
      <point x="438.152" y="109.162"/>
      <point x="438.152" y="225.717" type="curve" smooth="yes"/>
      <point x="438.152" y="380.362"/>
      <point x="393.609" y="468.146"/>
    </contour>
  </outline>
</glyph>
<glyph name="u" format="1">
  <advance width="610"/>
  <unicode hex="0075"/>
  <outline>
    <contour>
      <point x="555.181" y="58.9199" type="curve"/>
      <point x="561.659" y="20.6797" type="line"/>
      <point x="531.008" y="7.31836"/>
      <point x="483.023" y="-7.88672"/>
      <point x="453.129" y="-7.88672" type="curve" smooth="yes"/>
      <point x="422.568" y="-7.88672"/>
      <point x="394.979" y="13.0215"/>
      <point x="394.69" y="23.3604" type="curve"/>
      <point x="348.589" y="-5.94434"/>
      <point x="331.378" y="-10"/>
      <point x="267.453" y="-10" type="curve" smooth="yes"/>
      <point x="165.716" y="-10"/>
      <point x="68.7461" y="30.1387"/>
      <point x="68.7461" y="140.537" type="curve" smooth="yes"/>
      <point x="68.8203" y="412.058" type="line" smooth="yes"/>
      <point x="68.8203" y="432.186"/>
      <point x="58.5811" y="446.958"/>
      <point x="42" y="446.958" type="curve" smooth="yes"/>
      <point x="35" y="446.958" type="line"/>
      <point x="35" y="472.379" type="line"/>
      <point x="175.076" y="508.22" type="line" smooth="yes"/>
      <point x="176.154" y="508.478"/>
      <point x="177.407" y="508.746"/>
      <point x="179" y="508.746" type="curve" smooth="yes"/>
      <point x="191.651" y="508.746"/>
      <point x="192.643" y="495.735"/>
      <point x="192.643" y="485.254" type="curve" smooth="yes"/>
      <point x="192.541" y="156.024" type="line" smooth="yes"/>
      <point x="192.541" y="89.9551"/>
      <point x="227.134" y="35.3203"/>
      <point x="292.221" y="35.3203" type="curve" smooth="yes"/>
      <point x="324.069" y="35.3203"/>
      <point x="352.081" y="50.2832"/>
      <point x="394.656" y="78.3721" type="curve"/>
      <point x="395.557" y="411.621" type="line" smooth="yes"/>
      <point x="395.551" y="431.863"/>
      <point x="383.243" y="447.444"/>
      <point x="369.13" y="447.444" type="curve" smooth="yes"/>
      <point x="361.711" y="447.444" type="line"/>
      <point x="361.711" y="472.975" type="line"/>
      <point x="502.527" y="509.281" type="line" smooth="yes"/>
      <point x="503.499" y="509.472"/>
      <point x="504.614" y="509.666"/>
      <point x="506" y="509.666" type="curve" smooth="yes"/>
      <point x="518.633" y="509.666"/>
      <point x="518.813" y="496.972"/>
      <point x="518.813" y="486.193" type="curve" smooth="yes"/>
      <point x="518.753" y="50.6182" type="line"/>
      <point x="530.179" y="52.8701"/>
      <point x="544.381" y="55.8145"/>
    </contour>
  </outline>
</glyph>
<glyph name="v" format="1">
  <advance width="584"/>
  <unicode hex="0076"/>
  <outline>
    <contour>
      <point x="376.694" y="506.628" type="line"/>
      <point x="545.851" y="506.628" type="line"/>
      <point x="545.851" y="482" type="line"/>
      <point x="538.967" y="482" type="line" smooth="yes"/>
      <point x="523.915" y="481.419"/>
      <point x="518.737" y="465.21"/>
      <point x="514" y="455" type="curve" smooth="yes"/>
      <point x="512.867" y="452.055"/>
      <point x="485.96" y="402.569"/>
      <point x="440.727" y="310.036" type="curve" smooth="yes"/>
      <point x="375.217" y="176.024"/>
      <point x="300.063" y="13.7539"/>
      <point x="294.638" y="3.80371" type="curve" smooth="yes"/>
      <point x="290.529" y="-3.7334"/>
      <point x="281.487" y="-9"/>
      <point x="270.199" y="-9" type="curve" smooth="yes"/>
      <point x="260.045" y="-9"/>
      <point x="250.603" y="-4.62988"/>
      <point x="246.562" y="4.24023" type="curve" smooth="yes"/>
      <point x="241.394" y="15.5996"/>
      <point x="235.402" y="29.9941"/>
      <point x="231.513" y="40.2949" type="curve"/>
      <point x="231.5" y="40.3291"/>
      <point x="181.625" y="171.685"/>
      <point x="137.88" y="291.984" type="curve" smooth="yes"/>
      <point x="102.172" y="390.183"/>
      <point x="75.1143" y="450.71"/>
      <point x="75" y="451" type="curve" smooth="yes"/>
      <point x="68.9629" y="465.644"/>
      <point x="64.7988" y="482.199"/>
      <point x="44" y="482.199" type="curve"/>
      <point x="44" y="506.855" type="line"/>
      <point x="230.057" y="506.855" type="line"/>
      <point x="230.057" y="482" type="line"/>
      <point x="222.723" y="482" type="line" smooth="yes"/>
      <point x="206.686" y="482"/>
      <point x="201.542" y="467.692"/>
      <point x="201.542" y="460.102" type="curve" smooth="yes"/>
      <point x="201.542" y="456.65"/>
      <point x="202.812" y="451.313"/>
      <point x="205" y="446" type="curve" smooth="yes"/>
      <point x="205.026" y="445.936"/>
      <point x="216.856" y="401.701"/>
      <point x="247.467" y="320.702" type="curve" smooth="yes"/>
      <point x="271.951" y="255.914"/>
      <point x="283.458" y="233.611"/>
      <point x="297" y="198" type="curve"/>
      <point x="313.776" y="234.663"/>
      <point x="327.661" y="262.038"/>
      <point x="357.293" y="329.854" type="curve" smooth="yes"/>
      <point x="390.759" y="406.443"/>
      <point x="405.961" y="448.887"/>
      <point x="406" y="449" type="curve" smooth="yes"/>
      <point x="406.979" y="451.824"/>
      <point x="407.452" y="454.403"/>
      <point x="407.452" y="456.729" type="curve" smooth="yes"/>
      <point x="407.452" y="466.689"/>
      <point x="398.777" y="482"/>
      <point x="384.029" y="482" type="curve" smooth="yes"/>
      <point x="376.694" y="482" type="line"/>
    </contour>
  </outline>
</glyph>
<glyph name="w" format="1">
  <advance width="858"/>
  <unicode hex="0077"/>
  <outline>
    <contour>
      <point x="681.526" y="483.651" type="line"/>
      <point x="681.526" y="506.121" type="line"/>
      <point x="818.332" y="506.121" type="line"/>
      <point x="818.332" y="483.696" type="line"/>
      <point x="803" y="483.696"/>
      <point x="790.369" y="468.016"/>
      <point x="786" y="456" type="curve" smooth="yes"/>
      <point x="785.24" y="453.897"/>
      <point x="762.279" y="393.696"/>
      <point x="724.213" y="300.396" type="curve" smooth="yes"/>
      <point x="671.237" y="170.557"/>
      <point x="607.958" y="11.876"/>
      <point x="603.035" y="2.40527" type="curve" smooth="yes"/>
      <point x="599.152" y="-5.27344"/>
      <point x="593.93" y="-10.3701"/>
      <point x="586.82" y="-10.3701" type="curve" smooth="yes"/>
      <point x="578.938" y="-10.3701"/>
      <point x="571.573" y="-3.40723"/>
      <point x="568.636" y="4.36914" type="curve" smooth="yes"/>
      <point x="549.181" y="55.8652"/>
      <point x="519.174" y="116.951"/>
      <point x="493" y="195" type="curve" smooth="yes"/>
      <point x="487.616" y="211.055"/>
      <point x="450.73" y="298.206"/>
      <point x="445.151" y="312.888" type="curve"/>
      <point x="440.644" y="302.145"/>
      <point x="438.057" y="294.231"/>
      <point x="433.4" y="284.694" type="curve" smooth="yes"/>
      <point x="367.876" y="150.488"/>
      <point x="290.088" y="11.6289"/>
      <point x="286.749" y="3.02441" type="curve" smooth="yes"/>
      <point x="283.276" y="-5.92676"/>
      <point x="275.165" y="-11"/>
      <point x="267.698" y="-11" type="curve" smooth="yes"/>
      <point x="258.923" y="-11"/>
      <point x="253.442" y="-4.16602"/>
      <point x="250.197" y="2.94336" type="curve" smooth="yes"/>
      <point x="228.397" y="49.4102"/>
      <point x="202.496" y="125.673"/>
      <point x="143.88" y="282.266" type="curve" smooth="yes"/>
      <point x="108.142" y="377.74"/>
      <point x="76.2314" y="454.43"/>
      <point x="76" y="455" type="curve" smooth="yes"/>
      <point x="71.2373" y="466.184"/>
      <point x="68.2861" y="483.633"/>
      <point x="47" y="483.633" type="curve"/>
      <point x="47" y="506.352" type="line"/>
      <point x="227.002" y="506.352" type="line"/>
      <point x="227.002" y="483" type="line"/>
      <point x="219.904" y="483" type="line" smooth="yes"/>
      <point x="204.758" y="483"/>
      <point x="201.736" y="468.549"/>
      <point x="201.736" y="460.468" type="curve" smooth="yes"/>
      <point x="201.736" y="456.795"/>
      <point x="204.504" y="449.375"/>
      <point x="206" y="445" type="curve" smooth="yes"/>
      <point x="206.023" y="444.927"/>
      <point x="221.907" y="400.512"/>
      <point x="251.528" y="319.523" type="curve" smooth="yes"/>
      <point x="275.032" y="255.261"/>
      <point x="286.208" y="231.012"/>
      <point x="299" y="198" type="curve"/>
      <point x="315.254" y="234.488"/>
      <point x="327.971" y="254.416"/>
      <point x="357.455" y="321.675" type="curve" smooth="yes"/>
      <point x="370.891" y="352.324"/>
      <point x="384.499" y="385.688"/>
      <point x="393.187" y="408.707" type="curve"/>
      <point x="377.369" y="449.451"/>
      <point x="367.207" y="461.489"/>
      <point x="367" y="462" type="curve" smooth="yes"/>
      <point x="361.288" y="475.333"/>
      <point x="358.826" y="483.293"/>
      <point x="337.252" y="483.293" type="curve"/>
      <point x="337.252" y="506.352" type="line"/>
      <point x="519.563" y="506.352" type="line"/>
      <point x="519.563" y="483" type="line"/>
      <point x="513.465" y="483" type="line" smooth="yes"/>
      <point x="499.128" y="483"/>
      <point x="491.372" y="476.725"/>
      <point x="491.372" y="467.1" type="curve" smooth="yes"/>
      <point x="491.372" y="463.215"/>
      <point x="493.31" y="456.784"/>
      <point x="495" y="452" type="curve" smooth="yes"/>
      <point x="495.022" y="451.936"/>
      <point x="516.466" y="400.523"/>
      <point x="546.092" y="319.523" type="curve" smooth="yes"/>
      <point x="569.546" y="255.397"/>
      <point x="583.436" y="223.418"/>
      <point x="596" y="191" type="curve"/>
      <point x="611.208" y="226.805"/>
      <point x="626.225" y="251.124"/>
      <point x="654.934" y="317.675" type="curve" smooth="yes"/>
      <point x="687.292" y="392.687"/>
      <point x="704.963" y="446.875"/>
      <point x="705" y="447" type="curve" smooth="yes"/>
      <point x="706.549" y="452.161"/>
      <point x="709.294" y="459.858"/>
      <point x="709.294" y="465.099" type="curve" smooth="yes"/>
      <point x="709.294" y="476.619"/>
      <point x="700.867" y="483.35"/>
      <point x="684.618" y="483.56" type="curve" smooth="yes"/>
    </contour>
  </outline>
</glyph>
<glyph name="x" format="1">
  <advance width="620"/>
  <unicode hex="0078"/>
  <outline>
    <contour>
      <point x="520.966" y="46.2012" type="curve" smooth="yes"/>
      <point x="525.821" y="41.0439"/>
      <point x="534.839" y="28.877"/>
      <point x="544.986" y="28.7451" type="curve" smooth="yes"/>
      <point x="552.893" y="28.6553" type="line"/>
      <point x="552.893" y="0.00195" type="line"/>
      <point x="371.796" y="-0.04395" type="line"/>
      <point x="371.687" y="29.4248" type="line"/>
      <point x="378.625" y="29.5176" type="line" smooth="yes"/>
      <point x="391.627" y="29.6914"/>
      <point x="401.938" y="35.8027"/>
      <point x="401.938" y="43.9443" type="curve" smooth="yes"/>
      <point x="401.938" y="51.1221"/>
      <point x="395.698" y="60.957"/>
      <point x="395" y="62" type="curve"/>
      <point x="395" y="62"/>
      <point x="356.401" y="117.711"/>
      <point x="302.209" y="195.208" type="curve"/>
      <point x="254.31" y="135.729"/>
      <point x="208.176" y="79.4678"/>
      <point x="197" y="65" type="curve"/>
      <point x="195.38" y="62.7578"/>
      <point x="187.876" y="54.376"/>
      <point x="187.876" y="45" type="curve" smooth="yes"/>
      <point x="187.876" y="35.4541"/>
      <point x="203.011" y="29.6299"/>
      <point x="211.299" y="29.5195" type="curve" smooth="yes"/>
      <point x="218.207" y="29.4277" type="line"/>
      <point x="218.201" y="-0.04004" type="line"/>
      <point x="49.0352" y="-0.04004" type="line"/>
      <point x="49" y="28.6426" type="line"/>
      <point x="55.9141" y="28.7324" type="line" smooth="yes"/>
      <point x="66.9033" y="28.875"/>
      <point x="78.1768" y="40.9092"/>
      <point x="82.3945" y="45.4854" type="curve" smooth="yes"/>
      <point x="86.9971" y="51.168"/>
      <point x="183.888" y="185.053"/>
      <point x="257.748" y="269.929" type="curve"/>
      <point x="201.182" y="348.133"/>
      <point x="115.951" y="455.117"/>
      <point x="113.675" y="458.282" type="curve" smooth="yes"/>
      <point x="107.889" y="465.538"/>
      <point x="99.3379" y="477.663"/>
      <point x="87.0127" y="477.826" type="curve" smooth="yes"/>
      <point x="80.1406" y="477.917" type="line"/>
      <point x="80" y="506.515" type="line"/>
      <point x="260.512" y="506.515" type="line"/>
      <point x="260.512" y="477.121" type="line"/>
      <point x="253.084" y="477.03" type="line" smooth="yes"/>
      <point x="240.43" y="476.876"/>
      <point x="237.44" y="466.287"/>
      <point x="237.44" y="460.51" type="curve" smooth="yes"/>
      <point x="237.44" y="456.519"/>
      <point x="241.568" y="449.146"/>
      <point x="246" y="443" type="curve" smooth="yes"/>
      <point x="246" y="443"/>
      <point x="267.571" y="414.412"/>
      <point x="317.014" y="345.157" type="curve"/>
      <point x="382.541" y="425.87"/>
      <point x="396.396" y="443.106"/>
      <point x="397" y="444" type="curve" smooth="yes"/>
      <point x="400.559" y="448.85"/>
      <point x="403.271" y="456.908"/>
      <point x="403.271" y="461.201" type="curve" smooth="yes"/>
      <point x="403.271" y="468.374"/>
      <point x="394.148" y="476.921"/>
      <point x="379.281" y="477.119" type="curve" smooth="yes"/>
      <point x="372.396" y="477.211" type="line"/>
      <point x="372.302" y="506.513" type="line"/>
      <point x="525" y="506.515" type="line"/>
      <point x="525" y="477.991" type="line"/>
      <point x="519.079" y="477.915" type="line" smooth="yes"/>
      <point x="505.938" y="477.771"/>
      <point x="497.667" y="463.189"/>
      <point x="493" y="457" type="curve" smooth="yes"/>
      <point x="491.532" y="455.054"/>
      <point x="425.635" y="365.974"/>
      <point x="357.215" y="282.743" type="curve"/>
      <point x="417.5" y="198.868"/>
      <point x="481.722" y="87.8975"/>
    </contour>
  </outline>
</glyph>
<glyph name="braceright" format="1">
  <advance width="317"/>
  <unicode hex="007D"/>
  <outline>
    <contour>
      <point x="30.9492" y="766.33" type="line"/>
      <point x="30.9492" y="798.394" type="line"/>
      <point x="38.8867" y="798.394" type="line" smooth="yes"/>
      <point x="69.0615" y="798.394"/>
      <point x="219.363" y="789.547"/>
      <point x="219.363" y="680.661" type="curve" smooth="yes"/>
      <point x="219.363" y="584.831"/>
      <point x="198.724" y="516.893"/>
      <point x="198.724" y="432.672" type="curve" smooth="yes"/>
      <point x="198.724" y="362.633"/>
      <point x="279.251" y="368.157"/>
      <point x="279.251" y="336.267" type="curve" smooth="yes"/>
      <point x="279.251" y="302.507"/>
      <point x="198.724" y="309.69"/>
      <point x="198.724" y="238.788" type="curve" smooth="yes"/>
      <point x="198.724" y="154.564"/>
      <point x="219.363" y="86.6318"/>
      <point x="219.363" y="-9.20117" type="curve" smooth="yes"/>
      <point x="219.363" y="-118.088"/>
      <point x="69.0615" y="-126.934"/>
      <point x="38.8867" y="-126.934" type="curve" smooth="yes"/>
      <point x="30.9492" y="-126.934" type="line"/>
      <point x="30.9492" y="-94.8701" type="line"/>
      <point x="38.8867" y="-94.8701" type="line" smooth="yes"/>
      <point x="77.5723" y="-94.8701"/>
      <point x="105.568" y="-73.3994"/>
      <point x="105.568" y="-10.7041" type="curve" smooth="yes"/>
      <point x="105.568" y="54.5967"/>
      <point x="88.1045" y="183.622"/>
      <point x="88.1045" y="232.775" type="curve" smooth="yes"/>
      <point x="88.1045" y="286.68"/>
      <point x="105.978" y="320.646"/>
      <point x="137.312" y="335.73" type="curve"/>
      <point x="104.962" y="351.304"/>
      <point x="88.1045" y="385.473"/>
      <point x="88.1045" y="438.685" type="curve" smooth="yes"/>
      <point x="88.1045" y="487.841"/>
      <point x="105.568" y="616.86"/>
      <point x="105.568" y="682.164" type="curve" smooth="yes"/>
      <point x="105.568" y="744.861"/>
      <point x="77.5713" y="766.33"/>
      <point x="38.8867" y="766.33" type="curve" smooth="yes"/>
    </contour>
  </outline>
</glyph>
<glyph name="exclamdown" format="1">
  <advance width="286"/>
  <unicode hex="00A1"/>
  <outline>
    <contour>
      <point x="139.077" y="374" type="curve" smooth="yes"/>
      <point x="97.1484" y="374"/>
      <point x="63.1553" y="407.21"/>
      <point x="63.1553" y="448.174" type="curve" smooth="yes"/>
      <point x="63.1553" y="489.138"/>
      <point x="97.1475" y="522.349"/>
      <point x="139.077" y="522.349" type="curve" smooth="yes"/>
      <point x="181.007" y="522.349"/>
      <point x="215" y="489.138"/>
      <point x="215" y="448.174" type="curve" smooth="yes"/>
      <point x="215" y="407.21"/>
      <point x="181.007" y="374"/>
    </contour>
    <contour>
      <point x="218.507" y="-186.432" type="curve"/>
      <point x="197.5" y="269.749" type="line"/>
      <point x="196.64" y="286.396"/>
      <point x="162.951" y="307.316"/>
      <point x="144.169" y="307.721" type="curve" smooth="yes"/>
      <point x="144.007" y="307.725" type="line"/>
      <point x="143.844" y="307.722" type="line" smooth="yes"/>
      <point x="124.371" y="307.332"/>
      <point x="90.4922" y="286.893"/>
      <point x="89.5156" y="269.783" type="curve"/>
      <point x="66.5068" y="-186.417" type="line"/>
      <point x="66.5068" y="-219.719"/>
      <point x="107.623" y="-248"/>
      <point x="142.929" y="-248" type="curve" smooth="yes"/>
      <point x="178.62" y="-248"/>
      <point x="218.507" y="-219.219"/>
    </contour>
  </outline>
</glyph>
<glyph name="cent" format="1">
  <advance width="545"/>
  <unicode hex="00A2"/>
  <outline>
    <contour>
      <point x="433.764" y="220.011" type="line"/>
      <point x="453.503" y="194.613" type="line"/>
      <point x="449.3" y="190.433" type="line" smooth="yes"/>
      <point x="406.484" y="147.839"/>
      <point x="366.79" y="125.813"/>
      <point x="310.242" y="124.46" type="curve"/>
      <point x="301.875" y="9.40039" type="line"/>
      <point x="236.797" y="9.40039" type="line"/>
      <point x="245.564" y="131.812" type="line"/>
      <point x="154.244" y="151.697"/>
      <point x="99.3438" y="216.89"/>
      <point x="99.3438" y="333" type="curve" smooth="yes"/>
      <point x="99.3438" y="462.466"/>
      <point x="170.728" y="523.213"/>
      <point x="276.063" y="527.717" type="curve"/>
      <point x="281.931" y="608.6" type="line"/>
      <point x="347.011" y="608.6" type="line"/>
      <point x="340.619" y="523.74" type="line"/>
      <point x="381.705" y="513.845"/>
      <point x="449.914" y="492.177"/>
      <point x="449.914" y="453.4" type="curve" smooth="yes"/>
      <point x="449.914" y="434.361"/>
      <point x="408.257" y="409.293"/>
      <point x="393.971" y="409.293" type="curve" smooth="yes"/>
      <point x="356.291" y="409.293"/>
      <point x="353.879" y="459.589"/>
      <point x="337.653" y="477.065" type="curve"/>
      <point x="313.736" y="179.856" type="line"/>
      <point x="317.645" y="179.533"/>
      <point x="321.511" y="179.374"/>
      <point x="325.57" y="179.374" type="curve" smooth="yes"/>
      <point x="363.312" y="179.374"/>
      <point x="390.21" y="185.972"/>
      <point x="428.008" y="215.645" type="curve" smooth="yes"/>
    </contour>
    <contour>
      <point x="275" y="491" type="line"/>
      <point x="247.532" y="485.78"/>
      <point x="203.666" y="438.311"/>
      <point x="203.666" y="350.986" type="curve" smooth="yes"/>
      <point x="203.666" y="272.976"/>
      <point x="219.727" y="234.096"/>
      <point x="250.982" y="204.452" type="curve"/>
    </contour>
  </outline>
</glyph>
<glyph name="yen" format="1">
  <advance width="669"/>
  <unicode hex="00A5"/>
  <outline>
    <contour>
      <point x="267.154" y="48.6494" type="curve" smooth="yes"/>
      <point x="268.171" y="109.811"/>
      <point x="269.661" y="167.195"/>
      <point x="269.661" y="226.328" type="curve" smooth="yes"/>
      <point x="269.661" y="247.245"/>
      <point x="269.437" y="268.553"/>
      <point x="268.945" y="289.558" type="curve"/>
      <point x="114.756" y="289.558" type="line"/>
      <point x="114.756" y="327.151" type="line"/>
      <point x="267.757" y="327.151" type="line" smooth="yes"/>
      <point x="267.656" y="329.624"/>
      <point x="267.552" y="332.084"/>
      <point x="267.443" y="334.532" type="curve" smooth="yes"/>
      <point x="260.18" y="348.135"/>
      <point x="252.853" y="361.657"/>
      <point x="245.524" y="375.001" type="curve"/>
      <point x="114.756" y="375.001" type="line"/>
      <point x="114.756" y="412.596" type="line"/>
      <point x="224.607" y="412.596" type="line"/>
      <point x="180.812" y="490.299"/>
      <point x="139.139" y="557.917"/>
      <point x="113.229" y="593.13" type="curve" smooth="yes"/>
      <point x="106.045" y="602.891"/>
      <point x="100.782" y="607.28"/>
      <point x="93.8086" y="608.79" type="curve" smooth="yes"/>
      <point x="87.2383" y="610.211"/>
      <point x="80.5801" y="610.654"/>
      <point x="73.666" y="610.745" type="curve" smooth="yes"/>
      <point x="67.7637" y="610.823" type="line"/>
      <point x="67.7607" y="634.333" type="line"/>
      <point x="280.087" y="634.333" type="line"/>
      <point x="280.087" y="610.824" type="line"/>
      <point x="274.187" y="610.745" type="line" smooth="yes"/>
      <point x="267.421" y="610.655"/>
      <point x="261.022" y="610.062"/>
      <point x="255.037" y="608.785" type="curve" smooth="yes"/>
      <point x="245.035" y="606.654"/>
      <point x="240.205" y="603.865"/>
      <point x="240.205" y="597.63" type="curve" smooth="yes"/>
      <point x="240.205" y="593.301"/>
      <point x="242.609" y="585.622"/>
      <point x="250.312" y="574.092" type="curve" smooth="yes"/>
      <point x="250.418" y="573.934" type="line"/>
      <point x="341.212" y="409.34" type="line"/>
      <point x="448.442" y="570.741" type="line"/>
      <point x="448.562" y="570.904" type="line" smooth="yes"/>
      <point x="460.532" y="587.259"/>
      <point x="464.08" y="597.007"/>
      <point x="464.08" y="601.434" type="curve" smooth="yes"/>
      <point x="464.08" y="605.807"/>
      <point x="460.886" y="607.496"/>
      <point x="451.206" y="609.577" type="curve" smooth="yes"/>
      <point x="445.744" y="610.751"/>
      <point x="448.6" y="610.583"/>
      <point x="441.326" y="610.681" type="curve" smooth="yes"/>
      <point x="426.88" y="610.759" type="line"/>
      <point x="426.88" y="634.268" type="line"/>
      <point x="591.101" y="634.268" type="line"/>
      <point x="591.101" y="610.757" type="line"/>
      <point x="585.199" y="610.68" type="line" smooth="yes"/>
      <point x="565.188" y="610.414"/>
      <point x="550.485" y="602.645"/>
      <point x="544.372" y="593.813" type="curve" smooth="yes"/>
      <point x="425.724" y="412.596" type="line"/>
      <point x="533.429" y="412.596" type="line"/>
      <point x="533.429" y="375.001" type="line"/>
      <point x="401.109" y="375.001" type="line"/>
      <point x="380.264" y="343.161" type="line" smooth="yes"/>
      <point x="380.026" y="337.825"/>
      <point x="379.808" y="332.489"/>
      <point x="379.609" y="327.151" type="curve"/>
      <point x="533.429" y="327.151" type="line"/>
      <point x="533.429" y="289.558" type="line"/>
      <point x="378.511" y="289.558" type="line"/>
      <point x="378.053" y="268.26"/>
      <point x="377.857" y="246.915"/>
      <point x="377.857" y="225.475" type="curve" smooth="yes"/>
      <point x="377.857" y="166.902"/>
      <point x="379.214" y="108.124"/>
      <point x="380.268" y="49.1055" type="curve" smooth="yes"/>
      <point x="380.268" y="38.9814"/>
      <point x="385.576" y="31.1123"/>
      <point x="399.389" y="28.3184" type="curve" smooth="yes"/>
      <point x="405.755" y="27.0312"/>
      <point x="412.317" y="26.4365"/>
      <point x="419.106" y="26.3457" type="curve" smooth="yes"/>
      <point x="425.007" y="26.2666" type="line"/>
      <point x="425.007" y="0.75781" type="line"/>
      <point x="222.463" y="0.75781" type="line"/>
      <point x="222.463" y="26.2666" type="line"/>
      <point x="228.363" y="26.3457" type="line" smooth="yes"/>
      <point x="235.155" y="26.4365"/>
      <point x="241.718" y="27.0293"/>
      <point x="248.079" y="28.3174" type="curve" smooth="yes"/>
      <point x="261.951" y="31.1289"/>
      <point x="267.154" y="40.0801"/>
    </contour>
  </outline>
</glyph>
<glyph name="brokenbar" format="1">
  <advance width="231"/>
  <unicode hex="00A6"/>
  <outline>
    <contour>
      <point x="73" y="-76.5977" type="line"/>
      <point x="73" y="288" type="line" smooth="yes"/>
      <point x="73" y="311.778"/>
      <point x="149.512" y="320.132"/>
      <point x="153.284" y="320.132" type="curve" smooth="yes"/>
      <point x="161" y="319.132" type="line"/>
      <point x="161" y="-45" type="line" smooth="yes"/>
      <point x="161" y="-66.4912"/>
      <point x="81.4189" y="-76.8545"/>
      <point x="81.4189" y="-76.8545" type="curve" smooth="yes"/>
    </contour>
    <contour>
      <point x="73" y="362.402" type="line"/>
      <point x="73" y="727" type="line" smooth="yes"/>
      <point x="73" y="750.778"/>
      <point x="149.512" y="759.132"/>
      <point x="153.284" y="759.132" type="curve" smooth="yes"/>
      <point x="161" y="758.132" type="line"/>
      <point x="161" y="394" type="line" smooth="yes"/>
      <point x="161" y="372.509"/>
      <point x="81.4189" y="362.146"/>
      <point x="81.4189" y="362.146" type="curve" smooth="yes"/>
    </contour>
  </outline>
</glyph>
<glyph name="section" format="1">
  <advance width="536"/>
  <unicode hex="00A7"/>
  <outline>
    <contour>
      <point x="165.153" y="533.854" type="curve"/>
      <point x="161.602" y="549.583"/>
      <point x="160.019" y="563.717"/>
      <point x="160.019" y="580.666" type="curve" smooth="yes"/>
      <point x="160.019" y="718.98"/>
      <point x="221.706" y="795.32"/>
      <point x="305.08" y="795.32" type="curve" smooth="yes"/>
      <point x="365.32" y="795.32"/>
      <point x="416.8" y="742.464"/>
      <point x="416.8" y="712.32" type="curve" smooth="yes"/>
      <point x="416.8" y="683.372"/>
      <point x="395.168" y="665.392"/>
      <point x="378.181" y="665.392" type="curve" smooth="yes"/>
      <point x="338.891" y="665.392"/>
      <point x="348.553" y="761.72"/>
      <point x="311.941" y="761.72" type="curve" smooth="yes"/>
      <point x="281.188" y="761.72"/>
      <point x="254.659" y="709.707"/>
      <point x="254.659" y="630.934" type="curve" smooth="yes"/>
      <point x="254.659" y="455.42"/>
      <point x="474.011" y="454.989"/>
      <point x="474.011" y="285.886" type="curve" smooth="yes"/>
      <point x="474.011" y="224.793"/>
      <point x="416.107" y="185.685"/>
      <point x="381.358" y="134.284" type="curve"/>
      <point x="386.055" y="118.424"/>
      <point x="393.702" y="96.4766"/>
      <point x="393.702" y="78.876" type="curve" smooth="yes"/>
      <point x="393.702" y="-31.8457"/>
      <point x="334.583" y="-89.1191"/>
      <point x="254.294" y="-89.1191" type="curve" smooth="yes"/>
      <point x="172.377" y="-89.1191"/>
      <point x="144.05" y="-28.1738"/>
      <point x="144.05" y="23.7578" type="curve" smooth="yes"/>
      <point x="144.05" y="38.4258"/>
      <point x="162.875" y="58.7637"/>
      <point x="178.975" y="58.7637" type="curve" smooth="yes"/>
      <point x="190.299" y="58.7637"/>
      <point x="215.831" y="43.125"/>
      <point x="215.831" y="18.6855" type="curve" smooth="yes"/>
      <point x="215.831" y="7.27637"/>
      <point x="211.754" y="1.53516"/>
      <point x="211.754" y="-4.9834" type="curve" smooth="yes"/>
      <point x="211.754" y="-34.8223"/>
      <point x="232.355" y="-55.7344"/>
      <point x="254.232" y="-55.7344" type="curve" smooth="yes"/>
      <point x="282.514" y="-55.7344"/>
      <point x="294.192" y="-36.4268"/>
      <point x="294.192" y="30.9473" type="curve" smooth="yes"/>
      <point x="294.192" y="201.694"/>
      <point x="61.7275" y="198.713"/>
      <point x="61.7275" y="383.721" type="curve" smooth="yes"/>
      <point x="61.7275" y="443.563"/>
      <point x="122.985" y="495.73"/>
    </contour>
    <contour>
      <point x="342.552" y="184.593" type="curve"/>
      <point x="354.946" y="214.349"/>
      <point x="363.967" y="238.789"/>
      <point x="363.967" y="253.037" type="curve" smooth="yes"/>
      <point x="363.967" y="326.178"/>
      <point x="242.121" y="361.882"/>
      <point x="187.588" y="477.258" type="curve"/>
      <point x="171.992" y="450.744"/>
      <point x="167.372" y="428.213"/>
      <point x="167.372" y="413.032" type="curve" smooth="yes"/>
      <point x="167.372" y="296.322"/>
      <point x="289.739" y="279.643"/>
    </contour>
  </outline>
</glyph>
<glyph name="uni00B3" format="1">
  <advance width="276"/>
  <unicode hex="00B3"/>
  <outline>
    <contour>
      <point x="49.3408" y="580.45" type="curve"/>
      <point x="39.0254" y="587.766" type="line"/>
      <point x="41.5381" y="591.387"/>
      <point x="64.0801" y="646.05"/>
      <point x="132.39" y="646.05" type="curve" smooth="yes"/>
      <point x="183.419" y="646.05"/>
      <point x="210.92" y="624.774"/>
      <point x="210.92" y="591.03" type="curve" smooth="yes"/>
      <point x="210.92" y="561.709"/>
      <point x="174.489" y="540.523"/>
      <point x="150.598" y="521.057" type="curve"/>
      <point x="192.51" y="515.554"/>
      <point x="242" y="491.124"/>
      <point x="242" y="442" type="curve" smooth="yes"/>
      <point x="242" y="384.374"/>
      <point x="184.189" y="351.02"/>
      <point x="112.79" y="351.02" type="curve" smooth="yes"/>
      <point x="63.8281" y="351.02"/>
      <point x="36.6992" y="366.188"/>
      <point x="36.6992" y="385.58" type="curve" smooth="yes"/>
      <point x="36.6992" y="386.424"/>
      <point x="36.9561" y="389.215"/>
      <point x="37.9287" y="391.161" type="curve" smooth="yes"/>
      <point x="38.1738" y="391.652" type="line"/>
      <point x="38.4932" y="392.1" type="line" smooth="yes"/>
      <point x="41.0068" y="395.617"/>
      <point x="45.0312" y="400.38"/>
      <point x="53.9697" y="400.38" type="curve" smooth="yes"/>
      <point x="60.8047" y="400.38"/>
      <point x="67.6221" y="397.648"/>
      <point x="74.3613" y="392.594" type="curve"/>
      <point x="82.7617" y="386.193"/>
      <point x="100.512" y="370.74"/>
      <point x="119.79" y="370.74" type="curve" smooth="yes"/>
      <point x="153.809" y="370.74"/>
      <point x="183.13" y="404.211"/>
      <point x="183.13" y="427.79" type="curve" smooth="yes"/>
      <point x="183.13" y="462.543"/>
      <point x="155.202" y="488.91"/>
      <point x="122.17" y="488.91" type="curve" smooth="yes"/>
      <point x="105.015" y="488.91"/>
      <point x="88.9932" y="483.526"/>
      <point x="81.5205" y="483.526" type="curve" smooth="yes"/>
      <point x="75.2656" y="483.526"/>
      <point x="70.2207" y="486.36"/>
      <point x="70.2207" y="491.48" type="curve" smooth="yes"/>
      <point x="70.2207" y="495.238"/>
      <point x="73.1279" y="498.24"/>
      <point x="76.2471" y="500.065" type="curve" smooth="yes"/>
      <point x="91.6943" y="509.105"/>
      <point x="97.6758" y="511.242"/>
      <point x="119.863" y="529.485" type="curve" smooth="yes"/>
      <point x="138.548" y="544.849"/>
      <point x="152.3" y="572.75"/>
      <point x="152.3" y="586.29" type="curve" smooth="yes"/>
      <point x="152.3" y="607.887"/>
      <point x="139.33" y="621.47"/>
      <point x="119.59" y="621.47" type="curve" smooth="yes"/>
      <point x="89.7998" y="621.47"/>
      <point x="65.3711" y="602.795"/>
    </contour>
  </outline>
</glyph>
<glyph name="uni00B9" format="1">
  <advance width="215"/>
  <unicode hex="00B9"/>
  <outline>
    <contour>
      <point x="151.62" y="375.84" type="line"/>
      <point x="151.62" y="363" type="line"/>
      <point x="60" y="363" type="line"/>
      <point x="60" y="375.84" type="line"/>
      <point x="67" y="375.84" type="line" smooth="yes"/>
      <point x="77.2217" y="375.84"/>
      <point x="77.6396" y="386.366"/>
      <point x="77.6396" y="388.13" type="curve" smooth="yes"/>
      <point x="77.6396" y="593.68" type="line" smooth="yes"/>
      <point x="77.6396" y="598.145"/>
      <point x="77.6348" y="603.858"/>
      <point x="76.5693" y="603.858" type="curve" smooth="yes"/>
      <point x="70.626" y="603.858"/>
      <point x="66.21" y="602.031"/>
      <point x="57.5498" y="600.837" type="curve"/>
      <point x="57.5498" y="614.335" type="line"/>
      <point x="76.3184" y="622.156"/>
      <point x="102.905" y="633.248"/>
      <point x="116.793" y="646.62" type="curve" smooth="yes"/>
      <point x="119.235" y="648.975"/>
      <point x="122.227" y="649.626"/>
      <point x="124.59" y="649.626" type="curve" smooth="yes"/>
      <point x="130.003" y="649.626"/>
      <point x="133.979" y="646.616"/>
      <point x="133.979" y="638.659" type="curve" smooth="yes"/>
      <point x="133.979" y="388.13" type="line" smooth="yes"/>
      <point x="133.979" y="386.029"/>
      <point x="134.565" y="375.84"/>
      <point x="144.62" y="375.84" type="curve" smooth="yes"/>
    </contour>
  </outline>
</glyph>
<glyph name="ordmasculine" format="1">
  <advance width="255"/>
  <unicode hex="00BA"/>
  <outline>
    <contour>
      <point x="131.086" y="556.148" type="curve" smooth="yes"/>
      <point x="79.4939" y="556.148"/>
      <point x="40.9941" y="584.512"/>
      <point x="40.9941" y="652.315" type="curve" smooth="yes"/>
      <point x="40.9941" y="717.865"/>
      <point x="76.0597" y="746.56"/>
      <point x="127.75" y="746.56" type="curve" smooth="yes"/>
      <point x="175.274" y="746.56"/>
      <point x="218.518" y="718.571"/>
      <point x="218.518" y="652.29" type="curve" smooth="yes"/>
      <point x="218.518" y="583.207"/>
      <point x="183.871" y="556.148"/>
    </contour>
    <contour>
      <point x="89.1201" y="659.481" type="curve" smooth="yes"/>
      <point x="89.1201" y="607.848"/>
      <point x="103.175" y="584.081"/>
      <point x="132.518" y="584.081" type="curve" smooth="yes"/>
      <point x="159.474" y="584.081"/>
      <point x="170.393" y="616.957"/>
      <point x="170.393" y="646.229" type="curve" smooth="yes"/>
      <point x="170.393" y="698.479"/>
      <point x="158.671" y="723.631"/>
      <point x="127.662" y="723.631" type="curve" smooth="yes"/>
      <point x="104.149" y="723.631"/>
      <point x="89.1201" y="699.254"/>
    </contour>
  </outline>
</glyph>
<glyph name="guillemotright" format="1">
  <advance width="491"/>
  <unicode hex="00BB"/>
  <outline>
    <contour>
      <point x="278" y="342" type="curve" smooth="yes"/>
      <point x="278" y="332.395"/>
      <point x="268.634" y="327.753"/>
      <point x="268.634" y="327.753" type="curve"/>
      <point x="188.147" y="256.321"/>
      <point x="139.388" y="221.354"/>
      <point x="89.334" y="162.467" type="curve" smooth="yes"/>
      <point x="89.1504" y="162.251" type="line"/>
      <point x="88.9502" y="162.05" type="line" smooth="yes"/>
      <point x="85.9912" y="159.091"/>
      <point x="81.9121" y="159"/>
      <point x="81" y="159" type="curve" smooth="yes"/>
      <point x="72.9209" y="159"/>
      <point x="55" y="176.078"/>
      <point x="55" y="186" type="curve" smooth="yes"/>
      <point x="55" y="187.861"/>
      <point x="55.2568" y="191.166"/>
      <point x="56.7393" y="194.131" type="curve" smooth="yes"/>
      <point x="56.9082" y="194.468" type="line"/>
      <point x="57.1113" y="194.785" type="line" smooth="yes"/>
      <point x="92.1211" y="249.244"/>
      <point x="126.503" y="293.57"/>
      <point x="184.216" y="343.046" type="curve"/>
      <point x="124.948" y="394.639"/>
      <point x="92.3359" y="435.421"/>
      <point x="57.1113" y="490.215" type="curve" smooth="yes"/>
      <point x="56.9082" y="490.532" type="line"/>
      <point x="56.7393" y="490.869" type="line" smooth="yes"/>
      <point x="55.2568" y="493.834"/>
      <point x="55" y="497.139"/>
      <point x="55" y="499" type="curve" smooth="yes"/>
      <point x="55" y="508.922"/>
      <point x="72.9209" y="526"/>
      <point x="81" y="526" type="curve" smooth="yes"/>
      <point x="81.9121" y="526"/>
      <point x="85.9912" y="525.909"/>
      <point x="88.9502" y="522.95" type="curve" smooth="yes"/>
      <point x="89.1504" y="522.749" type="line"/>
      <point x="89.334" y="522.533" type="line" smooth="yes"/>
      <point x="139.389" y="463.646"/>
      <point x="188.146" y="428.679"/>
      <point x="268.634" y="357.247" type="curve" smooth="yes"/>
      <point x="268.634" y="357.247"/>
      <point x="278" y="351.901"/>
    </contour>
    <contour>
      <point x="436" y="342" type="curve" smooth="yes"/>
      <point x="436" y="332.395"/>
      <point x="426.634" y="327.753"/>
      <point x="426.634" y="327.753" type="curve"/>
      <point x="346.147" y="256.321"/>
      <point x="297.388" y="221.354"/>
      <point x="247.334" y="162.467" type="curve" smooth="yes"/>
      <point x="247.15" y="162.251" type="line"/>
      <point x="246.95" y="162.05" type="line" smooth="yes"/>
      <point x="243.991" y="159.091"/>
      <point x="239.912" y="159"/>
      <point x="239" y="159" type="curve" smooth="yes"/>
      <point x="230.921" y="159"/>
      <point x="213" y="176.078"/>
      <point x="213" y="186" type="curve" smooth="yes"/>
      <point x="213" y="187.861"/>
      <point x="213.257" y="191.166"/>
      <point x="214.739" y="194.131" type="curve" smooth="yes"/>
      <point x="214.908" y="194.468" type="line"/>
      <point x="215.111" y="194.785" type="line" smooth="yes"/>
      <point x="250.121" y="249.244"/>
      <point x="284.503" y="293.57"/>
      <point x="342.216" y="343.046" type="curve"/>
      <point x="282.948" y="394.639"/>
      <point x="250.336" y="435.421"/>
      <point x="215.111" y="490.215" type="curve" smooth="yes"/>
      <point x="214.908" y="490.532" type="line"/>
      <point x="214.739" y="490.869" type="line" smooth="yes"/>
      <point x="213.257" y="493.834"/>
      <point x="213" y="497.139"/>
      <point x="213" y="499" type="curve" smooth="yes"/>
      <point x="213" y="508.922"/>
      <point x="230.921" y="526"/>
      <point x="239" y="526" type="curve" smooth="yes"/>
      <point x="239.912" y="526"/>
      <point x="243.991" y="525.909"/>
      <point x="246.95" y="522.95" type="curve" smooth="yes"/>
      <point x="247.15" y="522.749" type="line"/>
      <point x="247.334" y="522.533" type="line" smooth="yes"/>
      <point x="297.389" y="463.646"/>
      <point x="346.146" y="428.679"/>
      <point x="426.634" y="357.247" type="curve" smooth="yes"/>
      <point x="426.634" y="357.247"/>
      <point x="436" y="351.901"/>
    </contour>
  </outline>
</glyph>
<glyph name="AE" format="1">
  <advance width="978"/>
  <unicode hex="00C6"/>
  <outline>
    <contour>
      <point x="350" y="379" type="line" smooth="yes"/>
      <point x="349.56" y="377.899"/>
      <point x="349.374" y="376.896"/>
      <point x="349.374" y="376" type="curve" smooth="yes"/>
      <point x="349.374" y="372.825"/>
      <point x="352.101" y="371"/>
      <point x="356" y="371" type="curve" smooth="yes"/>
      <point x="467" y="371" type="line"/>
      <point x="475" y="371" type="line" smooth="yes"/>
      <point x="479.68" y="371"/>
      <point x="481.739" y="372.825"/>
      <point x="481.739" y="376" type="curve" smooth="yes"/>
      <point x="481.739" y="376.896"/>
      <point x="481.44" y="377.899"/>
      <point x="481" y="379" type="curve" smooth="yes"/>
      <point x="481" y="618" type="line" smooth="yes"/>
      <point x="481" y="620.56"/>
      <point x="479.768" y="621.94"/>
      <point x="478.197" y="621.94" type="curve" smooth="yes"/>
      <point x="476.7" y="621.94"/>
      <point x="474.896" y="620.686"/>
      <point x="473.562" y="618" type="curve" smooth="yes"/>
    </contour>
    <contour>
      <point x="420.211" y="683.17" type="curve" smooth="yes"/>
      <point x="420.211" y="703"/>
      <point x="410.844" y="708.273"/>
      <point x="392.371" y="712.012" type="curve" smooth="yes"/>
      <point x="384.414" y="713.622"/>
      <point x="376.292" y="714.349"/>
      <point x="368" y="714.458" type="curve"/>
      <point x="368" y="730.333" type="line"/>
      <point x="663.044" y="730.333" type="line"/>
      <point x="663.044" y="730" type="line"/>
      <point x="861.506" y="730" type="line"/>
      <point x="878.506" y="590" type="line"/>
      <point x="862.506" y="590.986" type="line"/>
      <point x="849.973" y="651.47"/>
      <point x="820.559" y="678.148"/>
      <point x="761.506" y="699.803" type="curve" smooth="yes"/>
      <point x="741.455" y="707.155"/>
      <point x="708.188" y="709"/>
      <point x="680.506" y="709" type="curve" smooth="yes"/>
      <point x="660.506" y="709"/>
      <point x="650.132" y="707.991"/>
      <point x="630.186" y="705.605" type="curve" smooth="yes"/>
      <point x="613.511" y="703.611"/>
      <point x="602.959" y="692.576"/>
      <point x="602.811" y="681.031" type="curve" smooth="yes"/>
      <point x="599.369" y="377.077" type="line"/>
      <point x="628.696" y="374.792"/>
      <point x="681.063" y="372"/>
      <point x="702.997" y="372" type="curve" smooth="yes"/>
      <point x="730.124" y="372"/>
      <point x="751.699" y="374.864"/>
      <point x="781.985" y="377.659" type="curve" smooth="yes"/>
      <point x="794.183" y="380.343"/>
      <point x="805.176" y="391.029"/>
      <point x="808.796" y="406.152" type="curve" smooth="yes"/>
      <point x="811.231" y="415.186"/>
      <point x="810.41" y="429.422"/>
      <point x="811.243" y="430.521" type="curve" smooth="yes"/>
      <point x="827.118" y="430.521" type="line"/>
      <point x="827.118" y="283.025" type="line"/>
      <point x="811.243" y="283.025" type="line" smooth="yes"/>
      <point x="810.41" y="284.124"/>
      <point x="811.231" y="295.186"/>
      <point x="808.796" y="307.396" type="curve" smooth="yes"/>
      <point x="806.29" y="324.951"/>
      <point x="788.406" y="334.352"/>
      <point x="778.933" y="336.53" type="curve" smooth="yes"/>
      <point x="749.265" y="339.43"/>
      <point x="726.747" y="343"/>
      <point x="702.997" y="343" type="curve" smooth="yes"/>
      <point x="680.08" y="343"/>
      <point x="628.37" y="339.911"/>
      <point x="599.466" y="337.353" type="curve"/>
      <point x="602.807" y="54.5195" type="line" smooth="yes"/>
      <point x="602.807" y="41.2354"/>
      <point x="611.323" y="26.709"/>
      <point x="630.677" y="24.3945" type="curve" smooth="yes"/>
      <point x="649.602" y="22.1309"/>
      <point x="659.909" y="20.9922"/>
      <point x="677.997" y="20.9922" type="curve" smooth="yes"/>
      <point x="710.02" y="20.9922"/>
      <point x="753.014" y="21.7451"/>
      <point x="795.997" y="32.1973" type="curve" smooth="yes"/>
      <point x="857.114" y="47.0596"/>
      <point x="884.464" y="78.5303"/>
      <point x="896.997" y="139.014" type="curve"/>
      <point x="912.997" y="140" type="line"/>
      <point x="895.997" y="0" type="line"/>
      <point x="655.047" y="0" type="line"/>
      <point x="575.488" y="0" type="line"/>
      <point x="520.997" y="0" type="line"/>
      <point x="507.557" y="0" type="line"/>
      <point x="421.997" y="0" type="line"/>
      <point x="421.997" y="15.9473" type="line"/>
      <point x="432.33" y="16.0586"/>
      <point x="442.523" y="16.3994"/>
      <point x="452.368" y="18.3945" type="curve" smooth="yes"/>
      <point x="471.471" y="22.2656"/>
      <point x="480.238" y="48.5195"/>
      <point x="480.238" y="48.5195" type="curve"/>
      <point x="480.238" y="136.347"/>
      <point x="480.245" y="254.173"/>
      <point x="480.245" y="342" type="curve"/>
      <point x="339" y="342" type="line" smooth="yes"/>
      <point x="333" y="342"/>
      <point x="331.376" y="338.257"/>
      <point x="329.53" y="333.771" type="curve" smooth="yes"/>
      <point x="196" y="74" type="line" smooth="yes"/>
      <point x="189.96" y="60.1074"/>
      <point x="187.477" y="49.7715"/>
      <point x="187.477" y="42.002" type="curve" smooth="yes"/>
      <point x="187.477" y="24.0449"/>
      <point x="200.738" y="19.792"/>
      <point x="214" y="17" type="curve" smooth="yes"/>
      <point x="222" y="16"/>
      <point x="229" y="16"/>
      <point x="237" y="16" type="curve"/>
      <point x="237" y="0" type="line"/>
      <point x="48" y="0" type="line"/>
      <point x="48" y="16" type="line"/>
      <point x="56" y="16"/>
      <point x="64" y="17"/>
      <point x="72" y="18" type="curve" smooth="yes"/>
      <point x="87" y="22"/>
      <point x="93.2803" y="38.3789"/>
      <point x="102" y="55" type="curve" smooth="yes"/>
      <point x="413" y="665" type="line" smooth="yes"/>
      <point x="415.128" y="669.056"/>
      <point x="420.211" y="676.345"/>
    </contour>
  </outline>
</glyph>
<glyph name="Thorn" format="1">
  <advance width="660"/>
  <unicode hex="00DE"/>
  <outline>
    <contour>
      <point x="271.63" y="18.3945" type="curve" smooth="yes"/>
      <point x="279.587" y="16.7852"/>
      <point x="287.708" y="16.0586"/>
      <point x="296" y="15.9473" type="curve"/>
      <point x="296" y="0" type="line"/>
      <point x="53.9502" y="0" type="line"/>
      <point x="53.9502" y="15.9473" type="line"/>
      <point x="62.2422" y="16.0586"/>
      <point x="70.3652" y="16.7822"/>
      <point x="78.3213" y="18.3945" type="curve" smooth="yes"/>
      <point x="97.4238" y="22.2656"/>
      <point x="105.95" y="35.7158"/>
      <point x="105.95" y="49" type="curve" smooth="yes"/>
      <point x="107.201" y="164.121"/>
      <point x="107.987" y="279.113"/>
      <point x="107.987" y="394" type="curve" smooth="yes"/>
      <point x="107.987" y="490.03"/>
      <point x="107.453" y="585.988"/>
      <point x="106.194" y="681.888" type="curve" smooth="yes"/>
      <point x="106.194" y="694.819"/>
      <point x="97.4277" y="708.146"/>
      <point x="78.3242" y="712.012" type="curve" smooth="yes"/>
      <point x="70.3672" y="713.622"/>
      <point x="62.2451" y="714.349"/>
      <point x="53.9531" y="714.458" type="curve"/>
      <point x="53.9531" y="730.333" type="line"/>
      <point x="295.997" y="730.333" type="line"/>
      <point x="295.997" y="714.458" type="line"/>
      <point x="287.704" y="714.349"/>
      <point x="269.583" y="713.624"/>
      <point x="261.626" y="712.012" type="curve" smooth="yes"/>
      <point x="243.028" y="708.244"/>
      <point x="244.227" y="695.516"/>
      <point x="243.775" y="682.912" type="curve" smooth="yes"/>
      <point x="243.193" y="655.394"/>
      <point x="242.711" y="631.865"/>
      <point x="242.317" y="604.329" type="curve"/>
      <point x="265.841" y="609.622"/>
      <point x="300.368" y="611"/>
      <point x="321.744" y="611" type="curve" smooth="yes"/>
      <point x="501.588" y="611"/>
      <point x="611" y="531.062"/>
      <point x="611" y="385.968" type="curve" smooth="yes"/>
      <point x="611" y="253.247"/>
      <point x="504.455" y="180.9"/>
      <point x="342.612" y="180.9" type="curve" smooth="yes"/>
      <point x="330.75" y="180.9"/>
      <point x="319.007" y="181.5"/>
      <point x="307.5" y="182.675" type="curve" smooth="yes"/>
      <point x="296.378" y="183.811"/>
      <point x="291.774" y="179.258"/>
      <point x="291.774" y="186" type="curve" smooth="yes"/>
      <point x="291.774" y="192.942"/>
      <point x="297.093" y="210"/>
      <point x="306.744" y="210" type="curve" smooth="yes"/>
      <point x="405.336" y="210"/>
      <point x="472.266" y="262.872"/>
      <point x="472.266" y="398.068" type="curve" smooth="yes"/>
      <point x="472.266" y="521.605"/>
      <point x="381" y="562.888"/>
      <point x="286.744" y="562.888" type="curve" smooth="yes"/>
      <point x="245" y="562.888"/>
      <point x="241.955" y="529.888"/>
      <point x="241.955" y="529.888" type="curve"/>
      <point x="241.232" y="470.293"/>
      <point x="240.915" y="453.661"/>
      <point x="240.915" y="394" type="curve" smooth="yes"/>
      <point x="240.915" y="279.087"/>
      <point x="242.085" y="164.067"/>
      <point x="243.779" y="49" type="curve" smooth="yes"/>
      <point x="244.246" y="36.1006"/>
      <point x="253.047" y="22.1533"/>
    </contour>
  </outline>
</glyph>
<glyph name="thorn" format="1">
  <advance width="596"/>
  <unicode hex="00FE"/>
  <outline>
    <contour>
      <point x="203.164" y="-214.731" type="curve" smooth="yes"/>
      <point x="208.701" y="-215.854"/>
      <point x="214.353" y="-216.36"/>
      <point x="220.123" y="-216.438" type="curve"/>
      <point x="220.123" y="-232" type="line"/>
      <point x="32" y="-232" type="line"/>
      <point x="32" y="-216.438" type="line"/>
      <point x="37.7715" y="-216.36"/>
      <point x="43.4209" y="-215.852"/>
      <point x="48.96" y="-214.731" type="curve" smooth="yes"/>
      <point x="61.8457" y="-212.125"/>
      <point x="66.7549" y="-203.588"/>
      <point x="68.2266" y="-194.621" type="curve" smooth="yes"/>
      <point x="68.2266" y="680.854" type="line" smooth="yes"/>
      <point x="68.2266" y="699.217"/>
      <point x="61.8086" y="711.308"/>
      <point x="48.8799" y="715.898" type="curve" smooth="yes"/>
      <point x="43.5557" y="717.789"/>
      <point x="38.5742" y="719.2"/>
      <point x="34.4092" y="719.2" type="curve"/>
      <point x="34.4092" y="732.785" type="line"/>
      <point x="175.112" y="771.982" type="line" smooth="yes"/>
      <point x="176.19" y="772.271"/>
      <point x="177.149" y="772.366"/>
      <point x="178" y="772.366" type="curve" smooth="yes"/>
      <point x="182.568" y="772.366"/>
      <point x="184.004" y="767.109"/>
      <point x="184.049" y="755.13" type="curve" smooth="yes"/>
      <point x="184.049" y="746.643"/>
      <point x="184.045" y="479.156"/>
      <point x="184.045" y="470.669" type="curve"/>
      <point x="218.065" y="495.611"/>
      <point x="253.864" y="509.063"/>
      <point x="304.282" y="509.063" type="curve" smooth="yes"/>
      <point x="455.114" y="509.063"/>
      <point x="564.173" y="448.804"/>
      <point x="564.173" y="251" type="curve" smooth="yes"/>
      <point x="564.173" y="72.6309"/>
      <point x="484.974" y="-12.7969"/>
      <point x="307" y="-12.7969" type="curve" smooth="yes"/>
      <point x="269.524" y="-12.7969"/>
      <point x="225.566" y="-4.19727"/>
      <point x="183.983" y="23.4873" type="curve"/>
      <point x="183.954" y="-194.954" type="line" smooth="yes"/>
      <point x="185.492" y="-203.798"/>
      <point x="190.438" y="-212.15"/>
    </contour>
    <contour>
      <point x="184.042" y="445.55" type="curve"/>
      <point x="183.997" y="117.901" type="line"/>
      <point x="203.577" y="60.0684"/>
      <point x="239.034" y="8.98926"/>
      <point x="316.612" y="8.98926" type="curve" smooth="yes"/>
      <point x="391.774" y="8.98926"/>
      <point x="428.152" y="92.0771"/>
      <point x="428.152" y="214.819" type="curve" smooth="yes"/>
      <point x="428.152" y="371.514"/>
      <point x="376.494" y="479.146"/>
      <point x="289" y="479.146" type="curve" smooth="yes"/>
      <point x="259.106" y="479.146"/>
      <point x="222.726" y="467.591"/>
    </contour>
  </outline>
</glyph>
<glyph name="Dcroat" format="1">
  <advance width="844"/>
  <unicode hex="0110"/>
  <outline>
    <contour>
      <point x="57" y="358" type="line"/>
      <point x="51" y="360"/>
      <point x="48" y="379"/>
      <point x="48" y="390" type="curve" smooth="yes"/>
      <point x="48" y="401"/>
      <point x="51" y="418"/>
      <point x="57" y="418" type="curve"/>
      <point x="420" y="418" type="line"/>
      <point x="424" y="418"/>
      <point x="426" y="397"/>
      <point x="426" y="385" type="curve" smooth="yes"/>
      <point x="426" y="375"/>
      <point x="425" y="358"/>
      <point x="420" y="358" type="curve"/>
    </contour>
    <component base="D"/>
  </outline>
</glyph>
<glyph name="dcroat" format="1">
  <advance width="612"/>
  <unicode hex="0111"/>
  <outline>
    <contour>
      <point x="257" y="576" type="line"/>
      <point x="251" y="578"/>
      <point x="248" y="592"/>
      <point x="248" y="603" type="curve" smooth="yes"/>
      <point x="248" y="614"/>
      <point x="251" y="626"/>
      <point x="257" y="626" type="curve"/>
      <point x="570" y="626" type="line"/>
      <point x="574" y="626"/>
      <point x="576" y="610"/>
      <point x="576" y="598" type="curve" smooth="yes"/>
      <point x="576" y="588"/>
      <point x="575" y="576"/>
      <point x="570" y="576" type="curve"/>
    </contour>
    <component base="d"/>
  </outline>
</glyph>
<glyph name="Lslash" format="1">
  <advance width="647"/>
  <unicode hex="0141"/>
  <outline>
    <contour>
      <point x="50" y="287" type="line"/>
      <point x="342" y="516" type="line"/>
      <point x="342" y="439" type="line"/>
      <point x="50" y="210" type="line"/>
    </contour>
    <component base="L"/>
  </outline>
</glyph>
<glyph name="lslash" format="1">
  <advance width="325"/>
  <unicode hex="0142"/>
  <outline>
    <contour>
      <point x="41" y="322" type="line"/>
      <point x="286" y="516" type="line"/>
      <point x="286" y="439" type="line"/>
      <point x="41" y="245" type="line"/>
    </contour>
    <component base="l"/>
    <component base="l"/>
  </outline>
</glyph>
<glyph name="Tbar" format="1">
  <advance width="709"/>
  <unicode hex="0166"/>
  <outline>
    <contour>
      <point x="246.636" y="695.114" type="curve" smooth="yes"/>
      <point x="216.809" y="695.114"/>
      <point x="180.43" y="692.118"/>
      <point x="151.299" y="687.104" type="curve" smooth="yes"/>
      <point x="111.665" y="680.179"/>
      <point x="91.9316" y="653.687"/>
      <point x="83.0215" y="606.033" type="curve" smooth="yes"/>
      <point x="81.9531" y="600.315" type="line"/>
      <point x="48" y="600.339" type="line"/>
      <point x="67.2842" y="727.471" type="line"/>
      <point x="67.3984" y="727.881" type="line" smooth="yes"/>
      <point x="69.1357" y="734.109"/>
      <point x="75.2607" y="735.953"/>
      <point x="79.1406" y="735.953" type="curve" smooth="yes"/>
      <point x="87.0664" y="735.953"/>
      <point x="96.7227" y="732.861"/>
      <point x="103.2" y="732.764" type="curve" smooth="yes"/>
      <point x="140.035" y="732.207"/>
      <point x="242.834" y="730"/>
      <point x="369.19" y="730" type="curve"/>
      <point x="480.101" y="730.999"/>
      <point x="553.155" y="731.86"/>
      <point x="642.89" y="734.753" type="curve" smooth="yes"/>
      <point x="644.142" y="734.789"/>
      <point x="658.814" y="737.774"/>
      <point x="665.512" y="737.774" type="curve" smooth="yes"/>
      <point x="670.469" y="737.774"/>
      <point x="683.141" y="737.121"/>
      <point x="683.141" y="725.884" type="curve"/>
      <point x="678.899" y="597.981" type="line"/>
      <point x="648.169" y="599.765" type="line"/>
      <point x="648.141" y="606.343" type="line" smooth="yes"/>
      <point x="648.141" y="606.343"/>
      <point x="648.074" y="625.678"/>
      <point x="644.289" y="641.357" type="curve" smooth="yes"/>
      <point x="644.243" y="641.552" type="line"/>
      <point x="644.207" y="641.748" type="line" smooth="yes"/>
      <point x="638.531" y="672.966"/>
      <point x="623.146" y="686.358"/>
      <point x="609.676" y="689.146" type="curve" smooth="yes"/>
      <point x="587.093" y="693.817"/>
      <point x="557.197" y="694.759"/>
      <point x="516.922" y="694.759" type="curve" smooth="yes"/>
      <point x="499.086" y="694.759"/>
      <point x="480.495" y="694.336"/>
      <point x="461.612" y="693.96" type="curve" smooth="yes"/>
      <point x="446.529" y="693.659"/>
      <point x="439.941" y="682.073"/>
      <point x="439.821" y="671.292" type="curve" smooth="yes"/>
      <point x="438.791" y="603.379"/>
      <point x="437.933" y="535.415"/>
      <point x="437.403" y="467.604" type="curve"/>
      <point x="549.8" y="467.604" type="line"/>
      <point x="549.8" y="460.073" type="line" smooth="yes"/>
      <point x="549.8" y="456.391"/>
      <point x="546.324" y="411"/>
      <point x="521.671" y="411" type="curve" smooth="yes"/>
      <point x="437.045" y="411" type="line"/>
      <point x="436.914" y="383.724"/>
      <point x="435.026" y="356.598"/>
      <point x="435.026" y="329.39" type="curve" smooth="yes"/>
      <point x="435.026" y="237.698"/>
      <point x="435.855" y="146.164"/>
      <point x="437.882" y="54.6357" type="curve"/>
      <point x="438.007" y="45.0557"/>
      <point x="444.037" y="34.8506"/>
      <point x="460.155" y="31.6436" type="curve" smooth="yes"/>
      <point x="467.605" y="30.1611"/>
      <point x="475.286" y="29.4775"/>
      <point x="483.23" y="29.374" type="curve" smooth="yes"/>
      <point x="490.138" y="29.2842" type="line"/>
      <point x="490.138" y="0" type="line"/>
      <point x="236.094" y="0" type="line"/>
      <point x="236.094" y="29.3477" type="line"/>
      <point x="243.005" y="29.4355" type="line" smooth="yes"/>
      <point x="255.364" y="29.5908"/>
      <point x="266.305" y="29.2275"/>
      <point x="276.262" y="32.4805" type="curve" smooth="yes"/>
      <point x="290.428" y="37.1094"/>
      <point x="296.198" y="45.668"/>
      <point x="296.316" y="54.7227" type="curve"/>
      <point x="298.284" y="146.493"/>
      <point x="299.174" y="238.215"/>
      <point x="299.174" y="330.073" type="curve" smooth="yes"/>
      <point x="299.174" y="357.013"/>
      <point x="297.389" y="386.487"/>
      <point x="297.259" y="411.853" type="curve"/>
      <point x="189.262" y="411.853" type="line"/>
      <point x="191.068" y="420.148" type="line" smooth="yes"/>
      <point x="191.068" y="420.148"/>
      <point x="196.636" y="469"/>
      <point x="218.909" y="469" type="curve" smooth="yes"/>
      <point x="296.873" y="469" type="line"/>
      <point x="296.361" y="528.691"/>
      <point x="295.604" y="584.155"/>
      <point x="294.578" y="642.39" type="curve"/>
      <point x="294.578" y="642.39"/>
      <point x="294.548" y="657.883"/>
      <point x="294.534" y="665.215" type="curve"/>
      <point x="294.534" y="668.601"/>
      <point x="294.522" y="669.958"/>
      <point x="294.522" y="672.513" type="curve" smooth="yes"/>
      <point x="294.522" y="683.893"/>
      <point x="284.755" y="692.818"/>
      <point x="277.637" y="693.829" type="curve" smooth="yes"/>
      <point x="271.879" y="694.646"/>
      <point x="260.482" y="695.114"/>
    </contour>
  </outline>
</glyph>
<glyph name="tbar" format="1">
  <advance width="387"/>
  <unicode hex="0167"/>
  <outline>
    <contour>
      <point x="336.718" y="31.2939" type="curve"/>
      <point x="343.068" y="1.69043" type="line"/>
      <point x="323.476" y="-5.68555"/>
      <point x="298.383" y="-10.1855"/>
      <point x="264.598" y="-10.1855" type="curve" smooth="yes"/>
      <point x="234.949" y="-10.1855"/>
      <point x="197.146" y="-0.42578"/>
      <point x="172.668" y="24.0498" type="curve" smooth="yes"/>
      <point x="141.764" y="54.9521"/>
      <point x="119.872" y="111.658"/>
      <point x="119.677" y="168.752" type="curve"/>
      <point x="119.661" y="229.139"/>
      <point x="119.58" y="297.179"/>
      <point x="119.565" y="354" type="curve"/>
      <point x="30" y="354" type="line"/>
      <point x="31.7432" y="362.419" type="line" smooth="yes"/>
      <point x="31.7432" y="362.419"/>
      <point x="37.1133" y="402"/>
      <point x="58.5977" y="402" type="curve" smooth="yes"/>
      <point x="119.551" y="402" type="line"/>
      <point x="119.538" y="460.132" type="line" smooth="yes"/>
      <point x="119.534" y="475.586"/>
      <point x="114.925" y="478.945"/>
      <point x="105.838" y="480.785" type="curve" smooth="yes"/>
      <point x="102.042" y="481.554"/>
      <point x="62.1621" y="481.498"/>
      <point x="55.1436" y="482.159" type="curve" smooth="yes"/>
      <point x="46.8643" y="482.939"/>
      <point x="43.6299" y="486.042"/>
      <point x="43.6299" y="492" type="curve" smooth="yes"/>
      <point x="43.6299" y="498.951"/>
      <point x="61.1836" y="504.42"/>
      <point x="70.5674" y="509.043" type="curve" smooth="yes"/>
      <point x="112.482" y="529.695"/>
      <point x="163.846" y="541.141"/>
      <point x="210.308" y="584.013" type="curve" smooth="yes"/>
      <point x="214.661" y="588.03"/>
      <point x="218.755" y="594.791"/>
      <point x="226.598" y="594.791" type="curve" smooth="yes"/>
      <point x="237.79" y="594.791"/>
      <point x="244.373" y="585.823"/>
      <point x="244.373" y="570.876" type="curve" smooth="yes"/>
      <point x="244.373" y="552.519"/>
      <point x="244.365" y="528.067"/>
      <point x="244.363" y="509.775" type="curve"/>
      <point x="281.737" y="510.084"/>
      <point x="298.677" y="510.668"/>
      <point x="310.598" y="510.668" type="curve" smooth="yes"/>
      <point x="329.477" y="510.668"/>
      <point x="340.784" y="505.289"/>
      <point x="340.784" y="492" type="curve" smooth="yes"/>
      <point x="340.784" y="487.901"/>
      <point x="339.907" y="484.073"/>
      <point x="339.069" y="480.056" type="curve" smooth="yes"/>
      <point x="334.175" y="466.602" type="line"/>
      <point x="327.598" y="466.602" type="line" smooth="yes"/>
      <point x="319.401" y="466.602"/>
      <point x="298.678" y="467.534"/>
      <point x="258.598" y="467.534" type="curve" smooth="yes"/>
      <point x="253.767" y="467.534"/>
      <point x="248.762" y="467.518"/>
      <point x="244.355" y="467.492" type="curve"/>
      <point x="244.345" y="390.262" type="line"/>
      <point x="329.729" y="390.262" type="line"/>
      <point x="329.729" y="382.797" type="line" smooth="yes"/>
      <point x="329.729" y="379.146"/>
      <point x="326.376" y="344.149"/>
      <point x="302.598" y="344.149" type="curve" smooth="yes"/>
      <point x="244.337" y="344.149" type="line"/>
      <point x="244.335" y="331.292"/>
      <point x="244.308" y="308.726"/>
      <point x="244.308" y="295.983" type="curve" smooth="yes"/>
      <point x="244.308" y="153.771" type="line" smooth="yes"/>
      <point x="244.308" y="128.762"/>
      <point x="245.026" y="89.1074"/>
      <point x="250.309" y="73.4365" type="curve" smooth="yes"/>
      <point x="260.948" y="41.875"/>
      <point x="277.006" y="29.2012"/>
      <point x="303.598" y="29.2012" type="curve" smooth="yes"/>
      <point x="311.848" y="29.2012"/>
      <point x="328.034" y="29.8145"/>
    </contour>
  </outline>
</glyph>
<glyph name="longs" format="1">
  <advance width="546"/>
  <unicode hex="017F"/>
  <outline>
    <contour>
      <point x="241.751" y="547.552" type="line"/>
      <point x="238.793" y="53.8633" type="line" smooth="yes"/>
      <point x="238.793" y="53.7969" type="line" smooth="yes"/>
      <point x="238.793" y="38.8145"/>
      <point x="250.329" y="29.0635"/>
      <point x="269.057" y="28.8242" type="curve" smooth="yes"/>
      <point x="275.964" y="28.7354" type="line"/>
      <point x="275.964" y="0" type="line"/>
      <point x="68.8408" y="0" type="line"/>
      <point x="68.8408" y="28.6689" type="line"/>
      <point x="75.748" y="28.7578" type="line" smooth="yes"/>
      <point x="95.5752" y="29.0117"/>
      <point x="104.356" y="39.7422"/>
      <point x="105.067" y="53.7588" type="curve"/>
      <point x="105.067" y="454.514" type="line"/>
      <point x="88.7646" y="454.593"/>
      <point x="79.71" y="454.882"/>
      <point x="64" y="454.882" type="curve" smooth="yes"/>
      <point x="57.3525" y="454.882"/>
      <point x="48" y="458.567"/>
      <point x="48" y="468.013" type="curve" smooth="yes"/>
      <point x="48" y="475.43"/>
      <point x="53.1719" y="478.41"/>
      <point x="57.2021" y="482.102" type="curve" smooth="yes"/>
      <point x="65.8223" y="489.996"/>
      <point x="74.916" y="494.393"/>
      <point x="82.8691" y="498.261" type="curve" smooth="yes"/>
      <point x="91.3516" y="502.502"/>
      <point x="100.646" y="507.629"/>
      <point x="105.064" y="509.433" type="curve"/>
      <point x="105.059" y="518.299"/>
      <point x="105.053" y="533.408"/>
      <point x="105.053" y="546" type="curve" smooth="yes"/>
      <point x="105.053" y="546.22" type="line" smooth="yes"/>
      <point x="105.053" y="554.163"/>
      <point x="105.056" y="563.42"/>
      <point x="105.684" y="570.962" type="curve" smooth="yes"/>
      <point x="114.872" y="681.312"/>
      <point x="174.162" y="766.188"/>
      <point x="343.997" y="766.188" type="curve" smooth="yes"/>
      <point x="427.272" y="766.188"/>
      <point x="489" y="692.102"/>
      <point x="489" y="661" type="curve" smooth="yes"/>
      <point x="489" y="643.487"/>
      <point x="473.964" y="618.073"/>
      <point x="439" y="618.073" type="curve" smooth="yes"/>
      <point x="374.188" y="618.073"/>
      <point x="402.242" y="730"/>
      <point x="332" y="730" type="curve" smooth="yes"/>
      <point x="266.192" y="730"/>
      <point x="244.409" y="648.157"/>
      <point x="242.269" y="575.218" type="curve" smooth="yes"/>
    </contour>
  </outline>
</glyph>
<glyph name="uni0180" format="1">
  <advance width="641"/>
  <unicode hex="0180"/>
  <outline>
    <contour>
      <point x="47" y="565" type="line"/>
      <point x="41" y="567"/>
      <point x="38" y="586"/>
      <point x="38" y="594" type="curve" smooth="yes"/>
      <point x="38" y="602"/>
      <point x="41" y="619"/>
      <point x="47" y="619" type="curve"/>
      <point x="350" y="619" type="line"/>
      <point x="354" y="619"/>
      <point x="356" y="598"/>
      <point x="356" y="589" type="curve" smooth="yes"/>
      <point x="356" y="582"/>
      <point x="355" y="565"/>
      <point x="350" y="565" type="curve"/>
    </contour>
    <component base="b"/>
  </outline>
</glyph>
<glyph name="uni01E5" format="1">
  <advance width="517"/>
  <unicode hex="01E5"/>
  <outline>
    <contour>
      <point x="538.775" y="-129" type="curve" smooth="yes"/>
      <point x="-27" y="-129" type="line"/>
      <point x="-25.0498" y="-120.444" type="line"/>
      <point x="-25.0498" y="-120.444"/>
      <point x="-19.4043" y="-75"/>
      <point x="1.77539" y="-75" type="curve" smooth="yes"/>
      <point x="565.907" y="-75" type="line"/>
      <point x="565.907" y="-82.7158" type="line" smooth="yes"/>
      <point x="565.907" y="-86.9805"/>
      <point x="562.152" y="-129"/>
    </contour>
    <component base="g"/>
  </outline>
</glyph>
<glyph name="breve" format="1">
  <advance width="308"/>
  <unicode hex="02D8"/>
  <outline>
    <contour>
      <point x="150.242" y="450.705" type="curve" smooth="yes"/>
      <point x="189.407" y="450.705"/>
      <point x="195.206" y="467.947"/>
      <point x="214.783" y="497.312" type="curve" smooth="yes"/>
      <point x="218.319" y="502.615"/>
      <point x="223.557" y="510.161"/>
      <point x="233.567" y="510.161" type="curve" smooth="yes"/>
      <point x="248.728" y="510.161"/>
      <point x="257.157" y="494.332"/>
      <point x="257.157" y="484.979" type="curve" smooth="yes"/>
      <point x="257.157" y="443.951"/>
      <point x="209.011" y="376.282"/>
      <point x="144.011" y="376.282" type="curve" smooth="yes"/>
      <point x="87.3994" y="376.282"/>
      <point x="53.7275" y="437.038"/>
      <point x="53.7275" y="481.864" type="curve" smooth="yes"/>
      <point x="53.7275" y="493.074"/>
      <point x="65.2744" y="511.006"/>
      <point x="79.375" y="511.006" type="curve" smooth="yes"/>
      <point x="97.4053" y="511.006"/>
      <point x="102.701" y="489.007"/>
      <point x="106.479" y="481.99" type="curve" smooth="yes"/>
      <point x="113.812" y="468.373"/>
      <point x="122.567" y="450.705"/>
    </contour>
  </outline>
</glyph>
<glyph name="acutecomb" format="1">
  <advance width="285"/>
  <unicode hex="0301"/>
  <outline>
    <contour>
      <point x="205.247" y="659.022" type="curve" smooth="yes"/>
      <point x="188.809" y="642.585"/>
      <point x="124.114" y="606.498"/>
      <point x="71.625" y="571.191" type="curve" smooth="yes"/>
      <point x="69.7559" y="569.935" type="line"/>
      <point x="36.3469" y="570.644" type="line"/>
      <point x="43.7211" y="581.247" type="line" smooth="yes"/>
      <point x="79.6929" y="632.967"/>
      <point x="132.9" y="734.19"/>
      <point x="149.491" y="750.78" type="curve"/>
      <point x="159.477" y="761.858"/>
      <point x="178.979" y="765.905"/>
      <point x="185.749" y="765.905" type="curve" smooth="yes"/>
      <point x="208.104" y="765.905"/>
      <point x="240.092" y="737.659"/>
      <point x="240.092" y="712.074" type="curve" smooth="yes"/>
      <point x="240.092" y="691.893"/>
      <point x="216.914" y="670.689"/>
    </contour>
  </outline>
</glyph>
<glyph name="tildecomb" format="1">
  <advance width="469"/>
  <unicode hex="0303"/>
  <outline>
    <contour>
      <point x="161.383" y="600.336" type="curve" smooth="yes"/>
      <point x="235.419" y="600.336"/>
      <point x="249.481" y="551.647"/>
      <point x="314.15" y="551.647" type="curve" smooth="yes"/>
      <point x="362.08" y="551.647"/>
      <point x="401.207" y="585.902"/>
      <point x="418.838" y="585.902" type="curve" smooth="yes"/>
      <point x="425.702" y="585.902"/>
      <point x="436.36" y="581.733"/>
      <point x="436.36" y="570.331" type="curve" smooth="yes"/>
      <point x="436.36" y="541.541"/>
      <point x="367.635" y="467.031"/>
      <point x="305.471" y="467.031" type="curve" smooth="yes"/>
      <point x="231.004" y="467.031"/>
      <point x="222.609" y="512.327"/>
      <point x="162.043" y="512.327" type="curve" smooth="yes"/>
      <point x="124.412" y="512.327"/>
      <point x="72.9707" y="478.77"/>
      <point x="55.6943" y="478.77" type="curve" smooth="yes"/>
      <point x="45.375" y="478.77"/>
      <point x="38.2021" y="487.739"/>
      <point x="38.2021" y="497.715" type="curve" smooth="yes"/>
      <point x="38.2021" y="512.228"/>
      <point x="103.371" y="600.336"/>
    </contour>
  </outline>
</glyph>
<glyph name="uni0306" format="1">
  <advance width="271"/>
  <unicode hex="0306"/>
  <outline>
    <contour>
      <point x="129.004" y="498.95" type="curve" smooth="yes"/>
      <point x="104.116" y="498.95"/>
      <point x="96.261" y="481.276"/>
      <point x="89.667" y="469.031" type="curve" smooth="yes"/>
      <point x="86.271" y="462.725"/>
      <point x="81.5106" y="442.95"/>
      <point x="65.3037" y="442.95" type="curve" smooth="yes"/>
      <point x="52.6285" y="442.95"/>
      <point x="46.7441" y="454.574"/>
      <point x="46.7441" y="464.65" type="curve" smooth="yes"/>
      <point x="46.7441" y="504.945"/>
      <point x="72.5158" y="564.05"/>
      <point x="123.403" y="564.05" type="curve" smooth="yes"/>
      <point x="181.846" y="564.05"/>
      <point x="220.613" y="498.647"/>
      <point x="220.613" y="461.85" type="curve" smooth="yes"/>
      <point x="220.613" y="455.24"/>
      <point x="217.531" y="443.709"/>
      <point x="203.903" y="443.709" type="curve" smooth="yes"/>
      <point x="194.905" y="443.709"/>
      <point x="190.197" y="450.492"/>
      <point x="187.018" y="455.26" type="curve" smooth="yes"/>
      <point x="169.422" y="481.655"/>
      <point x="164.209" y="498.95"/>
    </contour>
  </outline>
</glyph>
<glyph name="uni0328" format="1">
  <advance width="0"/>
  <unicode hex="0328"/>
  <outline>
    <contour>
      <point x="104.856" y="60.6113" type="curve" smooth="yes"/>
      <point x="123.565" y="60.6113"/>
      <point x="130.263" y="73.0517"/>
      <point x="137.143" y="80.4232" type="curve" smooth="yes"/>
      <point x="140.511" y="84.0332"/>
      <point x="145.236" y="87.1797"/>
      <point x="151.38" y="87.1797" type="curve" smooth="yes"/>
      <point x="164.387" y="87.1797"/>
      <point x="164.529" y="73.1283"/>
      <point x="164.529" y="69.54" type="curve" smooth="yes"/>
      <point x="164.529" y="44.2268"/>
      <point x="116.574" y="6.61328"/>
      <point x="84.5" y="6.61328" type="curve" smooth="yes"/>
      <point x="39.2749" y="6.61328"/>
      <point x="17.2188" y="35.9038"/>
      <point x="17.2188" y="70.6797" type="curve" smooth="yes"/>
      <point x="17.2188" y="109.056"/>
      <point x="43.9421" y="153.797"/>
      <point x="90.8695" y="177.261" type="curve" smooth="yes"/>
      <point x="92.3475" y="178" type="line"/>
      <point x="141.772" y="178" type="line"/>
      <point x="120.438" y="165.02" type="line" smooth="yes"/>
      <point x="88.016" y="145.293"/>
      <point x="77.0605" y="113.992"/>
      <point x="77.0605" y="93.4795" type="curve" smooth="yes"/>
      <point x="77.0605" y="73.5516"/>
      <point x="87.7006" y="60.6113"/>
    </contour>
    <contour>
      <point x="115.28" y="168.72" type="move" name="_Anchor-1"/>
    </contour>
  </outline>
</glyph>
<glyph name="uni0330" format="1">
  <advance width="399"/>
  <unicode hex="0330"/>
  <outline>
    <contour>
      <point x="138.405" y="122.669" type="curve" smooth="yes"/>
      <point x="198.112" y="122.669"/>
      <point x="209.453" y="76.8184"/>
      <point x="261.605" y="76.8184" type="curve" smooth="yes"/>
      <point x="300.258" y="76.8184"/>
      <point x="328.586" y="111.393"/>
      <point x="342.805" y="111.393" type="curve" smooth="yes"/>
      <point x="348.34" y="111.393"/>
      <point x="356.936" y="108.135"/>
      <point x="356.936" y="99.2275" type="curve" smooth="yes"/>
      <point x="356.936" y="76.735"/>
      <point x="304.738" y="16.1807"/>
      <point x="254.605" y="16.1807" type="curve" smooth="yes"/>
      <point x="194.551" y="16.1807"/>
      <point x="183.75" y="62.5059"/>
      <point x="134.905" y="62.5059" type="curve" smooth="yes"/>
      <point x="104.558" y="62.5059"/>
      <point x="71.1374" y="34.7266"/>
      <point x="57.2051" y="34.7266" type="curve" smooth="yes"/>
      <point x="48.8833" y="34.7266"/>
      <point x="43.0986" y="41.7341"/>
      <point x="43.0986" y="49.5273" type="curve" smooth="yes"/>
      <point x="43.0986" y="60.8655"/>
      <point x="91.6221" y="122.669"/>
    </contour>
  </outline>
</glyph>
<glyph name="quotedblbase" format="1">
  <advance width="401"/>
  <unicode hex="201E"/>
  <outline>
    <contour>
      <point x="42.6348" y="59.2891" type="curve" smooth="yes"/>
      <point x="42.6348" y="92.2781"/>
      <point x="67.6428" y="117.662"/>
      <point x="103.735" y="117.662" type="curve" smooth="yes"/>
      <point x="132.562" y="117.662"/>
      <point x="164.284" y="99.6399"/>
      <point x="171.365" y="65.9289" type="curve" smooth="yes"/>
      <point x="175.034" y="48.4635"/>
      <point x="176.744" y="31.8004"/>
      <point x="176.744" y="16.042" type="curve" smooth="yes"/>
      <point x="176.744" y="-72.316"/>
      <point x="122.802" y="-131.823"/>
      <point x="62.5723" y="-144.475" type="curve" smooth="yes"/>
      <point x="54.2042" y="-146.232" type="line"/>
      <point x="53.0066" y="-137.766" type="line"/>
      <point x="49.616" y="-113.796" type="line"/>
      <point x="48.5677" y="-106.385" type="line"/>
      <point x="55.8924" y="-104.847" type="line" smooth="yes"/>
      <point x="93.966" y="-96.8484"/>
      <point x="111.349" y="-52.4551"/>
      <point x="111.349" y="-22.4854" type="curve" smooth="yes"/>
      <point x="111.349" y="-18.1261"/>
      <point x="110.965" y="-14.2269"/>
      <point x="110.304" y="-11.08" type="curve" smooth="yes"/>
      <point x="107.625" y="1.67215"/>
      <point x="42.6348" y="5.52654"/>
    </contour>
    <contour>
      <point x="234.31" y="59.0107" type="curve" smooth="yes"/>
      <point x="234.31" y="91.9782"/>
      <point x="259.351" y="117.373"/>
      <point x="295.467" y="117.373" type="curve" smooth="yes"/>
      <point x="324.195" y="117.373"/>
      <point x="355.791" y="99.5126"/>
      <point x="363.008" y="65.9667" type="curve" smooth="yes"/>
      <point x="366.845" y="48.1301"/>
      <point x="368.63" y="31.1229"/>
      <point x="368.63" y="15.0547" type="curve" smooth="yes"/>
      <point x="368.63" y="-72.7259"/>
      <point x="315.162" y="-132.069"/>
      <point x="255.234" y="-144.961" type="curve" smooth="yes"/>
      <point x="246.874" y="-146.759" type="line"/>
      <point x="245.636" y="-138.298" type="line"/>
      <point x="242.131" y="-114.345" type="line"/>
      <point x="241.048" y="-106.939" type="line"/>
      <point x="248.364" y="-105.365" type="line" smooth="yes"/>
      <point x="286.232" y="-97.219"/>
      <point x="303.423" y="-53.1014"/>
      <point x="303.423" y="-23.1064" type="curve" smooth="yes"/>
      <point x="303.423" y="-18.5991"/>
      <point x="303.017" y="-14.5688"/>
      <point x="302.321" y="-11.3366" type="curve" smooth="yes"/>
      <point x="299.584" y="1.39176"/>
      <point x="234.31" y="5.02527"/>
    </contour>
  </outline>
</glyph>
<glyph name="uni201F" format="1">
  <advance width="422"/>
  <unicode hex="201F"/>
  <outline>
    <contour>
      <point x="306.762" y="775.15" type="curve" smooth="yes"/>
      <point x="309.914" y="774.486" type="line" smooth="yes"/>
      <point x="336.843" y="768.805"/>
      <point x="354.162" y="745.113"/>
      <point x="354.162" y="718.18" type="curve" smooth="yes"/>
      <point x="354.162" y="713.722"/>
      <point x="353.694" y="709.176"/>
      <point x="352.73" y="704.609" type="curve" smooth="yes"/>
      <point x="343.546" y="661.071"/>
      <point x="289.195" y="660.908"/>
      <point x="286.433" y="647.817" type="curve" smooth="yes"/>
      <point x="285.766" y="644.656"/>
      <point x="285.379" y="640.733"/>
      <point x="285.379" y="636.348" type="curve" smooth="yes"/>
      <point x="285.379" y="606.374"/>
      <point x="302.728" y="562.028"/>
      <point x="340.766" y="554.005" type="curve" smooth="yes"/>
      <point x="348.09" y="552.46" type="line"/>
      <point x="347.035" y="545.05" type="line"/>
      <point x="343.624" y="521.082" type="line"/>
      <point x="342.419" y="512.616" type="line"/>
      <point x="334.053" y="514.381" type="line" smooth="yes"/>
      <point x="273.876" y="527.075"/>
      <point x="220.016" y="586.554"/>
      <point x="220.016" y="674.812" type="curve" smooth="yes"/>
      <point x="220.016" y="690.624"/>
      <point x="221.739" y="707.347"/>
      <point x="225.437" y="724.877" type="curve" smooth="yes"/>
      <point x="232.542" y="758.559"/>
      <point x="264.241" y="776.553"/>
      <point x="293.051" y="776.553" type="curve" smooth="yes"/>
      <point x="297.678" y="776.553"/>
      <point x="302.278" y="776.096"/>
    </contour>
    <contour>
      <point x="115.297" y="774.89" type="curve" smooth="yes"/>
      <point x="118.444" y="774.213" type="line" smooth="yes"/>
      <point x="145.276" y="768.455"/>
      <point x="162.494" y="744.818"/>
      <point x="162.494" y="717.978" type="curve" smooth="yes"/>
      <point x="162.494" y="713.448"/>
      <point x="162.009" y="708.827"/>
      <point x="161.013" y="704.186" type="curve" smooth="yes"/>
      <point x="151.674" y="660.68"/>
      <point x="97.3214" y="660.712"/>
      <point x="94.5132" y="647.629" type="curve" smooth="yes"/>
      <point x="93.8214" y="644.406"/>
      <point x="93.4179" y="640.389"/>
      <point x="93.4179" y="635.895" type="curve" smooth="yes"/>
      <point x="93.4179" y="605.902"/>
      <point x="110.627" y="561.757"/>
      <point x="148.514" y="553.626" type="curve" smooth="yes"/>
      <point x="155.831" y="552.055" type="line"/>
      <point x="154.751" y="544.649" type="line"/>
      <point x="151.257" y="520.693" type="line"/>
      <point x="150.023" y="512.231" type="line"/>
      <point x="141.662" y="514.026" type="line" smooth="yes"/>
      <point x="81.7069" y="526.895"/>
      <point x="28.1931" y="586.254"/>
      <point x="28.1931" y="674.089" type="curve" smooth="yes"/>
      <point x="28.1931" y="690.128"/>
      <point x="29.9715" y="707.103"/>
      <point x="33.7924" y="724.904" type="curve" smooth="yes"/>
      <point x="40.996" y="758.466"/>
      <point x="72.6047" y="776.342"/>
      <point x="101.342" y="776.342" type="curve" smooth="yes"/>
      <point x="106.052" y="776.342"/>
      <point x="110.737" y="775.869"/>
    </contour>
  </outline>
</glyph>
<glyph name="bullet" format="1">
  <advance width="512"/>
  <unicode hex="2022"/>
  <outline>
    <contour>
      <point x="33" y="296" type="curve" smooth="yes"/>
      <point x="33" y="346"/>
      <point x="73" y="386"/>
      <point x="123" y="386" type="curve" smooth="yes"/>
      <point x="173" y="386"/>
      <point x="213" y="346"/>
      <point x="213" y="296" type="curve" smooth="yes"/>
      <point x="213" y="246"/>
      <point x="173" y="206"/>
      <point x="123" y="206" type="curve" smooth="yes"/>
      <point x="73" y="206"/>
      <point x="33" y="246"/>
    </contour>
  </outline>
</glyph>
<glyph name="uni20BA" format="1">
  <advance width="623"/>
  <unicode hex="20BA"/>
  <outline>
    <contour>
      <point x="182.358" y="507.778" type="curve" smooth="yes"/>
      <point x="182.358" y="468.24"/>
      <point x="182.358" y="469.546"/>
      <point x="182.358" y="445.713" type="curve" smooth="yes"/>
      <point x="60.4814" y="402.652" type="line" smooth="yes"/>
      <point x="60.4814" y="394.524"/>
      <point x="60.4814" y="372.465"/>
      <point x="60.4814" y="346.457" type="curve"/>
      <point x="63.1904" y="347"/>
      <point x="66.3057" y="347.812"/>
      <point x="69.8271" y="348.898" type="curve" smooth="yes"/>
      <point x="73.3467" y="349.979"/>
      <point x="75.1074" y="350.521"/>
      <point x="75.1074" y="350.521" type="curve"/>
      <point x="139.3" y="374.087" type="line" smooth="yes"/>
      <point x="142.008" y="374.631"/>
      <point x="148.368" y="376.797"/>
      <point x="158.395" y="380.585" type="curve" smooth="yes"/>
      <point x="168.413" y="384.382"/>
      <point x="176.403" y="387.626"/>
      <point x="182.358" y="390.336" type="curve"/>
      <point x="182.358" y="374.631"/>
      <point x="182.358" y="365.147"/>
      <point x="182.358" y="361.895" type="curve" smooth="yes"/>
      <point x="60.4814" y="318.023" type="line" smooth="yes"/>
      <point x="60.4814" y="300.145"/>
      <point x="60.4814" y="280.085"/>
      <point x="60.4814" y="263.828" type="curve" smooth="yes"/>
      <point x="171.797" y="301.644" type="line" smooth="yes"/>
      <point x="178.838" y="304.353"/>
      <point x="182.358" y="305.707"/>
      <point x="182.358" y="305.707" type="curve"/>
      <point x="182.358" y="269.957"/>
      <point x="182.358" y="223.871"/>
      <point x="182.358" y="153.45" type="curve" smooth="yes"/>
      <point x="182.358" y="83.0361"/>
      <point x="183.358" y="30.2178"/>
      <point x="183.358" y="-4.98828" type="curve"/>
      <point x="279.802" y="-14.9307"/>
      <point x="413.939" y="12.7979"/>
      <point x="474.481" y="64.3115" type="curve" smooth="yes"/>
      <point x="543.701" y="123.208"/>
      <point x="583" y="213.195"/>
      <point x="583" y="313.519" type="curve"/>
      <point x="539.666" y="313.519"/>
      <point x="503.999" y="313.519"/>
      <point x="503.999" y="313.519" type="curve"/>
      <point x="503.999" y="168.78"/>
      <point x="414.914" y="59.5195"/>
      <point x="290.549" y="44.0137" type="curve"/>
      <point x="290.549" y="44.0137"/>
      <point x="290.549" y="44.2812"/>
      <point x="290.549" y="44.8252" type="curve" smooth="yes"/>
      <point x="290.549" y="45.3682"/>
      <point x="290.549" y="45.6367"/>
      <point x="290.549" y="45.6367" type="curve" smooth="yes"/>
      <point x="290.549" y="78.6777"/>
      <point x="290.549" y="140.316"/>
      <point x="290.549" y="198.545" type="curve" smooth="yes"/>
      <point x="290.549" y="256.781"/>
      <point x="290.549" y="299.421"/>
      <point x="290.549" y="332.462" type="curve" smooth="yes"/>
      <point x="292.172" y="333.541"/>
      <point x="295.07" y="334.628"/>
      <point x="297.236" y="335.707" type="curve" smooth="yes"/>
      <point x="483.936" y="403.15" type="line" smooth="yes"/>
      <point x="485.014" y="403.15"/>
      <point x="485.557" y="404.229"/>
      <point x="485.557" y="406.396" type="curve" smooth="yes"/>
      <point x="485.557" y="409.106"/>
      <point x="485.557" y="422.096"/>
      <point x="485.557" y="435.367" type="curve" smooth="yes"/>
      <point x="485.557" y="448.639"/>
      <point x="485.557" y="456.904"/>
      <point x="485.557" y="460.149" type="curve" smooth="yes"/>
      <point x="396.178" y="426.842" type="line"/>
      <point x="290.549" y="389.46" type="line" smooth="yes"/>
      <point x="290.549" y="391.626"/>
      <point x="290.549" y="396.234"/>
      <point x="290.549" y="403.275" type="curve" smooth="yes"/>
      <point x="290.549" y="410.316"/>
      <point x="290.549" y="414.924"/>
      <point x="290.549" y="417.09" type="curve" smooth="yes"/>
      <point x="485.557" y="487.779" type="line" smooth="yes"/>
      <point x="485.557" y="502.941"/>
      <point x="485.557" y="525.009"/>
      <point x="485.557" y="543.967" type="curve" smooth="yes"/>
      <point x="290.549" y="473.278" type="line" smooth="yes"/>
      <point x="290.549" y="479.232"/>
      <point x="290.549" y="474.861"/>
      <point x="290.549" y="524.152" type="curve" smooth="yes"/>
      <point x="290.549" y="555.721"/>
      <point x="290.556" y="587.28"/>
      <point x="290.56" y="618.845" type="curve" smooth="yes"/>
      <point x="291" y="631"/>
      <point x="289.079" y="636.081"/>
      <point x="284.511" y="636.081" type="curve" smooth="yes"/>
      <point x="283.66" y="636.081"/>
      <point x="282.701" y="635.985"/>
      <point x="281.623" y="635.697" type="curve" smooth="yes"/>
      <point x="153.92" y="606.5" type="line"/>
      <point x="153.92" y="592.916" type="line"/>
      <point x="158.085" y="592.916"/>
      <point x="158.066" y="591.505"/>
      <point x="163.391" y="589.615" type="curve" smooth="yes"/>
      <point x="176.319" y="585.026"/>
      <point x="183.047" y="572.999"/>
      <point x="182.737" y="554.57" type="curve" smooth="yes"/>
      <point x="182.479" y="539.18"/>
      <point x="182.358" y="523.574"/>
    </contour>
  </outline>
</glyph>
<glyph name="uni2120" format="1">
  <advance width="421"/>
  <unicode hex="2120"/>
  <outline>
    <contour>
      <point x="46.6338" y="585.178" type="curve"/>
      <point x="48.1875" y="571.635"/>
      <point x="64.5771" y="543.854"/>
      <point x="90.1807" y="543.854" type="curve" smooth="yes"/>
      <point x="110.486" y="543.854"/>
      <point x="124.775" y="556.865"/>
      <point x="124.775" y="576.752" type="curve" smooth="yes"/>
      <point x="124.775" y="596.977"/>
      <point x="106.731" y="609.756"/>
      <point x="82.665" y="623.622" type="curve" smooth="yes"/>
      <point x="57.3154" y="638.227"/>
      <point x="31.1074" y="659.139"/>
      <point x="31.1074" y="681.697" type="curve" smooth="yes"/>
      <point x="31.1074" y="706.728"/>
      <point x="58.8076" y="731.93"/>
      <point x="102.44" y="731.93" type="curve" smooth="yes"/>
      <point x="126.889" y="731.93"/>
      <point x="153.302" y="724.263"/>
      <point x="153.302" y="716.537" type="curve" smooth="yes"/>
      <point x="153.302" y="712.905"/>
      <point x="147.392" y="689.728"/>
      <point x="141.995" y="689.728" type="curve" smooth="yes"/>
      <point x="134.424" y="689.728"/>
      <point x="131.476" y="719.237"/>
      <point x="102.799" y="719.237" type="curve" smooth="yes"/>
      <point x="84.0586" y="719.237"/>
      <point x="75.1299" y="702.227"/>
      <point x="75.1299" y="688.793" type="curve" smooth="yes"/>
      <point x="75.1299" y="670.163"/>
      <point x="91.5752" y="659.161"/>
      <point x="115.293" y="645.832" type="curve" smooth="yes"/>
      <point x="144.163" y="629.262"/>
      <point x="166.985" y="612.307"/>
      <point x="166.985" y="587.7" type="curve" smooth="yes"/>
      <point x="166.985" y="564.741"/>
      <point x="154.755" y="549.811"/>
      <point x="141.201" y="539.48" type="curve" smooth="yes"/>
      <point x="128.416" y="529.736"/>
      <point x="106.611" y="526.454"/>
      <point x="92.5312" y="526.454" type="curve" smooth="yes"/>
      <point x="50.9824" y="526.454"/>
      <point x="26.127" y="549.831"/>
      <point x="26.127" y="562.681" type="curve" smooth="yes"/>
      <point x="26.127" y="569.148"/>
      <point x="36.4219" y="588.097"/>
      <point x="43.0693" y="588.097" type="curve" smooth="yes"/>
      <point x="43.9844" y="588.097"/>
      <point x="46.376" y="587.653"/>
    </contour>
    <contour>
      <point x="398.129" y="729.998" type="line"/>
      <point x="398.129" y="729.998"/>
      <point x="399.018" y="728.651"/>
      <point x="399.018" y="726.267" type="curve" smooth="yes"/>
      <point x="399.018" y="724.087"/>
      <point x="398.094" y="722.096"/>
      <point x="398.094" y="722.096" type="curve"/>
      <point x="396.244" y="722.102" type="line" smooth="yes"/>
      <point x="389.919" y="722.096"/>
      <point x="383.925" y="717.824"/>
      <point x="383.898" y="712.796" type="curve" smooth="yes"/>
      <point x="383.678" y="696.154"/>
      <point x="383.018" y="682.334"/>
      <point x="383.018" y="665.829" type="curve" smooth="yes"/>
      <point x="383.018" y="654.167"/>
      <point x="382.999" y="642.558"/>
      <point x="382.999" y="630.987" type="curve" smooth="yes"/>
      <point x="382.999" y="602.487"/>
      <point x="383.112" y="576.942"/>
      <point x="383.898" y="548.667" type="curve" smooth="yes"/>
      <point x="384.004" y="543.643"/>
      <point x="389.911" y="539.155"/>
      <point x="396.246" y="539.077" type="curve" smooth="yes"/>
      <point x="398.13" y="539.054" type="line"/>
      <point x="398.13" y="539.054"/>
      <point x="399.018" y="537.626"/>
      <point x="399.018" y="535.24" type="curve" smooth="yes"/>
      <point x="399.018" y="533.061"/>
      <point x="398.094" y="531.07"/>
      <point x="398.094" y="531.07" type="curve"/>
      <point x="329.695" y="531.07" type="line"/>
      <point x="329.695" y="531.07"/>
      <point x="328.439" y="532.855"/>
      <point x="328.439" y="535.24" type="curve" smooth="yes"/>
      <point x="328.439" y="537.421"/>
      <point x="329.695" y="539.245"/>
      <point x="329.695" y="539.245" type="curve"/>
      <point x="331.872" y="539.23" type="line" smooth="yes"/>
      <point x="338.415" y="539.245"/>
      <point x="343.878" y="543.843"/>
      <point x="343.956" y="548.953" type="curve" smooth="yes"/>
      <point x="344.224" y="566.454"/>
      <point x="344.607" y="581.223"/>
      <point x="344.607" y="598.651" type="curve" smooth="yes"/>
      <point x="344.607" y="620.704"/>
      <point x="344.61" y="628.615"/>
      <point x="344.61" y="650.972" type="curve" smooth="yes"/>
      <point x="344.61" y="659.637"/>
      <point x="344.592" y="668.318"/>
      <point x="344.545" y="676.675" type="curve"/>
      <point x="291.083" y="577.077" type="line"/>
      <point x="290.206" y="575.398"/>
      <point x="287.562" y="571.476"/>
      <point x="284.729" y="571.476" type="curve" smooth="yes"/>
      <point x="282.768" y="571.476"/>
      <point x="281.378" y="572.969"/>
      <point x="280.407" y="574.943" type="curve" smooth="yes"/>
      <point x="280.407" y="574.943"/>
      <point x="240.988" y="652.507"/>
      <point x="227.547" y="680.632" type="curve"/>
      <point x="222.626" y="548.802" type="line"/>
      <point x="223.099" y="543.716"/>
      <point x="228.377" y="539.547"/>
      <point x="234.967" y="539.23" type="curve" smooth="yes"/>
      <point x="236.879" y="539.139" type="line"/>
      <point x="236.879" y="539.139"/>
      <point x="237.968" y="537.626"/>
      <point x="237.968" y="535.24" type="curve" smooth="yes"/>
      <point x="237.968" y="533.061"/>
      <point x="237.043" y="531.07"/>
      <point x="237.043" y="531.07" type="curve"/>
      <point x="180.542" y="531.07" type="line"/>
      <point x="180.542" y="531.07"/>
      <point x="179.286" y="532.855"/>
      <point x="179.286" y="535.24" type="curve" smooth="yes"/>
      <point x="179.286" y="537.421"/>
      <point x="180.814" y="539.245"/>
      <point x="180.814" y="539.245" type="curve"/>
      <point x="182.772" y="539.35" type="line" smooth="yes"/>
      <point x="189.535" y="539.79"/>
      <point x="194.633" y="543.647"/>
      <point x="194.855" y="549.243" type="curve" smooth="yes"/>
      <point x="197.067" y="604.813"/>
      <point x="199.005" y="655.398"/>
      <point x="200.309" y="711.763" type="curve"/>
      <point x="200.31" y="711.839"/>
      <point x="200.31" y="711.956"/>
      <point x="200.31" y="712.034" type="curve" smooth="yes"/>
      <point x="200.31" y="717.238"/>
      <point x="194.44" y="722.096"/>
      <point x="187.951" y="722.103" type="curve" smooth="yes"/>
      <point x="185.992" y="722.096" type="line"/>
      <point x="185.992" y="722.096"/>
      <point x="184.736" y="723.882"/>
      <point x="184.736" y="726.267" type="curve" smooth="yes"/>
      <point x="184.736" y="728.446"/>
      <point x="185.992" y="729.999"/>
      <point x="185.992" y="729.999" type="curve"/>
      <point x="239.943" y="729.999" type="line"/>
      <point x="293.372" y="624.336" type="line"/>
      <point x="348.211" y="729.998" type="line"/>
    </contour>
  </outline>
</glyph>
<glyph name="trademark" format="1">
  <advance width="503"/>
  <unicode hex="2122"/>
  <outline>
    <contour>
      <point x="445.129" y="729.998" type="line"/>
      <point x="445.129" y="729.998"/>
      <point x="446.018" y="728.651"/>
      <point x="446.018" y="726.267" type="curve" smooth="yes"/>
      <point x="446.018" y="724.087"/>
      <point x="445.094" y="722.096"/>
      <point x="445.094" y="722.096" type="curve"/>
      <point x="443.244" y="722.102" type="line" smooth="yes"/>
      <point x="436.919" y="722.096"/>
      <point x="430.925" y="717.824"/>
      <point x="430.898" y="712.796" type="curve" smooth="yes"/>
      <point x="430.678" y="696.154"/>
      <point x="430.018" y="682.334"/>
      <point x="430.018" y="665.829" type="curve" smooth="yes"/>
      <point x="430.018" y="654.167"/>
      <point x="429.999" y="642.558"/>
      <point x="429.999" y="630.987" type="curve" smooth="yes"/>
      <point x="429.999" y="602.487"/>
      <point x="430.112" y="576.942"/>
      <point x="430.898" y="548.667" type="curve" smooth="yes"/>
      <point x="431.004" y="543.643"/>
      <point x="436.911" y="539.155"/>
      <point x="443.246" y="539.077" type="curve" smooth="yes"/>
      <point x="445.13" y="539.054" type="line"/>
      <point x="445.13" y="539.054"/>
      <point x="446.018" y="537.626"/>
      <point x="446.018" y="535.24" type="curve" smooth="yes"/>
      <point x="446.018" y="533.061"/>
      <point x="445.094" y="531.07"/>
      <point x="445.094" y="531.07" type="curve"/>
      <point x="376.695" y="531.07" type="line"/>
      <point x="376.695" y="531.07"/>
      <point x="375.439" y="532.855"/>
      <point x="375.439" y="535.24" type="curve" smooth="yes"/>
      <point x="375.439" y="537.421"/>
      <point x="376.695" y="539.245"/>
      <point x="376.695" y="539.245" type="curve"/>
      <point x="378.872" y="539.23" type="line" smooth="yes"/>
      <point x="385.415" y="539.245"/>
      <point x="390.878" y="543.843"/>
      <point x="390.956" y="548.953" type="curve" smooth="yes"/>
      <point x="391.224" y="566.454"/>
      <point x="391.607" y="581.223"/>
      <point x="391.607" y="598.651" type="curve" smooth="yes"/>
      <point x="391.607" y="620.704"/>
      <point x="391.61" y="628.615"/>
      <point x="391.61" y="650.972" type="curve" smooth="yes"/>
      <point x="391.61" y="659.637"/>
      <point x="391.592" y="668.318"/>
      <point x="391.545" y="676.675" type="curve"/>
      <point x="338.083" y="577.077" type="line"/>
      <point x="337.206" y="575.398"/>
      <point x="334.562" y="571.476"/>
      <point x="331.729" y="571.476" type="curve" smooth="yes"/>
      <point x="329.768" y="571.476"/>
      <point x="328.378" y="572.969"/>
      <point x="327.407" y="574.943" type="curve" smooth="yes"/>
      <point x="327.407" y="574.943"/>
      <point x="287.988" y="652.507"/>
      <point x="274.547" y="680.632" type="curve"/>
      <point x="269.626" y="548.802" type="line"/>
      <point x="270.099" y="543.716"/>
      <point x="275.377" y="539.547"/>
      <point x="281.967" y="539.23" type="curve" smooth="yes"/>
      <point x="283.879" y="539.139" type="line"/>
      <point x="283.879" y="539.139"/>
      <point x="284.968" y="537.626"/>
      <point x="284.968" y="535.24" type="curve" smooth="yes"/>
      <point x="284.968" y="533.061"/>
      <point x="284.043" y="531.07"/>
      <point x="284.043" y="531.07" type="curve"/>
      <point x="227.542" y="531.07" type="line"/>
      <point x="227.542" y="531.07"/>
      <point x="226.286" y="532.855"/>
      <point x="226.286" y="535.24" type="curve" smooth="yes"/>
      <point x="226.286" y="537.421"/>
      <point x="227.814" y="539.245"/>
      <point x="227.814" y="539.245" type="curve"/>
      <point x="229.772" y="539.35" type="line" smooth="yes"/>
      <point x="236.535" y="539.79"/>
      <point x="241.633" y="543.647"/>
      <point x="241.855" y="549.243" type="curve" smooth="yes"/>
      <point x="244.067" y="604.813"/>
      <point x="246.005" y="655.398"/>
      <point x="247.309" y="711.763" type="curve"/>
      <point x="247.31" y="711.839"/>
      <point x="247.31" y="711.956"/>
      <point x="247.31" y="712.034" type="curve" smooth="yes"/>
      <point x="247.31" y="717.238"/>
      <point x="241.44" y="722.096"/>
      <point x="234.951" y="722.103" type="curve" smooth="yes"/>
      <point x="232.992" y="722.096" type="line"/>
      <point x="232.992" y="722.096"/>
      <point x="231.736" y="723.882"/>
      <point x="231.736" y="726.267" type="curve" smooth="yes"/>
      <point x="231.736" y="728.446"/>
      <point x="232.992" y="729.999"/>
      <point x="232.992" y="729.999" type="curve"/>
      <point x="286.943" y="729.999" type="line"/>
      <point x="340.372" y="624.336" type="line"/>
      <point x="395.211" y="729.998" type="line"/>
    </contour>
    <contour>
      <point x="168.419" y="531.499" type="curve"/>
      <point x="97.2041" y="531.499" type="line"/>
      <point x="97.2041" y="531.499"/>
      <point x="95.9697" y="533.254"/>
      <point x="95.9697" y="535.598" type="curve" smooth="yes"/>
      <point x="95.9697" y="537.74"/>
      <point x="97.2041" y="539.265"/>
      <point x="97.2041" y="539.265" type="curve"/>
      <point x="99.0801" y="539.341" type="line" smooth="yes"/>
      <point x="102.39" y="539.383"/>
      <point x="103.641" y="539.63"/>
      <point x="106.111" y="540.956" type="curve" smooth="yes"/>
      <point x="109.904" y="542.992"/>
      <point x="110.868" y="546.24"/>
      <point x="110.899" y="548.653" type="curve" smooth="yes"/>
      <point x="111.273" y="566.002"/>
      <point x="111.671" y="602.341"/>
      <point x="111.671" y="619.661" type="curve" smooth="yes"/>
      <point x="111.671" y="656.822"/>
      <point x="111.341" y="667.59"/>
      <point x="111.272" y="704.875" type="curve" smooth="yes"/>
      <point x="111.272" y="709.103"/>
      <point x="109.692" y="712.195"/>
      <point x="106.747" y="712.618" type="curve" smooth="yes"/>
      <point x="105.205" y="712.84"/>
      <point x="102.153" y="712.966"/>
      <point x="98.4453" y="712.966" type="curve" smooth="yes"/>
      <point x="89.1191" y="712.966"/>
      <point x="78.8418" y="712.164"/>
      <point x="71.04" y="710.821" type="curve" smooth="yes"/>
      <point x="59.7266" y="708.844"/>
      <point x="54.9805" y="701.013"/>
      <point x="52.4707" y="687.58" type="curve"/>
      <point x="43.3779" y="687.586" type="line"/>
      <point x="48.542" y="726.309" type="line"/>
      <point x="48.5732" y="726.419" type="line" smooth="yes"/>
      <point x="49.0381" y="728.087"/>
      <point x="50.6787" y="728.58"/>
      <point x="51.7168" y="728.58" type="curve" smooth="yes"/>
      <point x="53.8398" y="728.58"/>
      <point x="56.4258" y="727.752"/>
      <point x="58.1602" y="727.727" type="curve" smooth="yes"/>
      <point x="68.0244" y="727.577"/>
      <point x="101.569" y="726.986"/>
      <point x="135.406" y="726.986" type="curve"/>
      <point x="165.107" y="727.254"/>
      <point x="187.195" y="727.724"/>
      <point x="211.236" y="728.259" type="curve" smooth="yes"/>
      <point x="212.106" y="728.278"/>
      <point x="216.036" y="729.068"/>
      <point x="217.83" y="729.068" type="curve" smooth="yes"/>
      <point x="219.157" y="729.068"/>
      <point x="220.141" y="728.893"/>
      <point x="220.141" y="725.884" type="curve"/>
      <point x="219.005" y="687.49" type="line"/>
      <point x="210.775" y="687.433" type="line"/>
      <point x="210.734" y="696.922"/>
      <point x="208.599" y="709.427"/>
      <point x="200.468" y="711.368" type="curve" smooth="yes"/>
      <point x="194.461" y="712.802"/>
      <point x="190.699" y="712.871"/>
      <point x="174.29" y="712.871" type="curve" smooth="yes"/>
      <point x="169.514" y="712.871"/>
      <point x="165.339" y="712.757"/>
      <point x="160.282" y="712.656" type="curve" smooth="yes"/>
      <point x="156.243" y="712.575"/>
      <point x="154.479" y="709.459"/>
      <point x="154.446" y="706.559" type="curve" smooth="yes"/>
      <point x="153.984" y="675.937"/>
      <point x="153.698" y="650.008"/>
      <point x="153.698" y="619.437" type="curve" smooth="yes"/>
      <point x="153.698" y="594.957"/>
      <point x="153.92" y="573.199"/>
      <point x="154.463" y="548.763" type="curve"/>
      <point x="154.496" y="546.205"/>
      <point x="156.646" y="542.143"/>
      <point x="160.963" y="540.482" type="curve" smooth="yes"/>
      <point x="162.861" y="539.753"/>
      <point x="164.479" y="539.368"/>
      <point x="166.606" y="539.341" type="curve" smooth="yes"/>
      <point x="168.258" y="539.16" type="line"/>
      <point x="168.258" y="539.16"/>
      <point x="169.327" y="537.941"/>
      <point x="169.327" y="535.598" type="curve" smooth="yes"/>
      <point x="169.327" y="533.455"/>
      <point x="168.419" y="531.499"/>
    </contour>
  </outline>
</glyph>
<glyph name="uniFB00" format="1">
  <advance width="764"/>
  <unicode hex="FB00"/>
  <outline>
    <contour>
      <point x="62.0381" y="30" type="line" smooth="yes"/>
      <point x="83.1514" y="30"/>
      <point x="88.8389" y="38.7822"/>
      <point x="91.0381" y="53.9844" type="curve"/>
      <point x="91.0381" y="456.254" type="line"/>
      <point x="54.4219" y="455.397"/>
      <point x="50.8037" y="453.192"/>
      <point x="36" y="451.083" type="curve"/>
      <point x="44.4229" y="501" type="line"/>
      <point x="91.0381" y="501" type="line"/>
      <point x="91.0381" y="505" type="line" smooth="yes"/>
      <point x="91.0381" y="514.436"/>
      <point x="92.0381" y="527.436"/>
      <point x="92.0381" y="536" type="curve" smooth="yes"/>
      <point x="92.0381" y="660.901"/>
      <point x="176.685" y="747.674"/>
      <point x="308.816" y="747.674" type="curve" smooth="yes"/>
      <point x="396.28" y="747.674"/>
      <point x="417.156" y="712.283"/>
      <point x="441.378" y="695.641" type="curve"/>
      <point x="486.171" y="750.587"/>
      <point x="575.011" y="767.633"/>
      <point x="639.744" y="767.633" type="curve" smooth="yes"/>
      <point x="686.08" y="767.633"/>
      <point x="745.075" y="752.219"/>
      <point x="782.27" y="679.65" type="curve" smooth="yes"/>
      <point x="784.689" y="674.929"/>
      <point x="787.956" y="671.059"/>
      <point x="787.956" y="666.189" type="curve" smooth="yes"/>
      <point x="787.956" y="646.318"/>
      <point x="766.608" y="616.783"/>
      <point x="744.038" y="616.783" type="curve" smooth="yes"/>
      <point x="672.144" y="616.783"/>
      <point x="700.018" y="731"/>
      <point x="633.038" y="731" type="curve" smooth="yes"/>
      <point x="574.256" y="731"/>
      <point x="536.038" y="668.788"/>
      <point x="536.038" y="556" type="curve" smooth="yes"/>
      <point x="536.038" y="549.627"/>
      <point x="536.038" y="541.627"/>
      <point x="536.038" y="534" type="curve" smooth="yes"/>
      <point x="536.038" y="505" type="line"/>
      <point x="632.038" y="505" type="line" smooth="yes"/>
      <point x="653.962" y="505"/>
      <point x="663.911" y="497.583"/>
      <point x="663.911" y="483.168" type="curve" smooth="yes"/>
      <point x="663.911" y="476.507"/>
      <point x="657.79" y="458.165"/>
      <point x="655.083" y="453" type="curve"/>
      <point x="650.038" y="453" type="line" smooth="yes"/>
      <point x="644.422" y="453"/>
      <point x="586.376" y="455.795"/>
      <point x="543.038" y="455.984" type="curve"/>
      <point x="543.038" y="59.9395" type="line"/>
      <point x="543.202" y="32.0049"/>
      <point x="566.907" y="29"/>
      <point x="572.038" y="29" type="curve" smooth="yes"/>
      <point x="579.038" y="29" type="line"/>
      <point x="579.038" y="0" type="line"/>
      <point x="368.038" y="0" type="line"/>
      <point x="368.038" y="29" type="line"/>
      <point x="375.038" y="29" type="line" smooth="yes"/>
      <point x="381.297" y="29"/>
      <point x="403.956" y="34.5879"/>
      <point x="404.038" y="59.9414" type="curve"/>
      <point x="404.038" y="456" type="line"/>
      <point x="229.038" y="456" type="line"/>
      <point x="229.038" y="53.9414" type="line"/>
      <point x="231.202" y="39.0059"/>
      <point x="237.906" y="30"/>
      <point x="258.038" y="30" type="curve" smooth="yes"/>
      <point x="265.038" y="30" type="line"/>
      <point x="265.038" y="0" type="line"/>
      <point x="55.0381" y="0" type="line"/>
      <point x="55.0381" y="30" type="line"/>
    </contour>
    <contour>
      <point x="221.038" y="505" type="line"/>
      <point x="404.038" y="505" type="line"/>
      <point x="404.038" y="530" type="line" smooth="yes"/>
      <point x="404.038" y="555.894"/>
      <point x="404.717" y="563.661"/>
      <point x="407.942" y="583.929" type="curve"/>
      <point x="403.225" y="615.691"/>
      <point x="369.663" y="712"/>
      <point x="320.995" y="712" type="curve" smooth="yes"/>
      <point x="235.336" y="712"/>
      <point x="221.038" y="631.857"/>
      <point x="221.038" y="531" type="curve" smooth="yes"/>
    </contour>
  </outline>
</glyph>
<glyph name="uniFB01" format="1">
  <advance width="620"/>
  <unicode hex="FB01"/>
  <outline>
    <contour>
      <point x="380.038" y="29" type="line" smooth="yes"/>
      <point x="394.296" y="29"/>
      <point x="407.955" y="42.585"/>
      <point x="408.038" y="56.9355" type="curve"/>
      <point x="409.038" y="443.678" type="line" smooth="yes"/>
      <point x="409.038" y="461.505"/>
      <point x="401.358" y="464"/>
      <point x="386.038" y="464" type="curve" smooth="yes"/>
      <point x="235.038" y="464" type="line"/>
      <point x="235.038" y="56.9355" type="line"/>
      <point x="235.203" y="38.002"/>
      <point x="245.768" y="29"/>
      <point x="264.038" y="29" type="curve" smooth="yes"/>
      <point x="271.038" y="29" type="line"/>
      <point x="271.038" y="0" type="line"/>
      <point x="60.0381" y="0" type="line"/>
      <point x="60.0381" y="29" type="line"/>
      <point x="67.0381" y="29" type="line" smooth="yes"/>
      <point x="85.3086" y="29"/>
      <point x="95.959" y="37.6074"/>
      <point x="96.0381" y="56.9805" type="curve"/>
      <point x="96.0381" y="456.269" type="line"/>
      <point x="58.4219" y="455.41"/>
      <point x="55.8047" y="453.207"/>
      <point x="41" y="451.099" type="curve"/>
      <point x="49.4229" y="501" type="line"/>
      <point x="96.0381" y="501" type="line"/>
      <point x="96.0381" y="536" type="line" smooth="yes"/>
      <point x="96.0381" y="545.436"/>
      <point x="97.0381" y="558.436"/>
      <point x="97.0381" y="567" type="curve" smooth="yes"/>
      <point x="97.0381" y="695.051"/>
      <point x="181.219" y="766.168"/>
      <point x="351.024" y="766.168" type="curve" smooth="yes"/>
      <point x="466.64" y="766.168"/>
      <point x="522.038" y="707.559"/>
      <point x="522.038" y="662" type="curve" smooth="yes"/>
      <point x="522.038" y="629.997"/>
      <point x="504.695" y="597"/>
      <point x="465.038" y="597" type="curve" smooth="yes"/>
      <point x="430.018" y="597"/>
      <point x="413.468" y="614.449"/>
      <point x="401.685" y="650.054" type="curve" smooth="yes"/>
      <point x="390.24" y="684.637"/>
      <point x="392.701" y="731"/>
      <point x="329.292" y="731" type="curve" smooth="yes"/>
      <point x="273.497" y="731"/>
      <point x="229.038" y="689.938"/>
      <point x="229.038" y="572" type="curve" smooth="yes"/>
      <point x="230.038" y="505" type="line"/>
      <point x="427.087" y="505" type="line"/>
      <point x="524.143" y="517.739" type="line"/>
      <point x="525.918" y="518.246"/>
      <point x="527.684" y="518.413"/>
      <point x="529.038" y="518.413" type="curve" smooth="yes"/>
      <point x="542.022" y="518.413"/>
      <point x="542.038" y="503.85"/>
      <point x="542.038" y="494.692" type="curve" smooth="yes"/>
      <point x="542.038" y="56.9922" type="line"/>
      <point x="542.198" y="42.0283"/>
      <point x="554.892" y="29"/>
      <point x="571.038" y="29" type="curve" smooth="yes"/>
      <point x="578.038" y="29" type="line"/>
      <point x="578.038" y="0" type="line"/>
      <point x="373.038" y="0" type="line"/>
      <point x="373.038" y="29" type="line"/>
    </contour>
  </outline>
</glyph>
<glyph name="uniFB02" format="1">
  <advance width="610"/>
  <unicode hex="FB02"/>
  <outline>
    <contour>
      <point x="61.7471" y="30" type="line" smooth="yes"/>
      <point x="80.7578" y="30"/>
      <point x="90.7471" y="39.5947"/>
      <point x="90.7471" y="53.5947" type="curve" smooth="yes"/>
      <point x="90.7471" y="455.275" type="line"/>
      <point x="52.7256" y="454.628"/>
      <point x="50.0508" y="452.961"/>
      <point x="36" y="451.403" type="curve"/>
      <point x="44.0088" y="500" type="line"/>
      <point x="90.7471" y="500" type="line"/>
      <point x="90.7471" y="530" type="line" smooth="yes"/>
      <point x="90.7471" y="539.436"/>
      <point x="91.7471" y="552.436"/>
      <point x="91.7471" y="561" type="curve" smooth="yes"/>
      <point x="91.7471" y="704.179"/>
      <point x="196" y="767.25"/>
      <point x="325.868" y="767.25" type="curve" smooth="yes"/>
      <point x="355.14" y="767.25"/>
      <point x="391.667" y="757.296"/>
      <point x="416.28" y="742.46" type="curve"/>
      <point x="517.79" y="768.721" type="line"/>
      <point x="519.704" y="769.268"/>
      <point x="521.357" y="769.413"/>
      <point x="522.747" y="769.413" type="curve" smooth="yes"/>
      <point x="535.731" y="769.413"/>
      <point x="535.747" y="754.424"/>
      <point x="535.747" y="745" type="curve" smooth="yes"/>
      <point x="535.747" y="56.1211" type="line"/>
      <point x="535.893" y="45.1348"/>
      <point x="549.071" y="29"/>
      <point x="564.747" y="29" type="curve" smooth="yes"/>
      <point x="571.747" y="29" type="line"/>
      <point x="571.747" y="0" type="line"/>
      <point x="366.092" y="0" type="line"/>
      <point x="366.092" y="29" type="line"/>
      <point x="373.655" y="29" type="line" smooth="yes"/>
      <point x="390.929" y="29"/>
      <point x="402.614" y="46.2119"/>
      <point x="402.747" y="59.0879" type="curve"/>
      <point x="402.747" y="629.206" type="line"/>
      <point x="373.806" y="650.698"/>
      <point x="382.896" y="731"/>
      <point x="322.958" y="731" type="curve" smooth="yes"/>
      <point x="250.034" y="731"/>
      <point x="222.463" y="646.857"/>
      <point x="222.463" y="566" type="curve" smooth="yes"/>
      <point x="222.463" y="505" type="line"/>
      <point x="296.08" y="505" type="line" smooth="yes"/>
      <point x="319.42" y="505"/>
      <point x="332.195" y="497.987"/>
      <point x="332.195" y="483.714" type="curve" smooth="yes"/>
      <point x="332.195" y="474.116"/>
      <point x="328.333" y="458.374"/>
      <point x="323.713" y="453" type="curve"/>
      <point x="318.359" y="453" type="line" smooth="yes"/>
      <point x="312.402" y="453"/>
      <point x="276.929" y="454.795"/>
      <point x="230.95" y="454.984" type="curve"/>
      <point x="229.747" y="53.9395" type="line"/>
      <point x="231.913" y="39.0059"/>
      <point x="238.616" y="30"/>
      <point x="258.747" y="30" type="curve" smooth="yes"/>
      <point x="265.747" y="30" type="line"/>
      <point x="265.747" y="0" type="line"/>
      <point x="54.7471" y="0" type="line"/>
      <point x="54.7471" y="30" type="line"/>
    </contour>
  </outline>
</glyph>
<glyph name="uniFB03" format="1">
  <advance width="908"/>
  <unicode hex="FB03"/>
  <outline>
    <contour>
      <point x="765.038" y="597" type="curve" smooth="yes"/>
      <point x="732.018" y="597"/>
      <point x="713.432" y="611.977"/>
      <point x="704.685" y="637.054" type="curve"/>
      <point x="686.829" y="676.535"/>
      <point x="696.701" y="731"/>
      <point x="624.292" y="731" type="curve" smooth="yes"/>
      <point x="558.497" y="731"/>
      <point x="527.038" y="667.938"/>
      <point x="527.038" y="571" type="curve" smooth="yes"/>
      <point x="528.038" y="505" type="line"/>
      <point x="724.087" y="505" type="line"/>
      <point x="822.143" y="517.739" type="line"/>
      <point x="823.918" y="518.246"/>
      <point x="825.684" y="518.413"/>
      <point x="827.038" y="518.413" type="curve" smooth="yes"/>
      <point x="840.022" y="518.413"/>
      <point x="840.038" y="503.85"/>
      <point x="840.038" y="494.692" type="curve" smooth="yes"/>
      <point x="840.038" y="55.3857" type="line"/>
      <point x="840.891" y="42.1709"/>
      <point x="853.055" y="29"/>
      <point x="869.038" y="29" type="curve" smooth="yes"/>
      <point x="876.038" y="29" type="line"/>
      <point x="876.038" y="0" type="line"/>
      <point x="671.038" y="0" type="line"/>
      <point x="671.038" y="29" type="line"/>
      <point x="678.038" y="29" type="line" smooth="yes"/>
      <point x="693.827" y="29"/>
      <point x="705.993" y="44.835"/>
      <point x="706.038" y="56.4004" type="curve"/>
      <point x="707.038" y="443" type="line" smooth="yes"/>
      <point x="707.038" y="461.338"/>
      <point x="699.532" y="464"/>
      <point x="684.038" y="464" type="curve" smooth="yes"/>
      <point x="533.038" y="464" type="line"/>
      <point x="533.038" y="53.4004" type="line"/>
      <point x="535.168" y="38.2158"/>
      <point x="541.635" y="29"/>
      <point x="562.038" y="29" type="curve" smooth="yes"/>
      <point x="569.038" y="29" type="line"/>
      <point x="569.038" y="0" type="line"/>
      <point x="358.038" y="0" type="line"/>
      <point x="358.038" y="29" type="line"/>
      <point x="365.038" y="29" type="line" smooth="yes"/>
      <point x="385.295" y="29"/>
      <point x="391.955" y="38.583"/>
      <point x="394.038" y="52.9316" type="curve"/>
      <point x="394.038" y="456" type="line"/>
      <point x="219.038" y="456" type="line"/>
      <point x="219.038" y="52.9316" type="line"/>
      <point x="221.203" y="38.001"/>
      <point x="227.909" y="29"/>
      <point x="248.038" y="29" type="curve" smooth="yes"/>
      <point x="255.038" y="29" type="line"/>
      <point x="255.038" y="0" type="line"/>
      <point x="45.0381" y="0" type="line"/>
      <point x="45.0381" y="29" type="line"/>
      <point x="52.0381" y="29" type="line" smooth="yes"/>
      <point x="72.3076" y="29"/>
      <point x="78.958" y="38.6055"/>
      <point x="81.0381" y="52.9766" type="curve"/>
      <point x="81.0381" y="457.279" type="line"/>
      <point x="43.4219" y="456.423"/>
      <point x="40.8037" y="454.22"/>
      <point x="26" y="452.111" type="curve"/>
      <point x="34.4229" y="501" type="line"/>
      <point x="81.0381" y="501" type="line"/>
      <point x="81.0381" y="514" type="line" smooth="yes"/>
      <point x="81.0381" y="523.436"/>
      <point x="82.0381" y="536.436"/>
      <point x="82.0381" y="545" type="curve" smooth="yes"/>
      <point x="82.0381" y="664.454"/>
      <point x="159.363" y="747.744"/>
      <point x="302.521" y="747.744" type="curve" smooth="yes"/>
      <point x="377.209" y="747.744"/>
      <point x="396.733" y="721.989"/>
      <point x="430.79" y="691.067" type="curve"/>
      <point x="462.082" y="734.982"/>
      <point x="576.578" y="766.168"/>
      <point x="656.023" y="766.168" type="curve" smooth="yes"/>
      <point x="750.299" y="766.168"/>
      <point x="820.038" y="715.179"/>
      <point x="820.038" y="662" type="curve" smooth="yes"/>
      <point x="820.038" y="632.997"/>
      <point x="803.695" y="597"/>
    </contour>
    <contour>
      <point x="211.038" y="550" type="curve" smooth="yes"/>
      <point x="211.038" y="505" type="line"/>
      <point x="394.038" y="505" type="line"/>
      <point x="394.038" y="518" type="line" smooth="yes"/>
      <point x="394.038" y="547.728"/>
      <point x="394.168" y="562.578"/>
      <point x="398.809" y="585.556" type="curve"/>
      <point x="387.54" y="618.409"/>
      <point x="378.476" y="712"/>
      <point x="318.354" y="712" type="curve" smooth="yes"/>
      <point x="242.382" y="712"/>
      <point x="211.038" y="650.857"/>
    </contour>
  </outline>
</glyph>
<glyph name="uniFB04" format="1">
  <advance width="925"/>
  <unicode hex="FB04"/>
  <outline>
    <contour>
      <point x="56.0381" y="30" type="line" smooth="yes"/>
      <point x="76.3105" y="30"/>
      <point x="82.959" y="39.6104"/>
      <point x="85.0381" y="53.9844" type="curve"/>
      <point x="85.0381" y="456.254" type="line"/>
      <point x="49.4219" y="455.397"/>
      <point x="44.8037" y="453.192"/>
      <point x="30" y="451.083" type="curve"/>
      <point x="38.4229" y="501" type="line"/>
      <point x="85.1113" y="501" type="line"/>
      <point x="85.3496" y="513.024"/>
      <point x="86.0381" y="525.101"/>
      <point x="86.0381" y="536" type="curve" smooth="yes"/>
      <point x="86.0381" y="656.905"/>
      <point x="182.547" y="747.674"/>
      <point x="293.816" y="747.674" type="curve" smooth="yes"/>
      <point x="341.269" y="747.674"/>
      <point x="397.187" y="716.251"/>
      <point x="431.344" y="679.677" type="curve"/>
      <point x="469.326" y="733.362"/>
      <point x="540.773" y="767.25"/>
      <point x="631.788" y="767.25" type="curve" smooth="yes"/>
      <point x="664.653" y="767.25"/>
      <point x="702.702" y="754.283"/>
      <point x="721.614" y="742.461" type="curve"/>
      <point x="824.094" y="768.725" type="line"/>
      <point x="825.977" y="769.263"/>
      <point x="827.655" y="769.413"/>
      <point x="829.038" y="769.413" type="curve" smooth="yes"/>
      <point x="842.022" y="769.413"/>
      <point x="842.038" y="754.424"/>
      <point x="842.038" y="745" type="curve" smooth="yes"/>
      <point x="842.038" y="53.1211" type="line"/>
      <point x="844.187" y="38.1016"/>
      <point x="850.458" y="29"/>
      <point x="871.038" y="29" type="curve" smooth="yes"/>
      <point x="878.038" y="29" type="line"/>
      <point x="878.038" y="-1" type="line"/>
      <point x="672.038" y="-1" type="line"/>
      <point x="672.038" y="29" type="line"/>
      <point x="679.038" y="29" type="line" smooth="yes"/>
      <point x="699.834" y="29"/>
      <point x="705.487" y="39.377"/>
      <point x="709.038" y="53.4844" type="curve"/>
      <point x="709.038" y="629.206" type="line"/>
      <point x="681" y="644"/>
      <point x="692" y="731"/>
      <point x="628.038" y="731" type="curve" smooth="yes"/>
      <point x="575.256" y="731"/>
      <point x="530.038" y="681.788"/>
      <point x="530.038" y="556" type="curve" smooth="yes"/>
      <point x="530.038" y="549.627"/>
      <point x="530.038" y="541.627"/>
      <point x="530.038" y="534" type="curve" smooth="yes"/>
      <point x="530.038" y="505" type="line"/>
      <point x="622.038" y="505" type="line" smooth="yes"/>
      <point x="643.962" y="505"/>
      <point x="655.911" y="497.583"/>
      <point x="655.911" y="483.168" type="curve" smooth="yes"/>
      <point x="655.911" y="473.89"/>
      <point x="652.383" y="459.307"/>
      <point x="648.083" y="454" type="curve"/>
      <point x="643.038" y="454" type="line" smooth="yes"/>
      <point x="637.422" y="454"/>
      <point x="576.376" y="456.795"/>
      <point x="537.038" y="456.984" type="curve"/>
      <point x="537.038" y="53.9395" type="line"/>
      <point x="539.313" y="38.2412"/>
      <point x="544.233" y="30"/>
      <point x="566.038" y="30" type="curve" smooth="yes"/>
      <point x="573.038" y="30" type="line"/>
      <point x="573.038" y="0" type="line"/>
      <point x="362.038" y="0" type="line"/>
      <point x="362.038" y="29" type="line"/>
      <point x="369.038" y="29" type="line" smooth="yes"/>
      <point x="389.297" y="29"/>
      <point x="395.956" y="38.5879"/>
      <point x="398.038" y="52.9414" type="curve"/>
      <point x="398.038" y="456" type="line"/>
      <point x="223.038" y="456" type="line"/>
      <point x="223.038" y="53.9414" type="line"/>
      <point x="225.202" y="39.0059"/>
      <point x="231.906" y="30"/>
      <point x="252.038" y="30" type="curve" smooth="yes"/>
      <point x="259.038" y="30" type="line"/>
      <point x="259.038" y="0" type="line"/>
      <point x="49.0381" y="0" type="line"/>
      <point x="49.0381" y="30" type="line"/>
    </contour>
    <contour>
      <point x="215.038" y="505" type="line"/>
      <point x="398.038" y="505" type="line"/>
      <point x="398.038" y="530" type="line" smooth="yes"/>
      <point x="398.038" y="555.894"/>
      <point x="400.717" y="583.661"/>
      <point x="403.942" y="603.929" type="curve"/>
      <point x="398.225" y="633.691"/>
      <point x="379.663" y="707"/>
      <point x="310.995" y="707" type="curve" smooth="yes"/>
      <point x="235.336" y="707"/>
      <point x="215.038" y="631.857"/>
      <point x="215.038" y="531" type="curve" smooth="yes"/>
    </contour>
  </outline>
</glyph>
